G04*
G04 #@! TF.GenerationSoftware,Altium Limited,Altium Designer,24.4.1 (13)*
G04*
G04 Layer_Physical_Order=2*
G04 Layer_Color=16711680*
%FSLAX25Y25*%
%MOIN*%
G70*
G04*
G04 #@! TF.SameCoordinates,58F61C8A-C965-4830-B12A-95CD484E7F12*
G04*
G04*
G04 #@! TF.FilePolarity,Positive*
G04*
G01*
G75*
%ADD48R,0.05315X0.05315*%
%ADD49C,0.05315*%
%ADD53C,0.06299*%
%ADD54R,0.06299X0.06299*%
%ADD66C,0.04000*%
%ADD67C,0.02000*%
%ADD68C,0.07087*%
%ADD69C,0.18898*%
%ADD70C,0.05118*%
G04:AMPARAMS|DCode=71|XSize=51.18mil|YSize=51.18mil|CornerRadius=12.8mil|HoleSize=0mil|Usage=FLASHONLY|Rotation=0.000|XOffset=0mil|YOffset=0mil|HoleType=Round|Shape=RoundedRectangle|*
%AMROUNDEDRECTD71*
21,1,0.05118,0.02559,0,0,0.0*
21,1,0.02559,0.05118,0,0,0.0*
1,1,0.02559,0.01280,-0.01280*
1,1,0.02559,-0.01280,-0.01280*
1,1,0.02559,-0.01280,0.01280*
1,1,0.02559,0.01280,0.01280*
%
%ADD71ROUNDEDRECTD71*%
%ADD72C,0.04134*%
%ADD73R,0.04134X0.04134*%
%ADD74C,0.07500*%
%ADD75R,0.06299X0.06299*%
G04:AMPARAMS|DCode=76|XSize=62.99mil|YSize=62.99mil|CornerRadius=15.75mil|HoleSize=0mil|Usage=FLASHONLY|Rotation=180.000|XOffset=0mil|YOffset=0mil|HoleType=Round|Shape=RoundedRectangle|*
%AMROUNDEDRECTD76*
21,1,0.06299,0.03150,0,0,180.0*
21,1,0.03150,0.06299,0,0,180.0*
1,1,0.03150,-0.01575,0.01575*
1,1,0.03150,0.01575,0.01575*
1,1,0.03150,0.01575,-0.01575*
1,1,0.03150,-0.01575,-0.01575*
%
%ADD76ROUNDEDRECTD76*%
%ADD77C,0.05000*%
%ADD78R,0.05000X0.05000*%
%ADD79C,0.04685*%
%ADD80R,0.04685X0.04685*%
%ADD81C,0.07559*%
%ADD82R,0.07559X0.07559*%
%ADD83C,0.04528*%
%ADD84R,0.04528X0.04528*%
G04:AMPARAMS|DCode=85|XSize=62.99mil|YSize=62.99mil|CornerRadius=15.75mil|HoleSize=0mil|Usage=FLASHONLY|Rotation=270.000|XOffset=0mil|YOffset=0mil|HoleType=Round|Shape=RoundedRectangle|*
%AMROUNDEDRECTD85*
21,1,0.06299,0.03150,0,0,270.0*
21,1,0.03150,0.06299,0,0,270.0*
1,1,0.03150,-0.01575,-0.01575*
1,1,0.03150,-0.01575,0.01575*
1,1,0.03150,0.01575,0.01575*
1,1,0.03150,0.01575,-0.01575*
%
%ADD85ROUNDEDRECTD85*%
%ADD86C,0.08858*%
%ADD87R,0.05906X0.05906*%
%ADD88C,0.05906*%
G36*
X314961D02*
X0D01*
Y334646D01*
X314961D01*
Y0D01*
D02*
G37*
%LPC*%
G36*
X129385Y309325D02*
X125948D01*
X123517Y306895D01*
Y303457D01*
X125948Y301026D01*
X129385D01*
X131816Y303457D01*
Y306895D01*
X129385Y309325D01*
D02*
G37*
G36*
X119385D02*
X115948D01*
X113517Y306895D01*
Y303457D01*
X115948Y301026D01*
X119385D01*
X121816Y303457D01*
Y306895D01*
X119385Y309325D01*
D02*
G37*
G36*
X139241Y309538D02*
X136092D01*
X134121Y308721D01*
X133305Y306751D01*
Y303601D01*
X134121Y301630D01*
X136092Y300814D01*
X139241D01*
X141212Y301630D01*
X142028Y303601D01*
Y306751D01*
X141212Y308721D01*
X139241Y309538D01*
D02*
G37*
G36*
X291257Y305865D02*
X242049D01*
X240518Y305231D01*
X236162Y300874D01*
X233287D01*
X231316Y300058D01*
X230500Y298088D01*
Y294938D01*
X230718Y294411D01*
X230302Y294134D01*
X229011Y295425D01*
Y298232D01*
X226581Y300662D01*
X223143D01*
X220712Y298232D01*
Y294794D01*
X223143Y292363D01*
X225950D01*
X233054Y285259D01*
X232863Y284797D01*
X232077D01*
X230858Y283578D01*
X219011Y295425D01*
Y298232D01*
X216581Y300662D01*
X213143D01*
X210712Y298232D01*
Y294794D01*
X213143Y292363D01*
X215950D01*
X223055Y285259D01*
X222863Y284797D01*
X222077D01*
X219935Y282654D01*
Y279624D01*
X220532Y279027D01*
X220341Y278565D01*
X216843D01*
X216652Y279027D01*
X217249Y279624D01*
Y282654D01*
X215107Y284797D01*
X212077D01*
X209934Y282654D01*
Y279624D01*
X210532Y279027D01*
X210341Y278565D01*
X206843D01*
X206652Y279027D01*
X207249Y279624D01*
Y282654D01*
X205107Y284797D01*
X202077D01*
X199934Y282654D01*
Y279624D01*
X200532Y279027D01*
X200341Y278565D01*
X196843D01*
X196652Y279027D01*
X197249Y279624D01*
Y282654D01*
X195107Y284797D01*
X192996D01*
X188962Y288831D01*
X187431Y289465D01*
X160785D01*
X159450Y290800D01*
X156550D01*
X154500Y288750D01*
Y285850D01*
X155054Y285297D01*
X154847Y284797D01*
X152077D01*
X149934Y282654D01*
Y279624D01*
X152077Y277482D01*
X155107D01*
X157249Y279624D01*
Y282654D01*
X156604Y283300D01*
X156811Y283800D01*
X159450D01*
X160785Y285135D01*
X161708D01*
X161916Y284635D01*
X159934Y282654D01*
Y280543D01*
X112061Y232670D01*
X111427Y231139D01*
Y223397D01*
X109934Y221904D01*
Y218874D01*
X112077Y216732D01*
X115107D01*
X115973Y217598D01*
X116435Y217407D01*
Y214947D01*
X108469Y206981D01*
X107835Y205450D01*
Y192800D01*
X108469Y191269D01*
X110370Y189369D01*
X110178Y188907D01*
X108730D01*
X106933Y187110D01*
Y184569D01*
X107134Y184369D01*
X106942Y183907D01*
X101933D01*
Y178465D01*
X95697D01*
X94819Y179342D01*
X93288Y179976D01*
X87662D01*
X85077Y182562D01*
X81142D01*
X78359Y179779D01*
Y175844D01*
X81142Y173062D01*
X85077D01*
X87662Y175647D01*
X92392D01*
X93269Y174769D01*
X94800Y174135D01*
X110460D01*
X111991Y174769D01*
X114995Y177773D01*
X116270D01*
X118067Y179569D01*
Y181018D01*
X118529Y181210D01*
X127953Y171785D01*
Y126651D01*
X127491Y126460D01*
X126389Y127562D01*
X125113D01*
X107165Y145510D01*
Y152976D01*
X108067D01*
Y157985D01*
X108529Y158176D01*
X108730Y157976D01*
X111270D01*
X113067Y159772D01*
Y162313D01*
X111270Y164110D01*
X108730D01*
X107827Y163207D01*
X86841D01*
X85311Y162573D01*
X60979Y138242D01*
X59703D01*
X57907Y136446D01*
Y133905D01*
X58108Y133704D01*
X57916Y133242D01*
X52907D01*
Y127108D01*
X52907D01*
X52781Y126660D01*
X26121D01*
X25830Y126951D01*
Y130942D01*
X47968D01*
X50264Y131893D01*
X81433Y163062D01*
X85077D01*
X87859Y165844D01*
Y169779D01*
X85077Y172562D01*
X81142D01*
X78359Y169779D01*
Y168695D01*
X77545Y168358D01*
X46623Y137436D01*
X14548D01*
X12252Y136485D01*
X9909Y134142D01*
X8958Y131846D01*
Y86717D01*
X9909Y84421D01*
X25567Y68763D01*
Y66596D01*
X28308Y63855D01*
X28224Y63355D01*
X25567D01*
Y53796D01*
X35126D01*
Y63355D01*
X32469D01*
X32385Y63855D01*
X35126Y66596D01*
Y70555D01*
X32368Y73313D01*
X32345Y73575D01*
X32368Y73838D01*
X35126Y76596D01*
Y78763D01*
X43219Y86855D01*
X46593D01*
X48775Y84674D01*
X53272D01*
X56453Y87854D01*
Y92351D01*
X53272Y95532D01*
X48775D01*
X46593Y93350D01*
X41874D01*
X39578Y92399D01*
X30534Y83355D01*
X28367D01*
X25567Y80555D01*
Y78600D01*
X25105Y78409D01*
X15452Y88062D01*
Y130501D01*
X15893Y130942D01*
X17531D01*
Y123890D01*
X22769D01*
X23693Y122965D01*
X25224Y122331D01*
X122946D01*
X123848Y121429D01*
X126389D01*
X127491Y122532D01*
X127953Y122340D01*
Y121668D01*
X127051Y120766D01*
Y118225D01*
X128848Y116429D01*
X131389D01*
X133185Y118225D01*
Y120766D01*
X132984Y120967D01*
X133176Y121429D01*
X136514D01*
X136705Y120967D01*
X126258Y110519D01*
X25384D01*
X23399Y112504D01*
X19962D01*
X17531Y110073D01*
Y106635D01*
X19962Y104205D01*
X23399D01*
X25384Y106189D01*
X103749D01*
X103940Y105728D01*
X102563Y104350D01*
Y101450D01*
X104613Y99400D01*
X107513D01*
X108848Y100735D01*
X126600D01*
X128131Y101369D01*
X176197Y149435D01*
X235500D01*
X237031Y150069D01*
X246397Y159435D01*
X249212D01*
Y155755D01*
X239422Y145965D01*
X178723D01*
X177192Y145331D01*
X173338Y141477D01*
X171450D01*
X169400Y139427D01*
Y136528D01*
X171450Y134477D01*
X174350D01*
X176400Y136528D01*
Y138416D01*
X179619Y141635D01*
X240318D01*
X241849Y142269D01*
X252274Y152694D01*
X256128D01*
X256320Y152232D01*
X244195Y140108D01*
X242641D01*
X240729Y138196D01*
Y135492D01*
X242641Y133580D01*
X245345D01*
X247257Y135492D01*
Y137046D01*
X261491Y151280D01*
X261953Y151089D01*
Y115739D01*
X244195Y97982D01*
X240729D01*
Y93193D01*
X240229Y92986D01*
X226185Y107031D01*
X224654Y107665D01*
X193497D01*
X183500Y117661D01*
Y119550D01*
X181450Y121600D01*
X178550D01*
X176500Y119550D01*
Y116650D01*
X178550Y114600D01*
X180438D01*
X191069Y103969D01*
X192600Y103335D01*
X223757D01*
X230608Y96485D01*
X230324Y96061D01*
X229134Y96554D01*
X184510D01*
X182214Y95603D01*
X178780Y92169D01*
X175517Y95432D01*
X173221Y96383D01*
X154234D01*
X151937Y95432D01*
X149855Y93350D01*
X144431D01*
X142249Y95532D01*
X137751D01*
X134571Y92351D01*
Y87854D01*
X137751Y84674D01*
X142249D01*
X144431Y86855D01*
X151200D01*
X153496Y87806D01*
X155578Y89889D01*
X161626D01*
X161817Y89427D01*
X161441Y89051D01*
Y86103D01*
X163526Y84018D01*
X163945D01*
X164137Y83556D01*
X139927Y59346D01*
X137120D01*
X134689Y56915D01*
Y53478D01*
X137120Y51047D01*
X140557D01*
X142988Y53478D01*
Y56285D01*
X167539Y80835D01*
X203868D01*
X205398Y81469D01*
X207947Y84018D01*
X209919D01*
X212004Y86103D01*
Y89051D01*
X211457Y89598D01*
X211648Y90060D01*
X218526D01*
X218804Y89644D01*
X218477Y88857D01*
Y86298D01*
X219200Y84553D01*
X220945Y83830D01*
X223504D01*
X225248Y84553D01*
X225971Y86298D01*
Y88857D01*
X225645Y89644D01*
X225923Y90060D01*
X227789D01*
X240545Y77304D01*
X242841Y76353D01*
X289920D01*
X290173Y76100D01*
X293072D01*
X295122Y78150D01*
Y81050D01*
X293072Y83100D01*
X290173D01*
X289920Y82847D01*
X244186D01*
X238992Y88041D01*
X239275Y88465D01*
X239700Y88289D01*
X254654D01*
X256185Y88923D01*
X275594Y108333D01*
X277482D01*
X279533Y110383D01*
Y113282D01*
X277482Y115333D01*
X274583D01*
X272533Y113282D01*
Y111394D01*
X253757Y92619D01*
X247257D01*
Y94920D01*
X265649Y113312D01*
X266283Y114843D01*
Y183984D01*
X266744Y184175D01*
X271850Y179069D01*
X273381Y178435D01*
X287314D01*
X288649Y177100D01*
X291548D01*
X293599Y179150D01*
Y182050D01*
X291548Y184100D01*
X288649D01*
X287314Y182765D01*
X274278D01*
X237249Y219793D01*
Y221904D01*
X236680Y222473D01*
X236872Y222935D01*
X240312D01*
X240504Y222473D01*
X239934Y221904D01*
Y218874D01*
X242077Y216732D01*
X244188D01*
X254050Y206869D01*
X255581Y206235D01*
X296865D01*
X298200Y204900D01*
X301099D01*
X303150Y206950D01*
Y209850D01*
X301099Y211900D01*
X298200D01*
X296865Y210565D01*
X256478D01*
X247250Y219793D01*
Y221904D01*
X246680Y222473D01*
X246872Y222935D01*
X250312D01*
X250504Y222473D01*
X249935Y221904D01*
Y218874D01*
X252077Y216732D01*
X255107D01*
X257249Y218874D01*
Y221904D01*
X256680Y222473D01*
X256872Y222935D01*
X260312D01*
X260504Y222473D01*
X259934Y221904D01*
Y218874D01*
X262077Y216732D01*
X265107D01*
X267249Y218874D01*
Y221904D01*
X266680Y222473D01*
X266872Y222935D01*
X270015D01*
X271350Y221600D01*
X274250D01*
X276300Y223650D01*
Y226550D01*
X274250Y228600D01*
X271350D01*
X270015Y227265D01*
X121200D01*
X119669Y226631D01*
X117069Y224031D01*
X116671Y223070D01*
X116181Y222973D01*
X115757Y223397D01*
Y230242D01*
X162996Y277482D01*
X164188D01*
X166800Y274869D01*
X168331Y274235D01*
X246250D01*
X247781Y274869D01*
X249831Y276919D01*
X250446Y278405D01*
X250927Y278632D01*
X252077Y277482D01*
X254188D01*
X289837Y241833D01*
X291367Y241199D01*
X292379D01*
X294364Y239214D01*
X297802D01*
X300232Y241645D01*
Y245083D01*
X297802Y247513D01*
X294364D01*
X292379Y245529D01*
X292264D01*
X257249Y280543D01*
Y282654D01*
X255107Y284797D01*
X252077D01*
X250751Y283471D01*
X250260Y283568D01*
X249831Y284605D01*
X239224Y295213D01*
Y297813D01*
X242946Y301535D01*
X258113D01*
X258304Y301073D01*
X257306Y300075D01*
Y297045D01*
X259448Y294902D01*
X262478D01*
X264621Y297045D01*
Y300075D01*
X263623Y301073D01*
X263814Y301535D01*
X290360D01*
X292739Y299156D01*
Y297045D01*
X294882Y294902D01*
X297912D01*
X300054Y297045D01*
Y300075D01*
X297912Y302218D01*
X295801D01*
X292787Y305231D01*
X291257Y305865D01*
D02*
G37*
G36*
X206581Y300662D02*
X203143D01*
X200712Y298232D01*
Y294794D01*
X203143Y292363D01*
X206581D01*
X209011Y294794D01*
Y298232D01*
X206581Y300662D01*
D02*
G37*
G36*
X145107Y284797D02*
X142077D01*
X139935Y282654D01*
Y279624D01*
X142077Y277482D01*
X145107D01*
X147249Y279624D01*
Y282654D01*
X145107Y284797D01*
D02*
G37*
G36*
X135107D02*
X132077D01*
X129935Y282654D01*
Y279624D01*
X132077Y277482D01*
X135107D01*
X137250Y279624D01*
Y282654D01*
X135107Y284797D01*
D02*
G37*
G36*
X125107D02*
X122077D01*
X119934Y282654D01*
Y279624D01*
X122077Y277482D01*
X125107D01*
X127250Y279624D01*
Y282654D01*
X125107Y284797D01*
D02*
G37*
G36*
X86331Y290565D02*
X65000D01*
X63469Y289931D01*
X54469Y280931D01*
X53835Y279400D01*
Y260204D01*
X52500Y258869D01*
Y255970D01*
X54550Y253919D01*
X55647D01*
X55800Y253550D01*
Y250650D01*
X57850Y248600D01*
X60750D01*
X62800Y250650D01*
Y252538D01*
X78106Y267844D01*
X79850Y266100D01*
X82750D01*
X84085Y267435D01*
X102053D01*
X103584Y268069D01*
X112996Y277482D01*
X115107D01*
X117250Y279624D01*
Y282654D01*
X115107Y284797D01*
X112077D01*
X109934Y282654D01*
Y280543D01*
X101156Y271765D01*
X84085D01*
X82750Y273100D01*
X80469D01*
X80261Y273600D01*
X80897Y274235D01*
X98853D01*
X100383Y274869D01*
X102996Y277482D01*
X105107D01*
X107249Y279624D01*
Y282654D01*
X105107Y284797D01*
X102077D01*
X99935Y282654D01*
Y280543D01*
X97956Y278565D01*
X96843D01*
X96652Y279027D01*
X97250Y279624D01*
Y282654D01*
X95107Y284797D01*
X92996D01*
X87862Y289931D01*
X86331Y290565D01*
D02*
G37*
G36*
X265107Y284797D02*
X262077D01*
X259934Y282654D01*
Y279624D01*
X262077Y277482D01*
X265107D01*
X266600Y278974D01*
X267411D01*
X291933Y254452D01*
Y251645D01*
X294364Y249214D01*
X297802D01*
X300232Y251645D01*
Y255083D01*
X297802Y257513D01*
X294995D01*
X293704Y258804D01*
X293981Y259220D01*
X294508Y259002D01*
X297658D01*
X299628Y259818D01*
X300445Y261789D01*
Y264939D01*
X299628Y266909D01*
X297658Y267725D01*
X294508D01*
X292537Y266909D01*
X291721Y264939D01*
Y261789D01*
X291939Y261262D01*
X291524Y260985D01*
X269838Y282670D01*
X268307Y283304D01*
X266600D01*
X265107Y284797D01*
D02*
G37*
G36*
X105107Y224047D02*
X102077D01*
X99935Y221904D01*
Y218874D01*
X102077Y216732D01*
X105107D01*
X107249Y218874D01*
Y221904D01*
X105107Y224047D01*
D02*
G37*
G36*
X95107D02*
X92077D01*
X89934Y221904D01*
Y218874D01*
X92077Y216732D01*
X95107D01*
X97250Y218874D01*
Y221904D01*
X95107Y224047D01*
D02*
G37*
G36*
X85107D02*
X82077D01*
X79935Y221904D01*
Y218874D01*
X82077Y216732D01*
X85107D01*
X87249Y218874D01*
Y221904D01*
X85107Y224047D01*
D02*
G37*
G36*
X77249D02*
X69934D01*
Y216732D01*
X77249D01*
Y224047D01*
D02*
G37*
G36*
X25830Y186106D02*
X17531D01*
Y177807D01*
X25830D01*
Y179792D01*
X38068D01*
X48359Y169500D01*
Y165844D01*
X51142Y163062D01*
X55077D01*
X57859Y165844D01*
Y169779D01*
X55077Y172562D01*
X51871D01*
X52138Y173062D01*
X55077D01*
X57859Y175844D01*
Y179779D01*
X55077Y182562D01*
X51142D01*
X48359Y179779D01*
Y176330D01*
X47859Y176123D01*
X40495Y183487D01*
X38964Y184121D01*
X25830D01*
Y186106D01*
D02*
G37*
G36*
X23399Y166421D02*
X19962D01*
X17531Y163990D01*
Y160553D01*
X19962Y158122D01*
X23399D01*
X25830Y160553D01*
Y163990D01*
X23399Y166421D01*
D02*
G37*
G36*
X116270Y159109D02*
X113730D01*
X111933Y157313D01*
Y154772D01*
X113730Y152976D01*
X116270D01*
X118067Y154772D01*
Y157313D01*
X116270Y159109D01*
D02*
G37*
G36*
X71940Y59346D02*
X68503D01*
X66072Y56915D01*
Y53478D01*
X68503Y51047D01*
X71940D01*
X74371Y53478D01*
Y56915D01*
X71940Y59346D01*
D02*
G37*
G36*
X61940D02*
X58503D01*
X56072Y56915D01*
Y53478D01*
X58503Y51047D01*
X61940D01*
X64371Y53478D01*
Y56915D01*
X61940Y59346D01*
D02*
G37*
G36*
X81796Y59558D02*
X78647D01*
X76676Y58742D01*
X75860Y56771D01*
Y53622D01*
X76676Y51651D01*
X78647Y50835D01*
X81796D01*
X83767Y51651D01*
X84583Y53622D01*
Y56771D01*
X83767Y58742D01*
X81796Y59558D01*
D02*
G37*
G36*
X171118Y24548D02*
X162819D01*
Y19310D01*
X160873Y17365D01*
X142169D01*
X141978Y17827D01*
X142831Y18680D01*
Y22117D01*
X140400Y24548D01*
X136962D01*
X134532Y22117D01*
Y18680D01*
X135385Y17827D01*
X135193Y17365D01*
X125092D01*
X123146Y19310D01*
Y24548D01*
X114847D01*
Y16249D01*
X120084D01*
X122664Y13669D01*
X124195Y13035D01*
X161770D01*
X163301Y13669D01*
X165881Y16249D01*
X171118D01*
Y24548D01*
D02*
G37*
G36*
X237616D02*
X234178D01*
X231747Y22117D01*
Y18680D01*
X234178Y16249D01*
X237616D01*
X240047Y18680D01*
Y22117D01*
X237616Y24548D01*
D02*
G37*
G36*
X302250Y174900D02*
X299350D01*
X297300Y172850D01*
Y169950D01*
X298635Y168615D01*
Y68397D01*
X282403Y52165D01*
X216183D01*
Y59425D01*
X207884D01*
Y52165D01*
X171587D01*
X171395Y52627D01*
X172325Y53556D01*
Y56994D01*
X169894Y59425D01*
X166457D01*
X164026Y56994D01*
Y54187D01*
X150403Y40565D01*
X126685D01*
X125350Y41900D01*
X122450D01*
X120400Y39850D01*
Y36950D01*
X122450Y34900D01*
X125350D01*
X126685Y36235D01*
X151300D01*
X152831Y36869D01*
X165978Y50016D01*
X166469Y49919D01*
X166645Y49494D01*
X167669Y48469D01*
X169200Y47835D01*
X283300D01*
X284831Y48469D01*
X302331Y65969D01*
X302965Y67500D01*
Y97408D01*
X303465Y97508D01*
X303993Y96233D01*
X306535Y93691D01*
Y50897D01*
X302503Y46865D01*
X240513D01*
X238983Y46231D01*
X217300Y24548D01*
X212062D01*
Y16249D01*
X220362D01*
Y21487D01*
X241410Y42535D01*
X303400D01*
X304931Y43169D01*
X310231Y48469D01*
X310865Y50000D01*
Y94587D01*
X310231Y96118D01*
X307688Y98660D01*
Y138803D01*
X309024Y140138D01*
Y143038D01*
X306973Y145088D01*
X304074D01*
X303427Y144441D01*
X302965Y144632D01*
Y168615D01*
X304300Y169950D01*
Y172850D01*
X302250Y174900D01*
D02*
G37*
G36*
X188372Y24548D02*
X184935D01*
X182504Y22117D01*
Y18680D01*
X184935Y16249D01*
X188372D01*
X190803Y18680D01*
Y22117D01*
X188372Y24548D01*
D02*
G37*
G36*
X91025D02*
X87587D01*
X85156Y22117D01*
Y18680D01*
X87587Y16249D01*
X91025D01*
X93456Y18680D01*
Y22117D01*
X91025Y24548D01*
D02*
G37*
G36*
X120413Y59558D02*
X117264D01*
X115293Y58742D01*
X114477Y56771D01*
Y55427D01*
X100097Y41047D01*
X37906D01*
X35609Y40096D01*
X20062Y24548D01*
X16355D01*
Y16249D01*
X24654D01*
Y19956D01*
X39251Y34553D01*
X101442D01*
X103738Y35504D01*
X118801Y50567D01*
X118892Y50549D01*
X119056Y50006D01*
X102097Y33047D01*
X79022D01*
X76726Y32096D01*
X69178Y24548D01*
X65471D01*
Y16249D01*
X73771D01*
Y19956D01*
X80367Y26553D01*
X103442D01*
X105738Y27504D01*
X129281Y51047D01*
X130557D01*
X132988Y53478D01*
Y56915D01*
X130557Y59346D01*
X127120D01*
X124689Y56915D01*
Y55639D01*
X123662Y54612D01*
X123200Y54804D01*
Y56771D01*
X122384Y58742D01*
X120413Y59558D01*
D02*
G37*
G36*
X41908Y24548D02*
X38470D01*
X36040Y22117D01*
Y18680D01*
X38470Y16249D01*
X41908D01*
X44339Y18680D01*
Y22117D01*
X41908Y24548D01*
D02*
G37*
%LPD*%
G36*
X233287Y292151D02*
X236162D01*
X243055Y285259D01*
X242863Y284797D01*
X242077D01*
X240858Y283578D01*
X232483Y291953D01*
X232760Y292369D01*
X233287Y292151D01*
D02*
G37*
G36*
X230504Y222473D02*
X229935Y221904D01*
Y218874D01*
X232077Y216732D01*
X234188D01*
X239193Y211727D01*
X239002Y211265D01*
X185778D01*
X177250Y219793D01*
Y221904D01*
X176680Y222473D01*
X176872Y222935D01*
X180312D01*
X180504Y222473D01*
X179935Y221904D01*
Y218874D01*
X182077Y216732D01*
X185107D01*
X187250Y218874D01*
Y221904D01*
X186680Y222473D01*
X186872Y222935D01*
X190312D01*
X190504Y222473D01*
X189935Y221904D01*
Y218874D01*
X192077Y216732D01*
X195107D01*
X197249Y218874D01*
Y221904D01*
X196680Y222473D01*
X196872Y222935D01*
X200312D01*
X200504Y222473D01*
X199934Y221904D01*
Y218874D01*
X202077Y216732D01*
X205107D01*
X207249Y218874D01*
Y221904D01*
X206680Y222473D01*
X206872Y222935D01*
X210312D01*
X210504Y222473D01*
X209934Y221904D01*
Y218874D01*
X212077Y216732D01*
X215107D01*
X217249Y218874D01*
Y221904D01*
X216680Y222473D01*
X216872Y222935D01*
X220312D01*
X220504Y222473D01*
X219935Y221904D01*
Y218874D01*
X222077Y216732D01*
X225107D01*
X227250Y218874D01*
Y221904D01*
X226680Y222473D01*
X226872Y222935D01*
X230312D01*
X230504Y222473D01*
D02*
G37*
G36*
X160504D02*
X159934Y221904D01*
Y218874D01*
X162077Y216732D01*
X164188D01*
X173635Y207284D01*
Y179432D01*
X172300Y178096D01*
Y175197D01*
X173270Y174227D01*
X173079Y173765D01*
X157385D01*
X156050Y175100D01*
X153150D01*
X151100Y173050D01*
Y170150D01*
X153150Y168100D01*
X156050D01*
X157385Y169435D01*
X219710D01*
X219902Y168973D01*
X219212Y168284D01*
Y165009D01*
X221528Y162694D01*
X224802D01*
X227118Y165009D01*
Y168284D01*
X226428Y168973D01*
X226620Y169435D01*
X247315D01*
X249212Y167538D01*
Y165009D01*
X249995Y164227D01*
X249803Y163765D01*
X245500D01*
X243969Y163131D01*
X234603Y153765D01*
X226526D01*
X226335Y154227D01*
X227118Y155009D01*
Y158284D01*
X224802Y160599D01*
X222274D01*
X216542Y166331D01*
X215012Y166965D01*
X149797D01*
X139943Y176819D01*
Y178707D01*
X138608Y180042D01*
Y180305D01*
X137973Y181835D01*
X119534Y200274D01*
Y203150D01*
X118718Y205120D01*
X116747Y205937D01*
X114255D01*
X114048Y206436D01*
X120131Y212519D01*
X120765Y214050D01*
Y217391D01*
X121227Y217582D01*
X122077Y216732D01*
X125107D01*
X127250Y218874D01*
Y221904D01*
X126680Y222473D01*
X126872Y222935D01*
X130312D01*
X130504Y222473D01*
X129935Y221904D01*
Y218874D01*
X132077Y216732D01*
X135107D01*
X137250Y218874D01*
Y221904D01*
X136680Y222473D01*
X136872Y222935D01*
X140312D01*
X140504Y222473D01*
X139935Y221904D01*
Y218874D01*
X142077Y216732D01*
X144188D01*
X146065Y214855D01*
X146569Y213637D01*
X154072Y206134D01*
X153794Y205718D01*
X153268Y205936D01*
X150393D01*
X142635Y213694D01*
X142131Y214912D01*
X140600Y215546D01*
X139069Y214912D01*
X138435Y213381D01*
Y212668D01*
X139069Y211137D01*
X147331Y202875D01*
Y200000D01*
X148147Y198029D01*
X150118Y197213D01*
X153268D01*
X155238Y198029D01*
X156055Y200000D01*
Y203149D01*
X155837Y203676D01*
X156252Y203954D01*
X157543Y202663D01*
Y199856D01*
X159974Y197425D01*
X163412D01*
X165843Y199856D01*
Y203293D01*
X163412Y205724D01*
X160605D01*
X150135Y216194D01*
X149631Y217412D01*
X147249Y219793D01*
Y221904D01*
X146680Y222473D01*
X146872Y222935D01*
X150312D01*
X150504Y222473D01*
X149934Y221904D01*
Y218874D01*
X152077Y216732D01*
X155107D01*
X157249Y218874D01*
Y221904D01*
X156680Y222473D01*
X156872Y222935D01*
X160312D01*
X160504Y222473D01*
D02*
G37*
G36*
X170504D02*
X169934Y221904D01*
Y218874D01*
X172077Y216732D01*
X174188D01*
X183351Y207569D01*
X184881Y206935D01*
X239003D01*
X254865Y191073D01*
X254632Y190599D01*
X251528D01*
X249212Y188284D01*
Y185009D01*
X251528Y182694D01*
X254056D01*
X258953Y177797D01*
Y174573D01*
X258491Y174382D01*
X257118Y175755D01*
Y178284D01*
X254802Y180599D01*
X251528D01*
X249212Y178284D01*
Y175009D01*
X251528Y172694D01*
X254056D01*
X255953Y170797D01*
Y170102D01*
X255491Y169911D01*
X254802Y170599D01*
X252274D01*
X249742Y173131D01*
X248212Y173765D01*
X226526D01*
X226335Y174227D01*
X227118Y175009D01*
Y178284D01*
X224802Y180599D01*
X221528D01*
X219212Y178284D01*
Y175009D01*
X219995Y174227D01*
X219804Y173765D01*
X178521D01*
X178330Y174227D01*
X179300Y175197D01*
Y178096D01*
X177965Y179432D01*
Y208181D01*
X177331Y209712D01*
X167250Y219793D01*
Y221904D01*
X166680Y222473D01*
X166872Y222935D01*
X170312D01*
X170504Y222473D01*
D02*
G37*
G36*
X113598Y197213D02*
X116473D01*
X133961Y179725D01*
X132943Y178707D01*
Y175807D01*
X134993Y173757D01*
X136881D01*
X147369Y163269D01*
X148900Y162635D01*
X178346D01*
X178446Y162135D01*
X177469Y161731D01*
X138647Y122908D01*
X138185Y123100D01*
Y127562D01*
X132283D01*
Y166802D01*
X132745Y166994D01*
X134544Y165194D01*
X134100Y164750D01*
Y161850D01*
X136150Y159800D01*
X139050D01*
X141100Y161850D01*
Y164750D01*
X139139Y166711D01*
X139131Y166731D01*
X131649Y174213D01*
X112165Y193697D01*
Y197357D01*
X112581Y197634D01*
X113598Y197213D01*
D02*
G37*
G36*
X219212Y157538D02*
Y155009D01*
X219995Y154227D01*
X219804Y153765D01*
X176279D01*
X176088Y154227D01*
X179897Y158035D01*
X183615D01*
X184950Y156700D01*
X187850D01*
X189900Y158750D01*
Y161650D01*
X189376Y162173D01*
X189568Y162635D01*
X214115D01*
X219212Y157538D01*
D02*
G37*
G36*
X101933Y152976D02*
X102835D01*
Y144614D01*
X103469Y143083D01*
X119430Y127122D01*
X119239Y126660D01*
X67370D01*
X67296Y127160D01*
X69041Y128905D01*
Y131446D01*
X67244Y133242D01*
X64703D01*
X62907Y131446D01*
Y128905D01*
X64651Y127160D01*
X64578Y126660D01*
X59167D01*
X59041Y127108D01*
X59041D01*
Y132118D01*
X59503Y132309D01*
X59703Y132108D01*
X62244D01*
X64041Y133905D01*
Y135181D01*
X87738Y158878D01*
X101933D01*
Y152976D01*
D02*
G37*
G36*
X205432Y89598D02*
X204886Y89051D01*
Y87079D01*
X202971Y85165D01*
X182508D01*
X182230Y85580D01*
X182527Y86298D01*
Y86732D01*
X185855Y90060D01*
X205241D01*
X205432Y89598D01*
D02*
G37*
%LPC*%
G36*
X136891Y205724D02*
X133454D01*
X131023Y203294D01*
Y199856D01*
X133454Y197425D01*
X136891D01*
X139322Y199856D01*
Y203294D01*
X136891Y205724D01*
D02*
G37*
G36*
X126891D02*
X123454D01*
X121023Y203294D01*
Y199856D01*
X123454Y197425D01*
X126891D01*
X129322Y199856D01*
Y203294D01*
X126891Y205724D01*
D02*
G37*
G36*
X236106Y205759D02*
X232668D01*
X230237Y203328D01*
Y199891D01*
X232668Y197460D01*
X236106D01*
X238537Y199891D01*
Y203328D01*
X236106Y205759D01*
D02*
G37*
G36*
X226106D02*
X222668D01*
X220237Y203328D01*
Y199891D01*
X222668Y197460D01*
X226106D01*
X228537Y199891D01*
Y203328D01*
X226106Y205759D01*
D02*
G37*
G36*
X216106D02*
X212668D01*
X210237Y203328D01*
Y199891D01*
X212668Y197460D01*
X216106D01*
X218537Y199891D01*
Y203328D01*
X216106Y205759D01*
D02*
G37*
G36*
X206106D02*
X202668D01*
X200237Y203328D01*
Y199891D01*
X202668Y197460D01*
X206106D01*
X208537Y199891D01*
Y203328D01*
X206106Y205759D01*
D02*
G37*
G36*
X195962Y205971D02*
X192812D01*
X190841Y205155D01*
X190025Y203184D01*
Y200035D01*
X190841Y198064D01*
X192812Y197248D01*
X195962D01*
X197933Y198064D01*
X198749Y200035D01*
Y203184D01*
X197933Y205155D01*
X195962Y205971D01*
D02*
G37*
G36*
X224802Y190599D02*
X221528D01*
X219212Y188284D01*
Y185009D01*
X221528Y182694D01*
X224802D01*
X227118Y185009D01*
Y188284D01*
X224802Y190599D01*
D02*
G37*
%LPD*%
G36*
X89934Y281735D02*
Y279624D01*
X90532Y279027D01*
X90341Y278565D01*
X86843D01*
X86652Y279027D01*
X87249Y279624D01*
Y282654D01*
X85107Y284797D01*
X82077D01*
X79935Y282654D01*
Y279624D01*
X80532Y279027D01*
X80341Y278565D01*
X80000D01*
X78469Y277931D01*
X75269Y274731D01*
X74635Y273200D01*
Y270497D01*
X59924Y255785D01*
X59500Y256069D01*
Y258869D01*
X58165Y260204D01*
Y278503D01*
X65897Y286235D01*
X85435D01*
X89934Y281735D01*
D02*
G37*
%LPC*%
G36*
X75107Y284797D02*
X72077D01*
X69934Y282654D01*
Y279624D01*
X72077Y277482D01*
X75107D01*
X77249Y279624D01*
Y282654D01*
X75107Y284797D01*
D02*
G37*
%LPD*%
D48*
X73592Y220389D02*
D03*
D49*
X83592D02*
D03*
X93592D02*
D03*
X103592D02*
D03*
X113592D02*
D03*
X123592D02*
D03*
X133592D02*
D03*
X143592D02*
D03*
X153592D02*
D03*
X163592D02*
D03*
X173592D02*
D03*
X183592D02*
D03*
X193592D02*
D03*
X203592D02*
D03*
X213592D02*
D03*
X223592D02*
D03*
X233592D02*
D03*
X243592D02*
D03*
X253592D02*
D03*
X263592D02*
D03*
Y281139D02*
D03*
X253592D02*
D03*
X243592D02*
D03*
X233592D02*
D03*
X223592D02*
D03*
X213592D02*
D03*
X203592D02*
D03*
X193592D02*
D03*
X183592D02*
D03*
X173592D02*
D03*
X163592D02*
D03*
X153592D02*
D03*
X143592D02*
D03*
X133592D02*
D03*
X123592D02*
D03*
X113592D02*
D03*
X103592D02*
D03*
X93592D02*
D03*
X83592D02*
D03*
X73592D02*
D03*
X260963Y298560D02*
D03*
X296397D02*
D03*
D53*
X117667Y305176D02*
D03*
X127667D02*
D03*
X40189Y20399D02*
D03*
X89306D02*
D03*
X235897D02*
D03*
X186654D02*
D03*
X138681D02*
D03*
X21680Y108354D02*
D03*
X224862Y296513D02*
D03*
X214862D02*
D03*
X204862D02*
D03*
X296083Y253364D02*
D03*
Y243364D02*
D03*
X168175Y55275D02*
D03*
X70221Y55197D02*
D03*
X60221D02*
D03*
X21680Y162271D02*
D03*
X125173Y201575D02*
D03*
X135173D02*
D03*
X161693Y201575D02*
D03*
X214387Y201609D02*
D03*
X204387D02*
D03*
X224387D02*
D03*
X234387D02*
D03*
X138839Y55197D02*
D03*
X128839D02*
D03*
D54*
X20504Y20399D02*
D03*
X69621D02*
D03*
X216212D02*
D03*
X166969D02*
D03*
X118996D02*
D03*
X212034Y55275D02*
D03*
D66*
X178780Y87577D02*
X184510Y93307D01*
X229134D01*
X242841Y79600D01*
X291622D01*
X173221Y93136D02*
X178780Y87577D01*
X151200Y90103D02*
X154234Y93136D01*
X173221D01*
X82162Y167812D02*
X83109D01*
X79841Y166062D02*
X80412D01*
X14548Y134189D02*
X47968D01*
X80412Y166062D02*
X82162Y167812D01*
X47968Y134189D02*
X79841Y166062D01*
X12205Y86717D02*
Y131846D01*
Y86717D02*
X30347Y68575D01*
X12205Y131846D02*
X14548Y134189D01*
X20504Y20399D02*
X37906Y37800D01*
X101442D01*
X118839Y55197D01*
X69621Y20399D02*
X79022Y29800D01*
X103442D01*
X128839Y55197D01*
X30347Y78575D02*
X41874Y90103D01*
X51024D01*
X140000D02*
X151200D01*
D67*
X305524Y97764D02*
X308700Y94587D01*
X305524Y97764D02*
Y141588D01*
X273381Y180600D02*
X290099D01*
X308700Y50000D02*
Y94587D01*
X169577Y83000D02*
X203868D01*
X166642D02*
X169577D01*
X130118Y172682D02*
X137600Y165200D01*
X110000Y192800D02*
X130118Y172682D01*
X115173Y201575D02*
X136443Y180305D01*
Y177257D02*
Y180305D01*
X243993Y136844D02*
X261118Y153969D01*
Y178694D01*
X253165Y186647D02*
X261118Y178694D01*
X89200Y432100D02*
Y450100D01*
Y432100D02*
X129738Y391562D01*
X141075D01*
X147638Y385000D01*
Y350394D02*
Y385000D01*
X180000Y118100D02*
X192600Y105500D01*
X224654D01*
X239700Y90454D01*
X254654D01*
X276033Y111833D01*
X233592Y220389D02*
X273381Y180600D01*
X240318Y143800D02*
X253165Y156647D01*
X178723Y143800D02*
X240318D01*
X172900Y137977D02*
X178723Y143800D01*
X173592Y220389D02*
X184881Y209100D01*
X239900D01*
X264118Y184882D01*
Y114843D02*
Y184882D01*
X243993Y94718D02*
X264118Y114843D01*
X187431Y287300D02*
X193592Y281139D01*
X158000Y287300D02*
X187431D01*
X21680Y108354D02*
X127154D01*
X179000Y160200D01*
X186400D01*
X137600Y163300D02*
Y165200D01*
X130118Y119496D02*
Y172682D01*
X110000Y192800D02*
Y205450D01*
X118600Y214050D01*
Y222500D01*
X121200Y225100D01*
X272800D01*
X81300Y269600D02*
X102053D01*
X113592Y281139D01*
X215012Y164800D02*
X223165Y156647D01*
X148900Y164800D02*
X215012D01*
X136443Y177257D02*
X148900Y164800D01*
X113592Y220389D02*
Y231139D01*
X163592Y281139D01*
X168331Y276400D01*
X246250D01*
X248300Y278450D01*
Y283075D01*
X234862Y296513D02*
X248300Y283075D01*
X234862Y296513D02*
X242049Y303700D01*
X291257D01*
X296397Y298560D01*
X118996Y20399D02*
X124195Y15200D01*
X161770D01*
X166969Y20399D01*
X138839Y55197D02*
X166642Y83000D01*
X165000Y87577D02*
X169577Y83000D01*
X203868D02*
X208445Y87577D01*
X25224Y124496D02*
X125118D01*
X21680Y128039D02*
X25224Y124496D01*
X105000Y144614D02*
X125118Y124496D01*
X105000Y144614D02*
Y156043D01*
X83109Y177812D02*
X93288D01*
X94800Y176300D01*
X110460D01*
X115000Y180840D01*
X243592Y220389D02*
X255581Y208400D01*
X299650D01*
X99600Y434710D02*
X134610Y399700D01*
X159542D01*
X167323Y407480D01*
X175800Y176647D02*
Y208181D01*
X163592Y220389D02*
X175800Y208181D01*
X106063Y102900D02*
X126600D01*
X175300Y151600D01*
X235500D01*
X245500Y161600D01*
X256250D01*
X258118Y163468D01*
Y171694D01*
X253165Y176647D02*
X258118Y171694D01*
X151300Y38400D02*
X168175Y55275D01*
X123900Y38400D02*
X151300D01*
X168175Y51025D02*
Y55275D01*
Y51025D02*
X169200Y50000D01*
X283300D01*
X300800Y67500D01*
Y171400D01*
X143020Y432103D02*
X158600Y447684D01*
Y465700D01*
X160000Y467100D01*
X185000D01*
X188000Y464100D01*
Y461000D02*
Y464100D01*
Y461000D02*
X190609Y458391D01*
X205753D01*
X207362Y460000D01*
Y480075D01*
X182126Y505311D02*
X207362Y480075D01*
X144626Y512811D02*
X152126Y505311D01*
X97437Y512811D02*
X144626D01*
X94626Y510000D02*
X97437Y512811D01*
X94626Y480674D02*
Y510000D01*
Y480674D02*
X138100Y437200D01*
Y429600D02*
Y437200D01*
Y429600D02*
X140000Y427700D01*
X168616D01*
X173020Y432103D01*
X102126Y505311D02*
X123537Y483900D01*
X181853D01*
X203020Y462733D01*
X117626Y509811D02*
X122126Y505311D01*
X99937Y509811D02*
X117626D01*
X97626Y507500D02*
X99937Y509811D01*
X97626Y502500D02*
Y507500D01*
Y502500D02*
X129826Y470300D01*
X190220D01*
X193020Y467500D01*
Y462733D02*
Y467500D01*
X173020Y462733D02*
X180362Y455391D01*
X212791D01*
X217400Y460000D01*
Y500037D01*
X212126Y505311D02*
X217400Y500037D01*
X154600Y171600D02*
X248212D01*
X253165Y166647D01*
X140600Y212668D02*
Y213381D01*
Y212668D02*
X151693Y201575D01*
X143592Y220389D02*
X148100Y215881D01*
Y215168D02*
Y215881D01*
Y215168D02*
X161693Y201575D01*
X263592Y281139D02*
X268307D01*
X296083Y253364D01*
X253592Y281139D02*
X291367Y243364D01*
X296083D01*
X224862Y296513D02*
X240235Y281139D01*
X243592D01*
X214862Y296513D02*
X230235Y281139D01*
X233592D01*
X21680Y181956D02*
X38964D01*
X53109Y167812D01*
X216212Y20399D02*
X240513Y44700D01*
X303400D01*
X308700Y50000D01*
X60974Y135175D02*
X86841Y161043D01*
X110000D01*
X143561Y421400D02*
X157480Y407480D01*
X133723Y421400D02*
X143561D01*
X123020Y432103D02*
X133723Y421400D01*
X157480Y407480D02*
X171520Y421520D01*
X219630D01*
X243110Y445000D01*
X59300Y252100D02*
X76800Y269600D01*
Y273200D01*
X80000Y276400D01*
X98853D01*
X103592Y281139D01*
X56000Y257419D02*
Y279400D01*
X65000Y288400D01*
X86331D01*
X93592Y281139D01*
X163020Y462733D02*
X173362Y452391D01*
X249499D01*
X256890Y445000D01*
D68*
X147638Y407480D02*
D03*
X167323D02*
D03*
X157480D02*
D03*
X147638Y350394D02*
D03*
X167323D02*
D03*
D69*
X179527Y377953D02*
D03*
X135433D02*
D03*
D70*
X208445Y87577D02*
D03*
X243110Y445000D02*
D03*
X165000Y87577D02*
D03*
D71*
X222224D02*
D03*
X256890Y445000D02*
D03*
X178780Y87577D02*
D03*
D72*
X65974Y130175D02*
D03*
X60974Y135175D02*
D03*
X115000Y180840D02*
D03*
X110000Y185840D02*
D03*
Y161043D02*
D03*
X115000Y156043D02*
D03*
X130118Y119496D02*
D03*
X125118Y124496D02*
D03*
D73*
X55974Y130175D02*
D03*
X105000Y180840D02*
D03*
Y156043D02*
D03*
X135118Y124496D02*
D03*
D74*
X53109Y167812D02*
D03*
Y177812D02*
D03*
X83109D02*
D03*
Y167812D02*
D03*
D75*
X21680Y181956D02*
D03*
Y128039D02*
D03*
D76*
X137667Y305176D02*
D03*
X234862Y296513D02*
D03*
X80221Y55197D02*
D03*
X115173Y201575D02*
D03*
X151693Y201575D02*
D03*
X194387Y201609D02*
D03*
X118839Y55197D02*
D03*
D77*
X142126Y505311D02*
D03*
X152126D02*
D03*
X132126D02*
D03*
X122126D02*
D03*
X112126D02*
D03*
X102126D02*
D03*
X162126D02*
D03*
X172126D02*
D03*
X182126D02*
D03*
X192126D02*
D03*
X202126D02*
D03*
X305524Y141588D02*
D03*
X290099Y180600D02*
D03*
X89200Y450100D02*
D03*
X180000Y118100D02*
D03*
X276033Y111833D02*
D03*
X158000Y287300D02*
D03*
X186400Y160200D02*
D03*
X137600Y163300D02*
D03*
X272800Y225100D02*
D03*
X81300Y269600D02*
D03*
X136443Y177257D02*
D03*
X299650Y208400D02*
D03*
X99600Y434710D02*
D03*
X175800Y176647D02*
D03*
X106063Y102900D02*
D03*
X123900Y38400D02*
D03*
X300800Y171400D02*
D03*
X172900Y137977D02*
D03*
X154600Y171600D02*
D03*
X59300Y252100D02*
D03*
X56000Y257419D02*
D03*
X291622Y79600D02*
D03*
D78*
X212126Y505311D02*
D03*
D79*
X123020Y462733D02*
D03*
X133020D02*
D03*
X143020D02*
D03*
X153020D02*
D03*
X163020D02*
D03*
X173020D02*
D03*
X183020D02*
D03*
X193020D02*
D03*
X203020D02*
D03*
X213020D02*
D03*
Y432103D02*
D03*
X203020D02*
D03*
X193020D02*
D03*
X183020D02*
D03*
X173020D02*
D03*
X163020D02*
D03*
X153020D02*
D03*
X143020D02*
D03*
X133020D02*
D03*
D80*
X123020D02*
D03*
D81*
X30347Y78575D02*
D03*
Y68575D02*
D03*
D82*
Y58575D02*
D03*
D83*
X243993Y136844D02*
D03*
D84*
Y94718D02*
D03*
D85*
X296083Y263364D02*
D03*
D86*
X140000Y90103D02*
D03*
X51024D02*
D03*
D87*
X253165Y156647D02*
D03*
D88*
Y166647D02*
D03*
Y176647D02*
D03*
Y186647D02*
D03*
X223165Y156647D02*
D03*
Y166647D02*
D03*
Y176647D02*
D03*
Y186647D02*
D03*
M02*
