G04*
G04 #@! TF.GenerationSoftware,Altium Limited,Altium Designer,24.4.1 (13)*
G04*
G04 Layer_Color=8388736*
%FSLAX25Y25*%
%MOIN*%
G70*
G04*
G04 #@! TF.SameCoordinates,58F61C8A-C965-4830-B12A-95CD484E7F12*
G04*
G04*
G04 #@! TF.FilePolarity,Negative*
G04*
G01*
G75*
%ADD18R,0.04147X0.06115*%
%ADD19R,0.06115X0.04147*%
%ADD20R,0.19501X0.05524*%
%ADD21R,0.05918X0.04343*%
%ADD22R,0.04737X0.14186*%
%ADD23R,0.42926X0.34658*%
%ADD24R,0.20879X0.08280*%
%ADD25R,0.13005X0.04737*%
%ADD26R,0.04343X0.05918*%
%ADD27R,0.05118X0.02756*%
%ADD28R,0.08661X0.03937*%
%ADD29C,0.07887*%
%ADD30C,0.19698*%
%ADD31C,0.05918*%
G04:AMPARAMS|DCode=32|XSize=59.18mil|YSize=59.18mil|CornerRadius=16.8mil|HoleSize=0mil|Usage=FLASHONLY|Rotation=0.000|XOffset=0mil|YOffset=0mil|HoleType=Round|Shape=RoundedRectangle|*
%AMROUNDEDRECTD32*
21,1,0.05918,0.02559,0,0,0.0*
21,1,0.02559,0.05918,0,0,0.0*
1,1,0.03359,0.01280,-0.01280*
1,1,0.03359,-0.01280,-0.01280*
1,1,0.03359,-0.01280,0.01280*
1,1,0.03359,0.01280,0.01280*
%
%ADD32ROUNDEDRECTD32*%
%ADD33C,0.04934*%
%ADD34R,0.04934X0.04934*%
%ADD35C,0.08300*%
%ADD36R,0.07099X0.07099*%
%ADD37C,0.07099*%
G04:AMPARAMS|DCode=38|XSize=70.99mil|YSize=70.99mil|CornerRadius=19.75mil|HoleSize=0mil|Usage=FLASHONLY|Rotation=180.000|XOffset=0mil|YOffset=0mil|HoleType=Round|Shape=RoundedRectangle|*
%AMROUNDEDRECTD38*
21,1,0.07099,0.03150,0,0,180.0*
21,1,0.03150,0.07099,0,0,180.0*
1,1,0.03950,-0.01575,0.01575*
1,1,0.03950,0.01575,0.01575*
1,1,0.03950,0.01575,-0.01575*
1,1,0.03950,-0.01575,-0.01575*
%
%ADD38ROUNDEDRECTD38*%
%ADD39R,0.07099X0.07099*%
%ADD40C,0.05800*%
%ADD41R,0.05800X0.05800*%
%ADD42C,0.05485*%
%ADD43R,0.05485X0.05485*%
%ADD44C,0.08359*%
%ADD45R,0.08359X0.08359*%
%ADD46C,0.05328*%
%ADD47R,0.05328X0.05328*%
%ADD48R,0.05315X0.05315*%
%ADD49C,0.05315*%
%ADD50C,0.06115*%
G04:AMPARAMS|DCode=51|XSize=70.99mil|YSize=70.99mil|CornerRadius=19.75mil|HoleSize=0mil|Usage=FLASHONLY|Rotation=270.000|XOffset=0mil|YOffset=0mil|HoleType=Round|Shape=RoundedRectangle|*
%AMROUNDEDRECTD51*
21,1,0.07099,0.03150,0,0,270.0*
21,1,0.03150,0.07099,0,0,270.0*
1,1,0.03950,-0.01575,-0.01575*
1,1,0.03950,-0.01575,0.01575*
1,1,0.03950,0.01575,0.01575*
1,1,0.03950,0.01575,-0.01575*
%
%ADD51ROUNDEDRECTD51*%
%ADD52C,0.09658*%
%ADD53C,0.06299*%
%ADD54R,0.06299X0.06299*%
%ADD55R,0.06706X0.06706*%
%ADD56C,0.06706*%
D18*
X199882Y167532D02*
D03*
X206378D02*
D03*
X189138Y166647D02*
D03*
X182642D02*
D03*
X299650Y197600D02*
D03*
X293154D02*
D03*
X255603Y202436D02*
D03*
X262099D02*
D03*
X159593Y118196D02*
D03*
X166089D02*
D03*
X149688Y147482D02*
D03*
X143192D02*
D03*
X99567Y134018D02*
D03*
X106063D02*
D03*
X99567Y118196D02*
D03*
X106063D02*
D03*
X143192Y162342D02*
D03*
X149688D02*
D03*
X125477D02*
D03*
X131973D02*
D03*
X199882Y120100D02*
D03*
X206378D02*
D03*
X166089Y133089D02*
D03*
X159593D02*
D03*
Y147482D02*
D03*
X166089D02*
D03*
X182642Y184245D02*
D03*
X189138D02*
D03*
X166089Y162342D02*
D03*
X159593D02*
D03*
X300098Y219291D02*
D03*
X293602D02*
D03*
X174132Y202436D02*
D03*
X180628D02*
D03*
D19*
X74235Y416745D02*
D03*
Y410249D02*
D03*
Y463993D02*
D03*
Y457497D02*
D03*
Y440713D02*
D03*
Y434217D02*
D03*
X70566Y309192D02*
D03*
Y302695D02*
D03*
X89742Y309191D02*
D03*
Y302695D02*
D03*
X57874Y198137D02*
D03*
Y204633D02*
D03*
X76097Y198137D02*
D03*
Y204633D02*
D03*
X94286Y204633D02*
D03*
Y198137D02*
D03*
D20*
X23681Y460000D02*
D03*
Y450000D02*
D03*
Y440000D02*
D03*
Y430000D02*
D03*
Y420000D02*
D03*
X46319Y460000D02*
D03*
Y450000D02*
D03*
Y440000D02*
D03*
Y430000D02*
D03*
Y420000D02*
D03*
X20671Y277419D02*
D03*
Y267419D02*
D03*
Y257419D02*
D03*
Y247419D02*
D03*
Y237419D02*
D03*
X43309Y277419D02*
D03*
Y267419D02*
D03*
Y257419D02*
D03*
Y247419D02*
D03*
Y237419D02*
D03*
D21*
X94235Y410741D02*
D03*
Y418222D02*
D03*
Y434710D02*
D03*
Y442190D02*
D03*
Y457989D02*
D03*
Y465470D02*
D03*
X281961Y430039D02*
D03*
Y437520D02*
D03*
X281277Y204293D02*
D03*
Y196812D02*
D03*
X155512Y177257D02*
D03*
Y184738D02*
D03*
X205000Y149498D02*
D03*
Y156978D02*
D03*
X204862Y134018D02*
D03*
Y141498D02*
D03*
X180836Y139623D02*
D03*
Y132143D02*
D03*
X205000Y176804D02*
D03*
Y184285D02*
D03*
X168898Y184127D02*
D03*
Y176647D02*
D03*
X128359Y184738D02*
D03*
Y177257D02*
D03*
D22*
X291622Y66560D02*
D03*
X281622D02*
D03*
X271622D02*
D03*
D23*
X281622Y24828D02*
D03*
D24*
X290185Y111833D02*
D03*
Y95297D02*
D03*
D25*
X182388Y295176D02*
D03*
X161128D02*
D03*
X182388Y305176D02*
D03*
Y315176D02*
D03*
X161128Y305176D02*
D03*
Y315176D02*
D03*
D26*
X232516Y318560D02*
D03*
X225035D02*
D03*
D27*
X180934Y147876D02*
D03*
Y155357D02*
D03*
X142315Y177257D02*
D03*
Y184738D02*
D03*
D28*
X300929Y181588D02*
D03*
Y161588D02*
D03*
Y151588D02*
D03*
Y141588D02*
D03*
X269433D02*
D03*
Y151588D02*
D03*
Y161588D02*
D03*
Y181588D02*
D03*
D29*
X147638Y407480D02*
D03*
X167323D02*
D03*
X157480D02*
D03*
X147638Y350394D02*
D03*
X167323D02*
D03*
D30*
X179527Y377953D02*
D03*
X135433D02*
D03*
D31*
X208445Y87577D02*
D03*
X243110Y445000D02*
D03*
X165000Y87577D02*
D03*
D32*
X222224D02*
D03*
X256890Y445000D02*
D03*
X178780Y87577D02*
D03*
D33*
X65974Y130175D02*
D03*
X60974Y135175D02*
D03*
X115000Y180840D02*
D03*
X110000Y185840D02*
D03*
Y161043D02*
D03*
X115000Y156043D02*
D03*
X130118Y119496D02*
D03*
X125118Y124496D02*
D03*
D34*
X55974Y130175D02*
D03*
X105000Y180840D02*
D03*
Y156043D02*
D03*
X135118Y124496D02*
D03*
D35*
X53109Y167812D02*
D03*
Y177812D02*
D03*
X83109D02*
D03*
Y167812D02*
D03*
D36*
X21680Y181956D02*
D03*
Y128039D02*
D03*
D37*
X117667Y305176D02*
D03*
X127667D02*
D03*
X40189Y20399D02*
D03*
X89306D02*
D03*
X235897D02*
D03*
X186654D02*
D03*
X138681D02*
D03*
X21680Y108354D02*
D03*
X224862Y296513D02*
D03*
X214862D02*
D03*
X204862D02*
D03*
X296083Y253364D02*
D03*
Y243364D02*
D03*
X70221Y55197D02*
D03*
X60221D02*
D03*
X21680Y162271D02*
D03*
X125173Y201575D02*
D03*
X135173D02*
D03*
X161693Y201575D02*
D03*
X214387Y201609D02*
D03*
X204387D02*
D03*
X224387D02*
D03*
X234387D02*
D03*
X138839Y55197D02*
D03*
X128839D02*
D03*
D38*
X137667Y305176D02*
D03*
X234862Y296513D02*
D03*
X80221Y55197D02*
D03*
X115173Y201575D02*
D03*
X151693Y201575D02*
D03*
X194387Y201609D02*
D03*
X118839Y55197D02*
D03*
D39*
X20504Y20399D02*
D03*
X69621D02*
D03*
X216212D02*
D03*
X166969D02*
D03*
X118996D02*
D03*
D40*
X142126Y505311D02*
D03*
X152126D02*
D03*
X132126D02*
D03*
X122126D02*
D03*
X112126D02*
D03*
X102126D02*
D03*
X162126D02*
D03*
X172126D02*
D03*
X182126D02*
D03*
X192126D02*
D03*
X202126D02*
D03*
X305524Y141588D02*
D03*
X290099Y180600D02*
D03*
X89200Y450100D02*
D03*
X180000Y118100D02*
D03*
X276033Y111833D02*
D03*
X158000Y287300D02*
D03*
X186400Y160200D02*
D03*
X137600Y163300D02*
D03*
X272800Y225100D02*
D03*
X81300Y269600D02*
D03*
X136443Y177257D02*
D03*
X299650Y208400D02*
D03*
X99600Y434710D02*
D03*
X175800Y176647D02*
D03*
X106063Y102900D02*
D03*
X123900Y38400D02*
D03*
X300800Y171400D02*
D03*
X172900Y137977D02*
D03*
X154600Y171600D02*
D03*
X59300Y252100D02*
D03*
X56000Y257419D02*
D03*
X291622Y79600D02*
D03*
D41*
X212126Y505311D02*
D03*
D42*
X123020Y462733D02*
D03*
X133020D02*
D03*
X143020D02*
D03*
X153020D02*
D03*
X163020D02*
D03*
X173020D02*
D03*
X183020D02*
D03*
X193020D02*
D03*
X203020D02*
D03*
X213020D02*
D03*
Y432103D02*
D03*
X203020D02*
D03*
X193020D02*
D03*
X183020D02*
D03*
X173020D02*
D03*
X163020D02*
D03*
X153020D02*
D03*
X143020D02*
D03*
X133020D02*
D03*
D43*
X123020D02*
D03*
D44*
X30347Y78575D02*
D03*
Y68575D02*
D03*
D45*
Y58575D02*
D03*
D46*
X243993Y136844D02*
D03*
D47*
Y94718D02*
D03*
D48*
X73592Y220389D02*
D03*
D49*
X83592D02*
D03*
X93592D02*
D03*
X103592D02*
D03*
X113592D02*
D03*
X123592D02*
D03*
X133592D02*
D03*
X143592D02*
D03*
X153592D02*
D03*
X163592D02*
D03*
X173592D02*
D03*
X183592D02*
D03*
X193592D02*
D03*
X203592D02*
D03*
X213592D02*
D03*
X223592D02*
D03*
X233592D02*
D03*
X243592D02*
D03*
X253592D02*
D03*
X263592D02*
D03*
Y281139D02*
D03*
X253592D02*
D03*
X243592D02*
D03*
X233592D02*
D03*
X223592D02*
D03*
X213592D02*
D03*
X203592D02*
D03*
X193592D02*
D03*
X183592D02*
D03*
X173592D02*
D03*
X163592D02*
D03*
X153592D02*
D03*
X143592D02*
D03*
X133592D02*
D03*
X123592D02*
D03*
X113592D02*
D03*
X103592D02*
D03*
X93592D02*
D03*
X83592D02*
D03*
X73592D02*
D03*
D50*
X260963Y298560D02*
D03*
X296397D02*
D03*
D51*
X296083Y263364D02*
D03*
D52*
X140000Y90103D02*
D03*
X51024D02*
D03*
D53*
X168175Y55275D02*
D03*
D54*
X212034D02*
D03*
D55*
X253165Y156647D02*
D03*
D56*
Y166647D02*
D03*
Y176647D02*
D03*
Y186647D02*
D03*
X223165Y156647D02*
D03*
Y166647D02*
D03*
Y176647D02*
D03*
Y186647D02*
D03*
M02*
