G04*
G04 #@! TF.GenerationSoftware,Altium Limited,Altium Designer,24.4.1 (13)*
G04*
G04 Layer_Color=65535*
%FSLAX25Y25*%
%MOIN*%
G70*
G04*
G04 #@! TF.SameCoordinates,58F61C8A-C965-4830-B12A-95CD484E7F12*
G04*
G04*
G04 #@! TF.FilePolarity,Positive*
G04*
G01*
G75*
%ADD10C,0.01000*%
%ADD11C,0.00787*%
%ADD12C,0.00984*%
%ADD13C,0.00394*%
%ADD14C,0.02362*%
%ADD15C,0.00500*%
%ADD16C,0.00600*%
%ADD17R,0.03866X0.07283*%
D10*
X147831Y412847D02*
G03*
X147831Y412847I-323J0D01*
G01*
X133071Y351575D02*
Y367717D01*
Y388189D02*
Y404331D01*
X181890Y351575D02*
Y367717D01*
Y388189D02*
Y404331D01*
X218626Y512311D02*
X222126D01*
Y499811D02*
Y512311D01*
X94626Y499811D02*
X222126D01*
X94626D02*
Y512311D01*
X218626D01*
X213626Y490811D02*
X211627D01*
X212626D01*
Y496809D01*
X213626Y495809D01*
X246069Y525926D02*
Y519929D01*
X249068D01*
X250068Y520928D01*
Y521928D01*
X249068Y522928D01*
X246069D01*
X249068D01*
X250068Y523927D01*
Y524927D01*
X249068Y525926D01*
X246069D01*
X253067Y519929D02*
X255066D01*
X256066Y520928D01*
Y522928D01*
X255066Y523927D01*
X253067D01*
X252067Y522928D01*
Y520928D01*
X253067Y519929D01*
X258065Y523927D02*
Y520928D01*
X259065Y519929D01*
X260065Y520928D01*
X261064Y519929D01*
X262064Y520928D01*
Y523927D01*
X267062Y519929D02*
X265063D01*
X264063Y520928D01*
Y522928D01*
X265063Y523927D01*
X267062D01*
X268062Y522928D01*
Y521928D01*
X264063D01*
X270061Y519929D02*
Y523927D01*
X273060D01*
X274060Y522928D01*
Y519929D01*
X282058Y525926D02*
Y519929D01*
X286056D01*
X288056D02*
X290055D01*
X289055D01*
Y523927D01*
X288056D01*
X294054D02*
X296053D01*
X297053Y522928D01*
Y519929D01*
X294054D01*
X293054Y520928D01*
X294054Y521928D01*
X297053D01*
X299052Y519929D02*
Y523927D01*
X302051D01*
X303051Y522928D01*
Y519929D01*
X307049Y517929D02*
X308049D01*
X309049Y518929D01*
Y523927D01*
X306050D01*
X305050Y522928D01*
Y520928D01*
X306050Y519929D01*
X309049D01*
X247250Y329076D02*
Y323078D01*
X250249D01*
X251249Y324078D01*
Y325077D01*
X250249Y326077D01*
X247250D01*
X250249D01*
X251249Y327077D01*
Y328077D01*
X250249Y329076D01*
X247250D01*
X254248Y323078D02*
X256247D01*
X257247Y324078D01*
Y326077D01*
X256247Y327077D01*
X254248D01*
X253248Y326077D01*
Y324078D01*
X254248Y323078D01*
X259246Y327077D02*
Y324078D01*
X260246Y323078D01*
X261246Y324078D01*
X262245Y323078D01*
X263245Y324078D01*
Y327077D01*
X268244Y323078D02*
X266244D01*
X265245Y324078D01*
Y326077D01*
X266244Y327077D01*
X268244D01*
X269243Y326077D01*
Y325077D01*
X265245D01*
X271243Y323078D02*
Y327077D01*
X274242D01*
X275241Y326077D01*
Y323078D01*
X283239Y329076D02*
Y323078D01*
X287237D01*
X289237D02*
X291236D01*
X290236D01*
Y327077D01*
X289237D01*
X295235D02*
X297234D01*
X298234Y326077D01*
Y323078D01*
X295235D01*
X294235Y324078D01*
X295235Y325077D01*
X298234D01*
X300233Y323078D02*
Y327077D01*
X303232D01*
X304232Y326077D01*
Y323078D01*
X308231Y321079D02*
X309230D01*
X310230Y322078D01*
Y327077D01*
X307231D01*
X306231Y326077D01*
Y324078D01*
X307231Y323078D01*
X310230D01*
X105626Y490811D02*
X103627D01*
X104626D01*
Y496809D01*
X105626Y495809D01*
X96629Y490811D02*
X100628D01*
X96629Y494810D01*
Y495809D01*
X97628Y496809D01*
X99628D01*
X100628Y495809D01*
X176127Y520310D02*
X179126D01*
X180126Y519310D01*
Y517311D01*
X179126Y516311D01*
X176127D01*
X173128D02*
X171129D01*
X170129Y517311D01*
Y519310D01*
X171129Y520310D01*
X173128D01*
X174128Y519310D01*
Y517311D01*
X173128Y516311D01*
X168130D02*
Y520310D01*
X165131D01*
X164131Y519310D01*
Y516311D01*
X162132D02*
Y520310D01*
X159133D01*
X158133Y519310D01*
Y516311D01*
X153135D02*
X155134D01*
X156134Y517311D01*
Y519310D01*
X155134Y520310D01*
X153135D01*
X152135Y519310D01*
Y518310D01*
X156134D01*
X146137Y520310D02*
X149136D01*
X150136Y519310D01*
Y517311D01*
X149136Y516311D01*
X146137D01*
X143138Y521309D02*
Y520310D01*
X144138D01*
X142138D01*
X143138D01*
Y517311D01*
X142138Y516311D01*
X138139D02*
X136140D01*
X135141Y517311D01*
Y519310D01*
X136140Y520310D01*
X138139D01*
X139139Y519310D01*
Y517311D01*
X138139Y516311D01*
X133141Y520310D02*
Y516311D01*
Y518310D01*
X132141Y519310D01*
X131142Y520310D01*
X130142D01*
X223002Y126655D02*
X227001D01*
Y125656D01*
X223002Y121657D01*
Y120657D01*
X227001D01*
X229000Y126655D02*
Y120657D01*
X231999D01*
X232999Y121657D01*
Y125656D01*
X231999Y126655D01*
X229000D01*
X234998Y120657D02*
X236998D01*
X235998D01*
Y126655D01*
X234998Y125656D01*
X66393Y116668D02*
X62394D01*
Y113669D01*
X64394D01*
X62394D01*
Y110670D01*
X68392D02*
X70392D01*
X69392D01*
Y116668D01*
X68392Y115668D01*
X14400Y490198D02*
Y484200D01*
Y486199D01*
X18399Y490198D01*
X15400Y487199D01*
X18399Y484200D01*
X20398D02*
X22397D01*
X21398D01*
Y490198D01*
X20398Y489198D01*
X25396D02*
X26396Y490198D01*
X28396D01*
X29395Y489198D01*
Y488199D01*
X28396Y487199D01*
X29395Y486199D01*
Y485200D01*
X28396Y484200D01*
X26396D01*
X25396Y485200D01*
Y486199D01*
X26396Y487199D01*
X25396Y488199D01*
Y489198D01*
X26396Y487199D02*
X28396D01*
X11400Y307698D02*
Y301700D01*
Y303699D01*
X15399Y307698D01*
X12400Y304699D01*
X15399Y301700D01*
X17398D02*
X19397D01*
X18398D01*
Y307698D01*
X17398Y306698D01*
X22396Y307698D02*
X26395D01*
Y306698D01*
X22396Y302700D01*
Y301700D01*
X98400Y174759D02*
X102399D01*
X100399D01*
Y168761D01*
X108397Y174759D02*
X104398D01*
Y171760D01*
X106397Y172760D01*
X107397D01*
X108397Y171760D01*
Y169761D01*
X107397Y168761D01*
X105398D01*
X104398Y169761D01*
X85002Y191560D02*
X89000D01*
X87001D01*
Y185562D01*
X93999D02*
Y191560D01*
X91000Y188561D01*
X94998D01*
X5002Y87999D02*
X9000D01*
X7001D01*
Y82001D01*
X11000Y86999D02*
X11999Y87999D01*
X13999D01*
X14998Y86999D01*
Y86000D01*
X13999Y85000D01*
X12999D01*
X13999D01*
X14998Y84000D01*
Y83001D01*
X13999Y82001D01*
X11999D01*
X11000Y83001D01*
X48950Y147295D02*
X52949D01*
X50950D01*
Y141297D01*
X58947D02*
X54948D01*
X58947Y145296D01*
Y146296D01*
X57947Y147295D01*
X55948D01*
X54948Y146296D01*
X121400Y139198D02*
X125399D01*
X123399D01*
Y133200D01*
X127398D02*
X129397D01*
X128398D01*
Y139198D01*
X127398Y138198D01*
X105662Y380346D02*
X104663Y381346D01*
X102663D01*
X101664Y380346D01*
Y379346D01*
X102663Y378346D01*
X104663D01*
X105662Y377347D01*
Y376347D01*
X104663Y375347D01*
X102663D01*
X101664Y376347D01*
X107662Y381346D02*
Y375347D01*
X109661Y377347D01*
X111661Y375347D01*
Y381346D01*
X113660Y375347D02*
X115659D01*
X114660D01*
Y381346D01*
X113660Y380346D01*
X262200Y189900D02*
Y195898D01*
X265199D01*
X266199Y194898D01*
Y192899D01*
X265199Y191899D01*
X262200D01*
X264199D02*
X266199Y189900D01*
X272197Y195898D02*
X268198D01*
Y189900D01*
X272197D01*
X268198Y192899D02*
X270197D01*
X274196Y189900D02*
X276196D01*
X275196D01*
Y195898D01*
X274196Y194898D01*
X292400Y225700D02*
Y231698D01*
X295399D01*
X296399Y230698D01*
Y228699D01*
X295399Y227699D01*
X292400D01*
X294399D02*
X296399Y225700D01*
X302397D02*
X298398D01*
X302397Y229699D01*
Y230698D01*
X301397Y231698D01*
X299398D01*
X298398Y230698D01*
X308395Y231698D02*
X304396D01*
Y228699D01*
X306396Y229699D01*
X307395D01*
X308395Y228699D01*
Y226700D01*
X307395Y225700D01*
X305396D01*
X304396Y226700D01*
X71800Y445900D02*
Y451898D01*
X74799D01*
X75799Y450898D01*
Y448899D01*
X74799Y447899D01*
X71800D01*
X73799D02*
X75799Y445900D01*
X81797D02*
X77798D01*
X81797Y449899D01*
Y450898D01*
X80797Y451898D01*
X78798D01*
X77798Y450898D01*
X86795Y445900D02*
Y451898D01*
X83796Y448899D01*
X87795D01*
X71800Y421900D02*
Y427898D01*
X74799D01*
X75799Y426898D01*
Y424899D01*
X74799Y423899D01*
X71800D01*
X73799D02*
X75799Y421900D01*
X81797D02*
X77798D01*
X81797Y425899D01*
Y426898D01*
X80797Y427898D01*
X78798D01*
X77798Y426898D01*
X83796D02*
X84796Y427898D01*
X86795D01*
X87795Y426898D01*
Y425899D01*
X86795Y424899D01*
X85795D01*
X86795D01*
X87795Y423899D01*
Y422900D01*
X86795Y421900D01*
X84796D01*
X83796Y422900D01*
X87300Y314400D02*
Y320398D01*
X90299D01*
X91299Y319398D01*
Y317399D01*
X90299Y316399D01*
X87300D01*
X89299D02*
X91299Y314400D01*
X97297D02*
X93298D01*
X97297Y318399D01*
Y319398D01*
X96297Y320398D01*
X94298D01*
X93298Y319398D01*
X103295Y314400D02*
X99296D01*
X103295Y318399D01*
Y319398D01*
X102295Y320398D01*
X100296D01*
X99296Y319398D01*
X68100Y314400D02*
Y320398D01*
X71099D01*
X72099Y319398D01*
Y317399D01*
X71099Y316399D01*
X68100D01*
X70099D02*
X72099Y314400D01*
X78097D02*
X74098D01*
X78097Y318399D01*
Y319398D01*
X77097Y320398D01*
X75098D01*
X74098Y319398D01*
X80096Y314400D02*
X82095D01*
X81096D01*
Y320398D01*
X80096Y319398D01*
X52076Y209138D02*
Y215136D01*
X55075D01*
X56075Y214137D01*
Y212137D01*
X55075Y211138D01*
X52076D01*
X54075D02*
X56075Y209138D01*
X62073D02*
X58074D01*
X62073Y213137D01*
Y214137D01*
X61073Y215136D01*
X59074D01*
X58074Y214137D01*
X64072D02*
X65072Y215136D01*
X67071D01*
X68071Y214137D01*
Y210138D01*
X67071Y209138D01*
X65072D01*
X64072Y210138D01*
Y214137D01*
X73700Y209800D02*
Y215798D01*
X76699D01*
X77699Y214798D01*
Y212799D01*
X76699Y211799D01*
X73700D01*
X75699D02*
X77699Y209800D01*
X79698D02*
X81697D01*
X80698D01*
Y215798D01*
X79698Y214798D01*
X84696Y210800D02*
X85696Y209800D01*
X87695D01*
X88695Y210800D01*
Y214798D01*
X87695Y215798D01*
X85696D01*
X84696Y214798D01*
Y213799D01*
X85696Y212799D01*
X88695D01*
X98276Y139840D02*
Y145838D01*
X101275D01*
X102275Y144839D01*
Y142839D01*
X101275Y141840D01*
X98276D01*
X100275D02*
X102275Y139840D01*
X104274D02*
X106273D01*
X105274D01*
Y145838D01*
X104274Y144839D01*
X109273D02*
X110272Y145838D01*
X112271D01*
X113271Y144839D01*
Y143839D01*
X112271Y142839D01*
X113271Y141840D01*
Y140840D01*
X112271Y139840D01*
X110272D01*
X109273Y140840D01*
Y141840D01*
X110272Y142839D01*
X109273Y143839D01*
Y144839D01*
X110272Y142839D02*
X112271D01*
X139559Y152517D02*
Y158515D01*
X142558D01*
X143558Y157515D01*
Y155516D01*
X142558Y154516D01*
X139559D01*
X141559D02*
X143558Y152517D01*
X145557D02*
X147557D01*
X146557D01*
Y158515D01*
X145557Y157515D01*
X150556Y158515D02*
X154554D01*
Y157515D01*
X150556Y153516D01*
Y152517D01*
X91800Y209800D02*
Y215798D01*
X94799D01*
X95799Y214798D01*
Y212799D01*
X94799Y211799D01*
X91800D01*
X93799D02*
X95799Y209800D01*
X97798D02*
X99797D01*
X98798D01*
Y215798D01*
X97798Y214798D01*
X106795Y215798D02*
X104796Y214798D01*
X102796Y212799D01*
Y210800D01*
X103796Y209800D01*
X105796D01*
X106795Y210800D01*
Y211799D01*
X105796Y212799D01*
X102796D01*
X158114Y152331D02*
Y158330D01*
X161113D01*
X162113Y157330D01*
Y155331D01*
X161113Y154331D01*
X158114D01*
X160114D02*
X162113Y152331D01*
X164112D02*
X166112D01*
X165112D01*
Y158330D01*
X164112Y157330D01*
X173109Y158330D02*
X169111D01*
Y155331D01*
X171110Y156330D01*
X172110D01*
X173109Y155331D01*
Y153331D01*
X172110Y152331D01*
X170110D01*
X169111Y153331D01*
X158310Y167255D02*
Y173253D01*
X161309D01*
X162309Y172254D01*
Y170254D01*
X161309Y169254D01*
X158310D01*
X160309D02*
X162309Y167255D01*
X164308D02*
X166307D01*
X165308D01*
Y173253D01*
X164308Y172254D01*
X172305Y167255D02*
Y173253D01*
X169306Y170254D01*
X173305D01*
X98364Y122524D02*
Y128523D01*
X101363D01*
X102363Y127523D01*
Y125523D01*
X101363Y124524D01*
X98364D01*
X100363D02*
X102363Y122524D01*
X104362D02*
X106361D01*
X105362D01*
Y128523D01*
X104362Y127523D01*
X109360D02*
X110360Y128523D01*
X112359D01*
X113359Y127523D01*
Y126523D01*
X112359Y125523D01*
X111360D01*
X112359D01*
X113359Y124524D01*
Y123524D01*
X112359Y122524D01*
X110360D01*
X109360Y123524D01*
X157591Y137415D02*
Y143413D01*
X160590D01*
X161590Y142413D01*
Y140414D01*
X160590Y139414D01*
X157591D01*
X159590D02*
X161590Y137415D01*
X163589D02*
X165588D01*
X164589D01*
Y143413D01*
X163589Y142413D01*
X172586Y137415D02*
X168588D01*
X172586Y141414D01*
Y142413D01*
X171587Y143413D01*
X169587D01*
X168588Y142413D01*
X158416Y123031D02*
Y129029D01*
X161415D01*
X162415Y128030D01*
Y126030D01*
X161415Y125031D01*
X158416D01*
X160416D02*
X162415Y123031D01*
X164415D02*
X166414D01*
X165414D01*
Y129029D01*
X164415Y128030D01*
X169413Y123031D02*
X171412D01*
X170413D01*
Y129029D01*
X169413Y128030D01*
X289783Y201788D02*
Y207786D01*
X292782D01*
X293782Y206786D01*
Y204787D01*
X292782Y203787D01*
X289783D01*
X291782D02*
X293782Y201788D01*
X295781D02*
X297781D01*
X296781D01*
Y207786D01*
X295781Y206786D01*
X300780D02*
X301779Y207786D01*
X303779D01*
X304778Y206786D01*
Y202788D01*
X303779Y201788D01*
X301779D01*
X300780Y202788D01*
Y206786D01*
X181028Y188507D02*
Y194505D01*
X184028D01*
X185027Y193505D01*
Y191506D01*
X184028Y190506D01*
X181028D01*
X183028D02*
X185027Y188507D01*
X187027Y189506D02*
X188026Y188507D01*
X190025D01*
X191025Y189506D01*
Y193505D01*
X190025Y194505D01*
X188026D01*
X187027Y193505D01*
Y192505D01*
X188026Y191506D01*
X191025D01*
X198285Y124601D02*
Y130599D01*
X201284D01*
X202284Y129599D01*
Y127600D01*
X201284Y126600D01*
X198285D01*
X200285D02*
X202284Y124601D01*
X204283Y129599D02*
X205283Y130599D01*
X207282D01*
X208282Y129599D01*
Y128600D01*
X207282Y127600D01*
X208282Y126600D01*
Y125601D01*
X207282Y124601D01*
X205283D01*
X204283Y125601D01*
Y126600D01*
X205283Y127600D01*
X204283Y128600D01*
Y129599D01*
X205283Y127600D02*
X207282D01*
X258853Y209437D02*
Y215435D01*
X261852D01*
X262852Y214435D01*
Y212436D01*
X261852Y211436D01*
X258853D01*
X260852D02*
X262852Y209437D01*
X264851Y215435D02*
X268850D01*
Y214435D01*
X264851Y210436D01*
Y209437D01*
X141731Y167200D02*
Y173198D01*
X144730D01*
X145729Y172199D01*
Y170199D01*
X144730Y169200D01*
X141731D01*
X143730D02*
X145729Y167200D01*
X151727Y173198D02*
X149728Y172199D01*
X147729Y170199D01*
Y168200D01*
X148729Y167200D01*
X150728D01*
X151727Y168200D01*
Y169200D01*
X150728Y170199D01*
X147729D01*
X173000Y208861D02*
Y214859D01*
X175999D01*
X176999Y213860D01*
Y211860D01*
X175999Y210861D01*
X173000D01*
X174999D02*
X176999Y208861D01*
X182997Y214859D02*
X178998D01*
Y211860D01*
X180997Y212860D01*
X181997D01*
X182997Y211860D01*
Y209861D01*
X181997Y208861D01*
X179998D01*
X178998Y209861D01*
X180631Y172099D02*
Y178097D01*
X183630D01*
X184630Y177098D01*
Y175098D01*
X183630Y174099D01*
X180631D01*
X182631D02*
X184630Y172099D01*
X189629D02*
Y178097D01*
X186629Y175098D01*
X190628D01*
X71800Y469200D02*
Y475198D01*
X74799D01*
X75799Y474198D01*
Y472199D01*
X74799Y471199D01*
X71800D01*
X73799D02*
X75799Y469200D01*
X77798Y474198D02*
X78798Y475198D01*
X80797D01*
X81797Y474198D01*
Y473199D01*
X80797Y472199D01*
X79797D01*
X80797D01*
X81797Y471199D01*
Y470200D01*
X80797Y469200D01*
X78798D01*
X77798Y470200D01*
X124140Y167345D02*
Y173343D01*
X127139D01*
X128138Y172343D01*
Y170344D01*
X127139Y169344D01*
X124140D01*
X126139D02*
X128138Y167345D01*
X134136D02*
X130138D01*
X134136Y171344D01*
Y172343D01*
X133137Y173343D01*
X131137D01*
X130138Y172343D01*
X212143Y164324D02*
Y170322D01*
X215142D01*
X216142Y169322D01*
Y167323D01*
X215142Y166323D01*
X212143D01*
X214142D02*
X216142Y164324D01*
X218141D02*
X220140D01*
X219141D01*
Y170322D01*
X218141Y169322D01*
X211124Y523310D02*
Y517312D01*
X207125D01*
X205126Y523310D02*
Y517312D01*
X202127D01*
X201127Y518312D01*
Y522310D01*
X202127Y523310D01*
X205126D01*
X199127Y517312D02*
X197128D01*
X198128D01*
Y523310D01*
X199127Y522310D01*
X42600Y198298D02*
Y192300D01*
X46599D01*
X52597D02*
X48598D01*
X52597Y196299D01*
Y197298D01*
X51597Y198298D01*
X49598D01*
X48598Y197298D01*
X262029Y112448D02*
Y106450D01*
X266028D01*
X268027D02*
X270026D01*
X269027D01*
Y112448D01*
X268027Y111448D01*
X154926Y47612D02*
Y41614D01*
Y43614D01*
X158925Y47612D01*
X155926Y44613D01*
X158925Y41614D01*
X160924D02*
X162923D01*
X161924D01*
Y47612D01*
X160924Y46613D01*
X169921Y47612D02*
X167922Y46613D01*
X165922Y44613D01*
Y42614D01*
X166922Y41614D01*
X168921D01*
X169921Y42614D01*
Y43614D01*
X168921Y44613D01*
X165922D01*
X113400Y70359D02*
Y64361D01*
Y66361D01*
X117399Y70359D01*
X114400Y67360D01*
X117399Y64361D01*
X119398D02*
X121397D01*
X120398D01*
Y70359D01*
X119398Y69360D01*
X128395Y70359D02*
X124396D01*
Y67360D01*
X126396Y68360D01*
X127395D01*
X128395Y67360D01*
Y65361D01*
X127395Y64361D01*
X125396D01*
X124396Y65361D01*
X107193Y47967D02*
Y41969D01*
Y43968D01*
X111191Y47967D01*
X108192Y44968D01*
X111191Y41969D01*
X113191D02*
X115190D01*
X114190D01*
Y47967D01*
X113191Y46967D01*
X121188Y41969D02*
Y47967D01*
X118189Y44968D01*
X122188D01*
X54700Y70359D02*
Y64361D01*
Y66361D01*
X58699Y70359D01*
X55700Y67360D01*
X58699Y64361D01*
X60698D02*
X62697D01*
X61698D01*
Y70359D01*
X60698Y69360D01*
X65696D02*
X66696Y70359D01*
X68695D01*
X69695Y69360D01*
Y68360D01*
X68695Y67360D01*
X67696D01*
X68695D01*
X69695Y66361D01*
Y65361D01*
X68695Y64361D01*
X66696D01*
X65696Y65361D01*
X203613Y47461D02*
Y41463D01*
Y43463D01*
X207611Y47461D01*
X204612Y44462D01*
X207611Y41463D01*
X209611D02*
X211610D01*
X210611D01*
Y47461D01*
X209611Y46462D01*
X218608Y41463D02*
X214609D01*
X218608Y45462D01*
Y46462D01*
X217608Y47461D01*
X215609D01*
X214609Y46462D01*
X155100Y331098D02*
Y325100D01*
Y327099D01*
X159099Y331098D01*
X156100Y328099D01*
X159099Y325100D01*
X161098D02*
X163097D01*
X162098D01*
Y331098D01*
X161098Y330098D01*
X166096Y325100D02*
X168096D01*
X167096D01*
Y331098D01*
X166096Y330098D01*
X112200Y320398D02*
Y314400D01*
Y316399D01*
X116199Y320398D01*
X113200Y317399D01*
X116199Y314400D01*
X118198D02*
X120197D01*
X119198D01*
Y320398D01*
X118198Y319398D01*
X123196D02*
X124196Y320398D01*
X126196D01*
X127195Y319398D01*
Y315400D01*
X126196Y314400D01*
X124196D01*
X123196Y315400D01*
Y319398D01*
X241230Y214508D02*
Y208510D01*
Y210509D01*
X245229Y214508D01*
X242230Y211509D01*
X245229Y208510D01*
X247228Y209510D02*
X248228Y208510D01*
X250227D01*
X251226Y209510D01*
Y213508D01*
X250227Y214508D01*
X248228D01*
X247228Y213508D01*
Y212509D01*
X248228Y211509D01*
X251226D01*
X6000Y203698D02*
Y197700D01*
Y199699D01*
X9999Y203698D01*
X7000Y200699D01*
X9999Y197700D01*
X11998Y202698D02*
X12998Y203698D01*
X14997D01*
X15997Y202698D01*
Y201699D01*
X14997Y200699D01*
X15997Y199699D01*
Y198700D01*
X14997Y197700D01*
X12998D01*
X11998Y198700D01*
Y199699D01*
X12998Y200699D01*
X11998Y201699D01*
Y202698D01*
X12998Y200699D02*
X14997D01*
X110073Y214976D02*
Y208978D01*
Y210977D01*
X114072Y214976D01*
X111073Y211977D01*
X114072Y208978D01*
X116071Y214976D02*
X120070D01*
Y213976D01*
X116071Y209977D01*
Y208978D01*
X199400Y311698D02*
Y305700D01*
Y307699D01*
X203399Y311698D01*
X200400Y308699D01*
X203399Y305700D01*
X209397Y311698D02*
X207397Y310698D01*
X205398Y308699D01*
Y306700D01*
X206398Y305700D01*
X208397D01*
X209397Y306700D01*
Y307699D01*
X208397Y308699D01*
X205398D01*
X145485Y214398D02*
Y208400D01*
Y210399D01*
X149483Y214398D01*
X146484Y211399D01*
X149483Y208400D01*
X155481Y214398D02*
X151483D01*
Y211399D01*
X153482Y212398D01*
X154482D01*
X155481Y211399D01*
Y209399D01*
X154482Y208400D01*
X152482D01*
X151483Y209399D01*
X290900Y278798D02*
Y272800D01*
Y274799D01*
X294899Y278798D01*
X291900Y275799D01*
X294899Y272800D01*
X299897D02*
Y278798D01*
X296898Y275799D01*
X300897D01*
X6949Y148553D02*
Y142555D01*
Y144554D01*
X10948Y148553D01*
X7948Y145554D01*
X10948Y142555D01*
X12947Y147553D02*
X13947Y148553D01*
X15946D01*
X16946Y147553D01*
Y146553D01*
X15946Y145554D01*
X14946D01*
X15946D01*
X16946Y144554D01*
Y143554D01*
X15946Y142555D01*
X13947D01*
X12947Y143554D01*
X57929Y47257D02*
Y41259D01*
Y43259D01*
X61928Y47257D01*
X58929Y44258D01*
X61928Y41259D01*
X67926D02*
X63928D01*
X67926Y45258D01*
Y46258D01*
X66927Y47257D01*
X64927D01*
X63928Y46258D01*
X7938Y46954D02*
Y40956D01*
Y42955D01*
X11936Y46954D01*
X8937Y43955D01*
X11936Y40956D01*
X13936D02*
X15935D01*
X14935D01*
Y46954D01*
X13936Y45954D01*
X257339Y85489D02*
X259338D01*
X258338D01*
Y79491D01*
X257339D01*
X259338D01*
X266336Y84490D02*
X265336Y85489D01*
X263337D01*
X262337Y84490D01*
Y80491D01*
X263337Y79491D01*
X265336D01*
X266336Y80491D01*
X271334Y79491D02*
Y85489D01*
X268335Y82490D01*
X272334D01*
X61094Y294138D02*
X63094D01*
X62094D01*
Y288140D01*
X61094D01*
X63094D01*
X70092Y293139D02*
X69092Y294138D01*
X67093D01*
X66093Y293139D01*
Y289140D01*
X67093Y288140D01*
X69092D01*
X70092Y289140D01*
X72091Y293139D02*
X73091Y294138D01*
X75090D01*
X76090Y293139D01*
Y292139D01*
X75090Y291139D01*
X74090D01*
X75090D01*
X76090Y290140D01*
Y289140D01*
X75090Y288140D01*
X73091D01*
X72091Y289140D01*
X222296Y149260D02*
X224295D01*
X223296D01*
Y143262D01*
X222296D01*
X224295D01*
X231293Y148261D02*
X230293Y149260D01*
X228294D01*
X227294Y148261D01*
Y144262D01*
X228294Y143262D01*
X230293D01*
X231293Y144262D01*
X237291Y143262D02*
X233292D01*
X237291Y147261D01*
Y148261D01*
X236291Y149260D01*
X234292D01*
X233292Y148261D01*
X116800Y475198D02*
X118799D01*
X117800D01*
Y469200D01*
X116800D01*
X118799D01*
X125797Y474198D02*
X124797Y475198D01*
X122798D01*
X121798Y474198D01*
Y470200D01*
X122798Y469200D01*
X124797D01*
X125797Y470200D01*
X127796Y469200D02*
X129796D01*
X128796D01*
Y475198D01*
X127796Y474198D01*
X258800Y311698D02*
Y305700D01*
X261799D01*
X262799Y306700D01*
Y310698D01*
X261799Y311698D01*
X258800D01*
X264798Y310698D02*
X265798Y311698D01*
X267797D01*
X268797Y310698D01*
Y309699D01*
X267797Y308699D01*
X266797D01*
X267797D01*
X268797Y307699D01*
Y306700D01*
X267797Y305700D01*
X265798D01*
X264798Y306700D01*
X180647Y88826D02*
Y82828D01*
X183646D01*
X184646Y83827D01*
Y87826D01*
X183646Y88826D01*
X180647D01*
X186645Y82828D02*
X188644D01*
X187645D01*
Y88826D01*
X186645Y87826D01*
X202723Y111676D02*
X201723Y112675D01*
X199724D01*
X198724Y111676D01*
Y107677D01*
X199724Y106677D01*
X201723D01*
X202723Y107677D01*
X204722Y106677D02*
X206721D01*
X205722D01*
Y112675D01*
X204722Y111676D01*
X209720D02*
X210720Y112675D01*
X212719D01*
X213719Y111676D01*
Y110676D01*
X212719Y109676D01*
X213719Y108676D01*
Y107677D01*
X212719Y106677D01*
X210720D01*
X209720Y107677D01*
Y108676D01*
X210720Y109676D01*
X209720Y110676D01*
Y111676D01*
X210720Y109676D02*
X212719D01*
X159471Y112121D02*
X158471Y113121D01*
X156472D01*
X155472Y112121D01*
Y108122D01*
X156472Y107123D01*
X158471D01*
X159471Y108122D01*
X161470Y107123D02*
X163469D01*
X162470D01*
Y113121D01*
X161470Y112121D01*
X166468Y113121D02*
X170467D01*
Y112121D01*
X166468Y108122D01*
Y107123D01*
X95699Y428898D02*
X94699Y429898D01*
X92700D01*
X91700Y428898D01*
Y424900D01*
X92700Y423900D01*
X94699D01*
X95699Y424900D01*
X97698Y423900D02*
X99697D01*
X98698D01*
Y429898D01*
X97698Y428898D01*
X106695Y429898D02*
X104696Y428898D01*
X102696Y426899D01*
Y424900D01*
X103696Y423900D01*
X105695D01*
X106695Y424900D01*
Y425899D01*
X105695Y426899D01*
X102696D01*
X283399Y448198D02*
X282399Y449198D01*
X280400D01*
X279400Y448198D01*
Y444200D01*
X280400Y443200D01*
X282399D01*
X283399Y444200D01*
X285398Y443200D02*
X287397D01*
X286398D01*
Y449198D01*
X285398Y448198D01*
X294395Y449198D02*
X290396D01*
Y446199D01*
X292396Y447199D01*
X293395D01*
X294395Y446199D01*
Y444200D01*
X293395Y443200D01*
X291396D01*
X290396Y444200D01*
X227399Y330098D02*
X226399Y331098D01*
X224400D01*
X223400Y330098D01*
Y326100D01*
X224400Y325100D01*
X226399D01*
X227399Y326100D01*
X229398Y325100D02*
X231397D01*
X230398D01*
Y331098D01*
X229398Y330098D01*
X237396Y325100D02*
Y331098D01*
X234396Y328099D01*
X238395D01*
X276371Y214554D02*
X275371Y215553D01*
X273372D01*
X272372Y214554D01*
Y210555D01*
X273372Y209555D01*
X275371D01*
X276371Y210555D01*
X278370Y209555D02*
X280370D01*
X279370D01*
Y215553D01*
X278370Y214554D01*
X283369D02*
X284368Y215553D01*
X286368D01*
X287367Y214554D01*
Y213554D01*
X286368Y212554D01*
X285368D01*
X286368D01*
X287367Y211555D01*
Y210555D01*
X286368Y209555D01*
X284368D01*
X283369Y210555D01*
X166989Y192831D02*
X165989Y193830D01*
X163990D01*
X162990Y192831D01*
Y188832D01*
X163990Y187832D01*
X165989D01*
X166989Y188832D01*
X168988Y187832D02*
X170987D01*
X169988D01*
Y193830D01*
X168988Y192831D01*
X177985Y187832D02*
X173986D01*
X177985Y191831D01*
Y192831D01*
X176986Y193830D01*
X174986D01*
X173986Y192831D01*
X190414Y139401D02*
X189415Y140401D01*
X187415D01*
X186416Y139401D01*
Y135402D01*
X187415Y134403D01*
X189415D01*
X190414Y135402D01*
X192414Y134403D02*
X194413D01*
X193413D01*
Y140401D01*
X192414Y139401D01*
X197412Y134403D02*
X199411D01*
X198412D01*
Y140401D01*
X197412Y139401D01*
X189415Y156330D02*
X188415Y157330D01*
X186416D01*
X185416Y156330D01*
Y152331D01*
X186416Y151332D01*
X188415D01*
X189415Y152331D01*
X191414Y151332D02*
X193413D01*
X192414D01*
Y157330D01*
X191414Y156330D01*
X196412D02*
X197412Y157330D01*
X199411D01*
X200411Y156330D01*
Y152331D01*
X199411Y151332D01*
X197412D01*
X196412Y152331D01*
Y156330D01*
X213795Y154539D02*
X212795Y155539D01*
X210796D01*
X209796Y154539D01*
Y150541D01*
X210796Y149541D01*
X212795D01*
X213795Y150541D01*
X215794D02*
X216794Y149541D01*
X218793D01*
X219793Y150541D01*
Y154539D01*
X218793Y155539D01*
X216794D01*
X215794Y154539D01*
Y153540D01*
X216794Y152540D01*
X219793D01*
X126402Y192684D02*
X125403Y193684D01*
X123403D01*
X122404Y192684D01*
Y188686D01*
X123403Y187686D01*
X125403D01*
X126402Y188686D01*
X128402Y192684D02*
X129401Y193684D01*
X131401D01*
X132400Y192684D01*
Y191685D01*
X131401Y190685D01*
X132400Y189685D01*
Y188686D01*
X131401Y187686D01*
X129401D01*
X128402Y188686D01*
Y189685D01*
X129401Y190685D01*
X128402Y191685D01*
Y192684D01*
X129401Y190685D02*
X131401D01*
X204210Y192181D02*
X203210Y193181D01*
X201211D01*
X200211Y192181D01*
Y188182D01*
X201211Y187183D01*
X203210D01*
X204210Y188182D01*
X206209Y193181D02*
X210208D01*
Y192181D01*
X206209Y188182D01*
Y187183D01*
X154153Y193163D02*
X153154Y194162D01*
X151154D01*
X150155Y193163D01*
Y189164D01*
X151154Y188164D01*
X153154D01*
X154153Y189164D01*
X160151Y194162D02*
X158152Y193163D01*
X156153Y191163D01*
Y189164D01*
X157152Y188164D01*
X159152D01*
X160151Y189164D01*
Y190164D01*
X159152Y191163D01*
X156153D01*
X95699Y476098D02*
X94699Y477098D01*
X92700D01*
X91700Y476098D01*
Y472100D01*
X92700Y471100D01*
X94699D01*
X95699Y472100D01*
X101697Y477098D02*
X97698D01*
Y474099D01*
X99697Y475099D01*
X100697D01*
X101697Y474099D01*
Y472100D01*
X100697Y471100D01*
X98698D01*
X97698Y472100D01*
X95699Y452798D02*
X94699Y453798D01*
X92700D01*
X91700Y452798D01*
Y448800D01*
X92700Y447800D01*
X94699D01*
X95699Y448800D01*
X100697Y447800D02*
Y453798D01*
X97698Y450799D01*
X101697D01*
X214350Y139012D02*
X213350Y140012D01*
X211351D01*
X210351Y139012D01*
Y135013D01*
X211351Y134014D01*
X213350D01*
X214350Y135013D01*
X216349Y139012D02*
X217349Y140012D01*
X219348D01*
X220348Y139012D01*
Y138012D01*
X219348Y137013D01*
X218348D01*
X219348D01*
X220348Y136013D01*
Y135013D01*
X219348Y134014D01*
X217349D01*
X216349Y135013D01*
X141077Y192471D02*
X140077Y193470D01*
X138077D01*
X137078Y192471D01*
Y188472D01*
X138077Y187472D01*
X140077D01*
X141077Y188472D01*
X147075Y187472D02*
X143076D01*
X147075Y191471D01*
Y192471D01*
X146075Y193470D01*
X144076D01*
X143076Y192471D01*
X240000Y466999D02*
X239000Y467999D01*
X237001D01*
X236001Y466999D01*
Y463001D01*
X237001Y462001D01*
X239000D01*
X240000Y463001D01*
X241999Y462001D02*
X243999D01*
X242999D01*
Y467999D01*
X241999Y466999D01*
D11*
X232067Y87577D02*
G03*
X232067Y87577I-16732J0D01*
G01*
X68587Y124919D02*
G03*
X53361Y124917I-7614J5257D01*
G01*
X123413Y425824D02*
G03*
X123413Y425824I-394J0D01*
G01*
X266732Y445000D02*
G03*
X266732Y445000I-16732J0D01*
G01*
X188622Y87577D02*
G03*
X188622Y87577I-16732J0D01*
G01*
X290382Y119116D02*
G03*
X290382Y119116I-197J0D01*
G01*
X117614Y175583D02*
G03*
X102387Y175582I-7614J5257D01*
G01*
X117614Y150786D02*
G03*
X102387Y150785I-7614J5257D01*
G01*
X83109Y156788D02*
G03*
X83109Y156001I0J-394D01*
G01*
D02*
G03*
X83109Y156788I0J394D01*
G01*
X240665Y152355D02*
G03*
X235665Y152355I-2500J0D01*
G01*
X122504Y129752D02*
G03*
X137731Y129753I7614J-5257D01*
G01*
X53361Y124919D02*
X68587D01*
X112076Y310471D02*
X143257D01*
Y299880D02*
Y310471D01*
X112076Y299880D02*
X143257D01*
X112076D02*
Y310471D01*
X8300Y4257D02*
X50032D01*
Y36540D01*
X8300D02*
X50032D01*
X8300Y4257D02*
Y36540D01*
X57416Y4257D02*
X99149D01*
Y36540D01*
X57416D02*
X99149D01*
X57416Y4257D02*
Y36540D01*
X204007Y4257D02*
X245740D01*
Y36540D01*
X204007D02*
X245740D01*
X204007Y4257D02*
Y36540D01*
X154764Y4257D02*
Y36540D01*
X196496D01*
Y4257D02*
Y36540D01*
X154764Y4257D02*
X196496D01*
X106791D02*
X148524D01*
Y36540D01*
X106791D02*
X148524D01*
X106791Y4257D02*
Y36540D01*
X202736Y169796D02*
X203523D01*
X202736Y165269D02*
X203523D01*
X76499Y413104D02*
Y413891D01*
X71972Y413104D02*
Y413891D01*
X52618Y463622D02*
Y480394D01*
X17382Y463622D02*
Y480394D01*
X52618D01*
Y399606D02*
Y416378D01*
X17382Y399606D02*
Y416378D01*
Y399606D02*
X52618D01*
X76499Y460351D02*
Y461139D01*
X71972Y460351D02*
Y461139D01*
X76499Y437072D02*
Y437859D01*
X71972Y437072D02*
Y437859D01*
X17768Y47827D02*
X30347D01*
X17768D02*
Y89323D01*
X36233D01*
X5539Y98512D02*
Y140244D01*
Y98512D02*
X37822D01*
Y140244D01*
X5539D02*
X37822D01*
X185496Y164383D02*
X186283D01*
X185496Y168910D02*
X186283D01*
X243993Y123269D02*
Y133202D01*
Y98360D02*
Y108293D01*
X240607Y111678D02*
X243993Y108293D01*
X240607D02*
X247379D01*
Y123269D01*
X240607D02*
X247379D01*
X240607Y108293D02*
Y123269D01*
X302607Y43154D02*
Y48942D01*
X260638D02*
X302607D01*
X260638Y43154D02*
Y48942D01*
X66717Y228076D02*
X270467D01*
Y273452D01*
X66717D02*
X270467D01*
X66717Y257246D02*
Y273452D01*
Y257246D02*
X68686D01*
Y244282D02*
Y257246D01*
X66717Y244282D02*
X68686D01*
X66717Y228076D02*
Y244282D01*
X270314Y302202D02*
X287046D01*
X270314Y294918D02*
Y302202D01*
X287046Y294918D02*
Y302202D01*
X270314Y294918D02*
X287046D01*
X199271Y301808D02*
X240452D01*
Y291217D02*
Y301808D01*
X199271Y291217D02*
X240452D01*
X199271D02*
Y301808D01*
X290788Y237773D02*
X301378D01*
Y268954D01*
X290788D02*
X301378D01*
X290788Y237773D02*
Y268954D01*
X72830Y305550D02*
Y306337D01*
X68302Y305550D02*
Y306337D01*
X92006Y305550D02*
Y306337D01*
X87478Y305550D02*
Y306337D01*
X161660Y318306D02*
Y320471D01*
X181857Y318306D02*
Y320471D01*
X161660D02*
X181857D01*
Y289881D02*
Y292046D01*
X161660Y289881D02*
Y292046D01*
Y289881D02*
X181857D01*
X296008Y195336D02*
X296795D01*
X296008Y199864D02*
X296795D01*
X258458Y204699D02*
X259245D01*
X258458Y200172D02*
X259245D01*
X52205Y72386D02*
X138819D01*
X52205Y107819D02*
X138819D01*
X48268Y98803D02*
X52205D01*
X48268Y81402D02*
X52205D01*
Y98803D02*
Y107819D01*
Y72386D02*
Y81402D01*
X138819Y72386D02*
Y81402D01*
Y98803D02*
Y107819D01*
X138819Y81402D02*
X142756D01*
X138819Y98803D02*
X142756D01*
X48268Y81402D02*
Y85142D01*
Y95063D02*
Y98803D01*
X142756Y95063D02*
Y98803D01*
Y81402D02*
Y85142D01*
X162447Y120460D02*
X163235D01*
X162447Y115933D02*
X163235D01*
X146046Y145219D02*
X146833D01*
X146046Y149746D02*
X146833D01*
X102421Y136281D02*
X103209D01*
X102421Y131754D02*
X103209D01*
X102421Y120460D02*
X103208D01*
X102421Y115933D02*
X103208D01*
X146046Y164606D02*
X146833D01*
X146046Y160078D02*
X146833D01*
X128331Y164606D02*
X129119D01*
X128331Y160078D02*
X129119D01*
X202736Y122364D02*
X203524D01*
X202736Y117837D02*
X203524D01*
X162447Y130825D02*
X163235D01*
X162447Y135353D02*
X163235D01*
X162447Y149746D02*
X163235D01*
X162447Y145219D02*
X163235D01*
X178080Y150731D02*
Y152502D01*
X183789Y150731D02*
Y152502D01*
X185496Y186509D02*
X186284D01*
X185496Y181981D02*
X186284D01*
X162447Y160078D02*
X163235D01*
X162447Y164606D02*
X163235D01*
X102387Y175584D02*
X117613D01*
X139461Y180112D02*
Y181883D01*
X145170Y180112D02*
Y181883D01*
X195223Y50236D02*
Y60315D01*
X172900Y55275D02*
X179868D01*
X200341D02*
X207309D01*
X200341Y49960D02*
Y60590D01*
X179868D02*
X200341D01*
X179868Y49960D02*
Y60590D01*
Y49960D02*
X200341D01*
X55611Y200991D02*
Y201779D01*
X60138Y200991D02*
Y201779D01*
X102387Y150787D02*
X117613D01*
X54631Y49901D02*
Y60492D01*
Y49901D02*
X85812D01*
Y60492D01*
X54631D02*
X85812D01*
X5539Y194161D02*
X37822D01*
Y152429D02*
Y194161D01*
X5539Y152429D02*
X37822D01*
X5539D02*
Y194161D01*
X73833Y200991D02*
Y201778D01*
X78361Y200991D02*
Y201778D01*
X96549Y200991D02*
Y201778D01*
X92022Y200991D02*
Y201778D01*
X140763Y196280D02*
Y206870D01*
X109582D02*
X140763D01*
X109582Y196280D02*
Y206870D01*
Y196280D02*
X140763D01*
X146103Y196279D02*
X167284D01*
X146103D02*
Y206870D01*
X167284D01*
Y196279D02*
Y206870D01*
X239978Y196314D02*
Y206905D01*
X188796D02*
X239978D01*
X188796Y196314D02*
Y206905D01*
Y196314D02*
X239978D01*
X248598Y152355D02*
Y190938D01*
X227732Y152355D02*
Y190938D01*
X240665Y152355D02*
X248598D01*
X227732D02*
X235665D01*
X227732Y190938D02*
X248598D01*
X49608Y281041D02*
Y297813D01*
X14372Y281041D02*
Y297813D01*
X49608D01*
Y217025D02*
Y233797D01*
X14372Y217025D02*
Y233797D01*
Y217025D02*
X49608D01*
X270417Y186116D02*
X299945D01*
X270417Y127060D02*
Y138143D01*
Y145033D02*
Y148143D01*
Y155033D02*
Y158143D01*
Y165033D02*
Y178143D01*
Y185033D02*
Y186116D01*
Y127060D02*
X299945D01*
Y138143D01*
Y145033D02*
Y148143D01*
Y155033D02*
Y158143D01*
Y165033D02*
Y178143D01*
Y185033D02*
Y186116D01*
X122505Y129751D02*
X137731D01*
X113248Y49901D02*
X144429D01*
X113248D02*
Y60492D01*
X144429D01*
Y49901D02*
Y60492D01*
X296457Y217028D02*
X297244D01*
X296457Y221555D02*
X297244D01*
X176986Y204699D02*
X177773D01*
X176986Y200172D02*
X177773D01*
D12*
X49852Y130175D02*
G03*
X49852Y130175I-492J0D01*
G01*
X20996Y39099D02*
G03*
X20996Y39099I-492J0D01*
G01*
X70113D02*
G03*
X70113Y39099I-492J0D01*
G01*
X216704D02*
G03*
X216704Y39099I-492J0D01*
G01*
X167461D02*
G03*
X167461Y39099I-492J0D01*
G01*
X119488Y39099D02*
G03*
X119488Y39099I-492J0D01*
G01*
X58130Y419921D02*
G03*
X58130Y419921I-492J0D01*
G01*
X40873Y128039D02*
G03*
X40873Y128039I-492J0D01*
G01*
X74084Y215566D02*
G03*
X74084Y215566I-492J0D01*
G01*
X98878Y180840D02*
G03*
X98878Y180840I-492J0D01*
G01*
Y156043D02*
G03*
X98878Y156043I-492J0D01*
G01*
X40873Y181957D02*
G03*
X40873Y181957I-492J0D01*
G01*
X253657Y151529D02*
G03*
X253657Y151529I-492J0D01*
G01*
X55120Y237340D02*
G03*
X55120Y237340I-492J0D01*
G01*
X262642Y181588D02*
G03*
X262642Y181588I-492J0D01*
G01*
X142224Y124496D02*
G03*
X142224Y124496I-492J0D01*
G01*
D13*
X291859Y75438D02*
G03*
X291859Y75044I0J-197D01*
G01*
D02*
G03*
X291859Y75438I0J197D01*
G01*
X45708Y160410D02*
X90511D01*
Y185213D01*
X45708D02*
X90511D01*
X45708Y160410D02*
Y185213D01*
D14*
X245842Y156292D02*
G03*
X245842Y156292I-1181J0D01*
G01*
D15*
X219201Y434820D02*
Y460017D01*
X116839Y434820D02*
Y460017D01*
X216740Y434820D02*
X219201D01*
X116839D02*
X119299D01*
X216740Y460017D02*
X219201D01*
X116839D02*
X119299D01*
X233248Y87576D02*
X237184D01*
X235216Y89544D02*
Y85608D01*
X267913Y444999D02*
X271849D01*
X269881Y446967D02*
Y443031D01*
X189803Y87576D02*
X193739D01*
X191771Y89544D02*
Y85608D01*
D16*
X155948Y321503D02*
X156615Y320170D01*
X157948Y318837D01*
X159281D01*
X159947Y319504D01*
Y320836D01*
X159281Y321503D01*
X158614D01*
X157948Y320836D01*
Y318837D01*
X183508Y321503D02*
Y318837D01*
X185507D01*
X184841Y320170D01*
Y320836D01*
X185507Y321503D01*
X186840D01*
X187506Y320836D01*
Y319504D01*
X186840Y318837D01*
X159947Y291818D02*
Y289152D01*
X157281Y291818D01*
X156615D01*
X155948Y291151D01*
Y289819D01*
X156615Y289152D01*
X187506Y290333D02*
Y291666D01*
Y291000D01*
X183508D01*
X184174Y290333D01*
X235557Y212301D02*
X232891D01*
Y210302D01*
X234224Y210968D01*
X234890D01*
X235557Y210302D01*
Y208969D01*
X234890Y208302D01*
X233557D01*
X232891Y208969D01*
X193914Y208302D02*
X195247D01*
X194581D01*
Y212301D01*
X193914Y211634D01*
D17*
X272247Y298560D02*
D03*
M02*
