G04*
G04 #@! TF.GenerationSoftware,Altium Limited,Altium Designer,24.4.1 (13)*
G04*
G04 Layer_Physical_Order=1*
G04 Layer_Color=255*
%FSLAX25Y25*%
%MOIN*%
G70*
G04*
G04 #@! TF.SameCoordinates,58F61C8A-C965-4830-B12A-95CD484E7F12*
G04*
G04*
G04 #@! TF.FilePolarity,Positive*
G04*
G01*
G75*
%ADD27R,0.05118X0.02756*%
%ADD28R,0.08661X0.03937*%
%ADD48R,0.05315X0.05315*%
%ADD49C,0.05315*%
%ADD53C,0.06299*%
%ADD54R,0.06299X0.06299*%
%ADD57R,0.03347X0.05315*%
%ADD58R,0.05315X0.03347*%
%ADD59R,0.18701X0.04724*%
%ADD60R,0.05118X0.03543*%
%ADD61R,0.03937X0.13386*%
%ADD62R,0.42126X0.33858*%
%ADD63R,0.20079X0.07480*%
%ADD64R,0.12205X0.03937*%
%ADD65R,0.03543X0.05118*%
%ADD66C,0.04000*%
%ADD67C,0.02000*%
%ADD68C,0.07087*%
%ADD69C,0.18898*%
%ADD70C,0.05118*%
G04:AMPARAMS|DCode=71|XSize=51.18mil|YSize=51.18mil|CornerRadius=12.8mil|HoleSize=0mil|Usage=FLASHONLY|Rotation=0.000|XOffset=0mil|YOffset=0mil|HoleType=Round|Shape=RoundedRectangle|*
%AMROUNDEDRECTD71*
21,1,0.05118,0.02559,0,0,0.0*
21,1,0.02559,0.05118,0,0,0.0*
1,1,0.02559,0.01280,-0.01280*
1,1,0.02559,-0.01280,-0.01280*
1,1,0.02559,-0.01280,0.01280*
1,1,0.02559,0.01280,0.01280*
%
%ADD71ROUNDEDRECTD71*%
%ADD72C,0.04134*%
%ADD73R,0.04134X0.04134*%
%ADD74C,0.07500*%
%ADD75R,0.06299X0.06299*%
G04:AMPARAMS|DCode=76|XSize=62.99mil|YSize=62.99mil|CornerRadius=15.75mil|HoleSize=0mil|Usage=FLASHONLY|Rotation=180.000|XOffset=0mil|YOffset=0mil|HoleType=Round|Shape=RoundedRectangle|*
%AMROUNDEDRECTD76*
21,1,0.06299,0.03150,0,0,180.0*
21,1,0.03150,0.06299,0,0,180.0*
1,1,0.03150,-0.01575,0.01575*
1,1,0.03150,0.01575,0.01575*
1,1,0.03150,0.01575,-0.01575*
1,1,0.03150,-0.01575,-0.01575*
%
%ADD76ROUNDEDRECTD76*%
%ADD77C,0.05000*%
%ADD78R,0.05000X0.05000*%
%ADD79C,0.04685*%
%ADD80R,0.04685X0.04685*%
%ADD81C,0.07559*%
%ADD82R,0.07559X0.07559*%
%ADD83C,0.04528*%
%ADD84R,0.04528X0.04528*%
G04:AMPARAMS|DCode=85|XSize=62.99mil|YSize=62.99mil|CornerRadius=15.75mil|HoleSize=0mil|Usage=FLASHONLY|Rotation=270.000|XOffset=0mil|YOffset=0mil|HoleType=Round|Shape=RoundedRectangle|*
%AMROUNDEDRECTD85*
21,1,0.06299,0.03150,0,0,270.0*
21,1,0.03150,0.06299,0,0,270.0*
1,1,0.03150,-0.01575,-0.01575*
1,1,0.03150,-0.01575,0.01575*
1,1,0.03150,0.01575,0.01575*
1,1,0.03150,0.01575,-0.01575*
%
%ADD85ROUNDEDRECTD85*%
%ADD86C,0.08858*%
%ADD87R,0.05906X0.05906*%
%ADD88C,0.05906*%
G36*
X314961D02*
X0D01*
Y334646D01*
X314961D01*
Y0D01*
D02*
G37*
%LPC*%
G36*
X117167Y309325D02*
X115948D01*
X113517Y306895D01*
Y305676D01*
X117167D01*
Y309325D01*
D02*
G37*
G36*
Y304676D02*
X113517D01*
Y303457D01*
X115948Y301026D01*
X117167D01*
Y304676D01*
D02*
G37*
G36*
X297912Y302218D02*
X294882D01*
X292739Y300075D01*
Y297045D01*
X294882Y294902D01*
X297912D01*
X300054Y297045D01*
Y300075D01*
X297912Y302218D01*
D02*
G37*
G36*
X235287Y322119D02*
X229744D01*
Y315001D01*
X235287D01*
Y316435D01*
X240027D01*
X255275Y301187D01*
X255084Y300725D01*
X254160D01*
X252629Y300091D01*
X244829Y292291D01*
X244406Y292574D01*
X244665Y293200D01*
Y299200D01*
X244031Y300731D01*
X241531Y303231D01*
X240000Y303865D01*
X226315D01*
X226123Y304327D01*
X226566Y304769D01*
X227200Y306300D01*
Y315001D01*
X227807D01*
Y322119D01*
X222264D01*
Y315001D01*
X222870D01*
Y307341D01*
X189491D01*
Y308144D01*
X175757D01*
Y311603D01*
X176361Y312207D01*
X189491D01*
Y318144D01*
X175286D01*
Y316934D01*
X174737Y316706D01*
X172061Y314031D01*
X171927Y313706D01*
X171434Y313824D01*
X170831Y315281D01*
X169405Y316706D01*
X168231Y317193D01*
Y318144D01*
X161628D01*
Y315176D01*
Y312207D01*
X167135D01*
Y308144D01*
X154026D01*
Y305263D01*
X152653Y303890D01*
X152191Y304081D01*
Y309879D01*
X154519Y312207D01*
X160628D01*
Y315176D01*
Y318144D01*
X154026D01*
Y317175D01*
X152895Y316706D01*
X149713Y313524D01*
X146531Y316706D01*
X145000Y317341D01*
X127667D01*
X126136Y316706D01*
X118755Y309325D01*
X118167D01*
Y305676D01*
X121816D01*
Y306264D01*
X128563Y313011D01*
X144103D01*
X147861Y309253D01*
Y284705D01*
X148495Y283174D01*
X149934Y281735D01*
Y281639D01*
X153592D01*
X157249D01*
Y282654D01*
X156604Y283300D01*
X156811Y283800D01*
X159450D01*
X160965Y285315D01*
X161427Y285124D01*
Y284147D01*
X159934Y282654D01*
Y279624D01*
X162077Y277482D01*
X165107D01*
X166273Y278648D01*
X166735Y278457D01*
Y277500D01*
X167369Y275969D01*
X169869Y273469D01*
X171400Y272835D01*
X175800D01*
X177331Y273469D01*
X179831Y275969D01*
X180465Y277500D01*
Y278441D01*
X180927Y278632D01*
X182077Y277482D01*
X184188D01*
X186801Y274869D01*
X188331Y274235D01*
X236250D01*
X237781Y274869D01*
X239831Y276919D01*
X240446Y278405D01*
X240927Y278632D01*
X242077Y277482D01*
X245107D01*
X247250Y279624D01*
Y282654D01*
X245107Y284797D01*
X244111D01*
X243920Y285259D01*
X255057Y296395D01*
X257956D01*
X259448Y294902D01*
X262478D01*
X264621Y297045D01*
Y300075D01*
X262478Y302218D01*
X260367D01*
X242454Y320131D01*
X240923Y320765D01*
X235287D01*
Y322119D01*
D02*
G37*
G36*
X265107Y284797D02*
X262077D01*
X259934Y282654D01*
Y279624D01*
X262077Y277482D01*
X265107D01*
X267249Y279624D01*
Y282654D01*
X265107Y284797D01*
D02*
G37*
G36*
X255107D02*
X252077D01*
X249935Y282654D01*
Y279624D01*
X252077Y277482D01*
X255107D01*
X257249Y279624D01*
Y282654D01*
X255107Y284797D01*
D02*
G37*
G36*
X157249Y280639D02*
X154092D01*
Y277482D01*
X155107D01*
X157249Y279624D01*
Y280639D01*
D02*
G37*
G36*
X153092D02*
X149934D01*
Y279624D01*
X152077Y277482D01*
X153092D01*
Y280639D01*
D02*
G37*
G36*
X92500Y315865D02*
X27600D01*
X26069Y315231D01*
X7269Y296431D01*
X6635Y294900D01*
Y268750D01*
X7269Y267219D01*
X8600Y265889D01*
X10131Y265254D01*
X10321D01*
Y264057D01*
X31022D01*
Y270781D01*
X10965D01*
Y274057D01*
X31022D01*
Y275254D01*
X32959D01*
Y274057D01*
X53659D01*
Y280781D01*
X47796D01*
X47605Y281243D01*
X49997Y283635D01*
X70262D01*
X70454Y283173D01*
X69934Y282654D01*
Y279624D01*
X72077Y277482D01*
X75107D01*
X77249Y279624D01*
Y282654D01*
X76730Y283173D01*
X76922Y283635D01*
X80262D01*
X80454Y283173D01*
X79935Y282654D01*
Y280543D01*
X68975Y269584D01*
X53659D01*
Y270781D01*
X32959D01*
Y264057D01*
X53659D01*
Y265254D01*
X69872D01*
X71403Y265889D01*
X82996Y277482D01*
X85107D01*
X85673Y278048D01*
X86135Y277857D01*
Y270597D01*
X85262Y269723D01*
X84800Y269915D01*
Y271050D01*
X82750Y273100D01*
X79850D01*
X77800Y271050D01*
Y269162D01*
X64537Y255898D01*
X63903Y254367D01*
Y250897D01*
X58171Y245165D01*
X55709D01*
X55610Y245665D01*
X56150Y245888D01*
X58862Y248600D01*
X60750D01*
X62800Y250650D01*
Y253550D01*
X60750Y255600D01*
X59653D01*
X59500Y255970D01*
Y258869D01*
X57450Y260919D01*
X54550D01*
X54121Y260490D01*
X53659Y260682D01*
Y260781D01*
X32959D01*
Y254057D01*
X53659D01*
Y254157D01*
X54121Y254348D01*
X54550Y253919D01*
X55647D01*
X55800Y253550D01*
Y251661D01*
X54159Y250021D01*
X53659Y250228D01*
Y250781D01*
X32959D01*
Y245165D01*
X31684D01*
X31022Y245442D01*
Y250781D01*
X10321D01*
Y244057D01*
X23104D01*
X29748Y241281D01*
X29648Y240781D01*
X21171D01*
Y237419D01*
Y234057D01*
X31022D01*
Y235254D01*
X32959D01*
Y234057D01*
X41135D01*
Y210000D01*
Y204900D01*
X41769Y203369D01*
X68858Y176281D01*
X70388Y175647D01*
X78557D01*
X81142Y173062D01*
X82609D01*
Y177812D01*
Y182562D01*
X81142D01*
X78557Y179976D01*
X71285D01*
X56260Y195002D01*
X56451Y195464D01*
X61532D01*
Y195618D01*
X61885Y195972D01*
X66900Y195972D01*
X66900Y195972D01*
X66900Y195972D01*
X72439D01*
Y195463D01*
X79754D01*
Y195463D01*
X80052Y195587D01*
X91329Y184309D01*
X92860Y183675D01*
X101933D01*
Y177773D01*
X102835D01*
Y166043D01*
X103469Y164512D01*
X106933Y161048D01*
Y159772D01*
X107134Y159572D01*
X106942Y159109D01*
X105500D01*
Y156543D01*
X108067D01*
Y157985D01*
X108529Y158176D01*
X108730Y157976D01*
X111270D01*
X112172Y158878D01*
X112845D01*
X113036Y158416D01*
X111933Y157313D01*
Y156037D01*
X104532Y148636D01*
X103898Y147106D01*
Y137675D01*
X103390D01*
Y131424D01*
X102740Y130774D01*
X102240Y130981D01*
Y137675D01*
X101659D01*
X101098Y139031D01*
X99297Y140831D01*
X97767Y141465D01*
X20000D01*
X18469Y140831D01*
X14969Y137331D01*
X14335Y135800D01*
Y72422D01*
X14969Y70891D01*
X25567Y60294D01*
Y53796D01*
X35126D01*
Y63355D01*
X32469D01*
X32385Y63855D01*
X35126Y66596D01*
Y70555D01*
X32368Y73313D01*
X32345Y73575D01*
X32368Y73838D01*
X35126Y76596D01*
Y80555D01*
X32326Y83355D01*
X28367D01*
X25567Y80555D01*
Y76596D01*
X28325Y73838D01*
X28348Y73575D01*
X28325Y73313D01*
X25567Y70555D01*
Y67124D01*
X25067Y66916D01*
X18665Y73319D01*
Y104848D01*
X19127Y105040D01*
X19962Y104205D01*
X22769D01*
X45804Y81169D01*
X47335Y80535D01*
X67267D01*
X68797Y81169D01*
X101098Y113469D01*
X101541Y114539D01*
X102240D01*
Y120607D01*
X103390D01*
Y114539D01*
X103898D01*
Y105685D01*
X102563Y104350D01*
Y101450D01*
X104613Y99400D01*
X107513D01*
X109563Y101450D01*
Y104350D01*
X108228Y105685D01*
Y114539D01*
X108736D01*
Y121854D01*
X108299D01*
X108108Y122316D01*
X123490Y137698D01*
X142398D01*
X145653Y134443D01*
Y130462D01*
X145191Y130271D01*
X141931Y133531D01*
X140400Y134165D01*
X132623D01*
X131092Y133531D01*
X125618Y128057D01*
Y124996D01*
X128680D01*
X133519Y129835D01*
X139503D01*
X142735Y126603D01*
Y95699D01*
X142273Y95507D01*
X142249Y95532D01*
X137751D01*
X134571Y92351D01*
Y87854D01*
X137751Y84674D01*
X139948D01*
X140140Y84211D01*
X137308Y81380D01*
X136674Y79849D01*
Y58900D01*
X134689Y56915D01*
Y55697D01*
X142988D01*
Y56915D01*
X141003Y58900D01*
Y78952D01*
X145191Y83140D01*
X145653Y82948D01*
Y58152D01*
X146604Y55856D01*
X182504Y19956D01*
Y18680D01*
X184935Y16249D01*
X186211D01*
X200032Y2428D01*
X202328Y1477D01*
X303754D01*
X306050Y2428D01*
X307981Y4360D01*
X308073Y4581D01*
X313320Y9827D01*
X314271Y12124D01*
Y207375D01*
X313320Y209671D01*
X303346Y219645D01*
Y222460D01*
X302395Y224756D01*
X299906Y227245D01*
X297609Y228196D01*
X290389D01*
X288093Y227245D01*
X285604Y224756D01*
X284653Y222460D01*
Y207064D01*
X281777D01*
Y204293D01*
Y201521D01*
X284653D01*
Y199584D01*
X277718D01*
Y198565D01*
X277182Y198343D01*
X266560Y187721D01*
X262075D01*
X260544Y187087D01*
X254056Y180599D01*
X251528D01*
X249212Y178284D01*
Y175009D01*
X251528Y172694D01*
X254802D01*
X257118Y175009D01*
Y177538D01*
X262972Y183392D01*
X264103D01*
Y178620D01*
X264935D01*
Y172097D01*
X256932Y164093D01*
X256912Y164097D01*
X256748Y164639D01*
X257118Y165009D01*
Y168284D01*
X254802Y170599D01*
X251528D01*
X249212Y168284D01*
Y165009D01*
X249995Y164227D01*
X249803Y163765D01*
X234024D01*
X232493Y163131D01*
X228174Y158811D01*
X226836D01*
X226568Y159125D01*
X226689Y159656D01*
X227687Y160069D01*
X229648Y162031D01*
X230283Y163562D01*
Y171694D01*
X229648Y173224D01*
X227118Y175755D01*
Y178284D01*
X226428Y178973D01*
X226550Y179559D01*
X227781Y180069D01*
X229731Y182019D01*
X230365Y183550D01*
Y190800D01*
X229731Y192331D01*
X226531Y195531D01*
X225000Y196165D01*
X187224D01*
X183301Y200088D01*
Y206093D01*
X177955D01*
Y198778D01*
X178845D01*
X179097Y198169D01*
X184797Y192469D01*
X186328Y191835D01*
X224103D01*
X224865Y191073D01*
X224632Y190599D01*
X221528D01*
X219740Y188811D01*
X215262D01*
X213731Y188177D01*
X212003Y186450D01*
X208559D01*
Y187056D01*
X201441D01*
Y186450D01*
X200000D01*
X198469Y185816D01*
X191764Y179111D01*
X191303Y179302D01*
Y180588D01*
X191811D01*
Y187903D01*
X186465D01*
Y180588D01*
X186973D01*
Y179493D01*
X185268Y177788D01*
X184807Y177980D01*
Y180588D01*
X185315D01*
Y183745D01*
X182642D01*
Y184245D01*
X182142D01*
Y187903D01*
X179969D01*
Y186410D01*
X175818D01*
X175533Y186292D01*
X172457D01*
Y186899D01*
X169398D01*
Y184127D01*
Y181355D01*
X172457D01*
Y181962D01*
X175700D01*
X175986Y182080D01*
X179969D01*
Y180588D01*
X180477D01*
Y177938D01*
X179762Y177223D01*
X179300Y177415D01*
Y178096D01*
X177250Y180147D01*
X174350D01*
X173015Y178811D01*
X172457D01*
Y179418D01*
X165339D01*
Y178811D01*
X163969D01*
X163778Y179273D01*
X165859Y181355D01*
X168398D01*
Y184127D01*
Y186899D01*
X165339D01*
Y186196D01*
X164039Y185658D01*
X158410Y180029D01*
X156012D01*
Y177257D01*
X155012D01*
Y180029D01*
X151953D01*
Y179422D01*
X150000D01*
X149480Y179207D01*
X149065Y179485D01*
Y182838D01*
X148431Y184368D01*
X146531Y186268D01*
X145875Y186540D01*
Y187116D01*
X142815D01*
Y184738D01*
Y182360D01*
X144316D01*
X144735Y181941D01*
Y179635D01*
X139015D01*
X137893Y180757D01*
X134993D01*
X133658Y179422D01*
X131918D01*
Y180029D01*
X124800D01*
Y174486D01*
X126194D01*
Y172079D01*
X123946Y169831D01*
X123312Y168300D01*
Y165999D01*
X122804D01*
Y158684D01*
X128150D01*
Y165999D01*
X127642D01*
Y167403D01*
X129890Y169651D01*
X130524Y171182D01*
Y174486D01*
X131918D01*
Y175092D01*
X133658D01*
X134993Y173757D01*
X137893D01*
X139015Y174879D01*
X144735D01*
Y170097D01*
X141661Y167023D01*
X141237Y165999D01*
X140519D01*
Y165984D01*
X140057Y165793D01*
X139050Y166800D01*
X136150D01*
X135108Y165758D01*
X134646Y165949D01*
Y165999D01*
X129300D01*
Y158684D01*
X129808D01*
Y157500D01*
X130442Y155969D01*
X132100Y154311D01*
X131909Y153849D01*
X126013D01*
X117288Y162573D01*
X115757Y163207D01*
X112172D01*
X111270Y164110D01*
X109994D01*
X107165Y166939D01*
Y177773D01*
X108067D01*
Y182782D01*
X108529Y182974D01*
X108730Y182773D01*
X111270D01*
X113067Y184569D01*
Y187110D01*
X111270Y188907D01*
X108730D01*
X107827Y188005D01*
X93757D01*
X82094Y199667D01*
X80563Y200301D01*
X79754D01*
Y200810D01*
X72439D01*
Y200301D01*
X66900D01*
X61532Y200302D01*
Y200810D01*
X54217D01*
Y197698D01*
X53755Y197506D01*
X49255Y202006D01*
X49447Y202468D01*
X54217D01*
Y201960D01*
X57374D01*
Y204633D01*
Y207306D01*
X54217D01*
Y206798D01*
X49564D01*
X45465Y210897D01*
Y234057D01*
X53659D01*
Y236919D01*
X43309D01*
Y237919D01*
X53659D01*
Y240781D01*
X54137Y240835D01*
X59067D01*
X60598Y241469D01*
X67598Y248469D01*
X68232Y250000D01*
Y253471D01*
X80566Y265805D01*
X80625Y265793D01*
X80789Y265251D01*
X77369Y261831D01*
X76735Y260300D01*
Y224047D01*
X69934D01*
Y216732D01*
X71427D01*
Y207138D01*
X72061Y205607D01*
X72439Y205229D01*
Y201960D01*
X79754D01*
Y204531D01*
X80216Y204722D01*
X88333Y196606D01*
X89863Y195972D01*
X90628D01*
Y195463D01*
X97943D01*
Y195972D01*
X111734D01*
X113265Y196606D01*
X113872Y197213D01*
X116747D01*
X118718Y198029D01*
X119534Y200000D01*
Y203150D01*
X119316Y203676D01*
X119732Y203954D01*
X121023Y202663D01*
Y199856D01*
X123454Y197425D01*
X126891D01*
X129322Y199856D01*
Y203294D01*
X126891Y205724D01*
X124084D01*
X120465Y209344D01*
Y217691D01*
X120927Y217882D01*
X122077Y216732D01*
X123092D01*
Y220389D01*
Y224047D01*
X122077D01*
X120867Y222836D01*
X120277Y222954D01*
X119831Y224031D01*
X117231Y226631D01*
X115700Y227265D01*
X111500D01*
X109969Y226631D01*
X107369Y224031D01*
X106918Y222942D01*
X106329Y222825D01*
X105107Y224047D01*
X102077D01*
X99935Y221904D01*
Y218874D01*
X102077Y216732D01*
X105107D01*
X106273Y217898D01*
X106735Y217707D01*
Y214729D01*
X98803Y206797D01*
X97943D01*
Y207306D01*
X90628D01*
Y206797D01*
X89856D01*
X85757Y210897D01*
Y217382D01*
X87249Y218874D01*
Y221904D01*
X85107Y224047D01*
X82077D01*
X81527Y223496D01*
X81065Y223688D01*
Y259403D01*
X89831Y268169D01*
X90465Y269700D01*
Y278441D01*
X90927Y278632D01*
X92077Y277482D01*
X95107D01*
X97250Y279624D01*
Y282654D01*
X96254Y283650D01*
X96537Y284073D01*
X97595Y283635D01*
X100262D01*
X100454Y283173D01*
X99935Y282654D01*
Y279624D01*
X102077Y277482D01*
X105107D01*
X107249Y279624D01*
Y282654D01*
X106730Y283173D01*
X106922Y283635D01*
X108035D01*
X109934Y281735D01*
Y279624D01*
X112077Y277482D01*
X115107D01*
X117250Y279624D01*
Y282654D01*
X115107Y284797D01*
X112996D01*
X110462Y287331D01*
X108931Y287965D01*
X98492D01*
X86897Y299560D01*
X87088Y300022D01*
X93400D01*
Y300531D01*
X101139D01*
X119934Y281735D01*
Y279624D01*
X122077Y277482D01*
X125107D01*
X125673Y278048D01*
X126135Y277857D01*
Y225994D01*
X124188Y224047D01*
X124092D01*
Y220889D01*
X127250D01*
Y220985D01*
X129831Y223567D01*
X130465Y225097D01*
Y278441D01*
X130927Y278632D01*
X132077Y277482D01*
X135107D01*
X137250Y279624D01*
Y282654D01*
X135757Y284147D01*
Y285242D01*
X136257Y285413D01*
X139935Y281735D01*
Y279624D01*
X142077Y277482D01*
X145107D01*
X147249Y279624D01*
Y282654D01*
X145107Y284797D01*
X142996D01*
X139831Y287961D01*
Y301058D01*
X141212Y301630D01*
X142028Y303601D01*
Y306751D01*
X141212Y308721D01*
X139241Y309538D01*
X136092D01*
X134121Y308721D01*
X133305Y306751D01*
Y303601D01*
X133523Y303074D01*
X133107Y302797D01*
X131816Y304088D01*
Y306895D01*
X129385Y309325D01*
X125948D01*
X123517Y306895D01*
Y303457D01*
X125948Y301026D01*
X128755D01*
X131427Y298354D01*
Y284147D01*
X130927Y283646D01*
X130465Y283838D01*
Y294542D01*
X129831Y296073D01*
X121816Y304088D01*
Y304676D01*
X118167D01*
Y301026D01*
X118755D01*
X126135Y293646D01*
Y284422D01*
X125673Y284230D01*
X125107Y284797D01*
X122996D01*
X103567Y304226D01*
X96565Y311228D01*
Y311800D01*
X95931Y313331D01*
X94031Y315231D01*
X92500Y315865D01*
D02*
G37*
G36*
X31022Y260781D02*
X10321D01*
Y254057D01*
X31022D01*
Y260781D01*
D02*
G37*
G36*
X297802Y257513D02*
X294364D01*
X291933Y255083D01*
Y251645D01*
X294364Y249214D01*
X297802D01*
X300232Y251645D01*
Y255083D01*
X297802Y257513D01*
D02*
G37*
G36*
Y247513D02*
X294364D01*
X291933Y245083D01*
Y241645D01*
X294364Y239214D01*
X297802D01*
X300232Y241645D01*
Y245083D01*
X297802Y247513D01*
D02*
G37*
G36*
X20171Y240781D02*
X10321D01*
Y237919D01*
X20171D01*
Y240781D01*
D02*
G37*
G36*
Y236919D02*
X10321D01*
Y234057D01*
X20171D01*
Y236919D01*
D02*
G37*
G36*
X245107Y224047D02*
X244092D01*
Y220889D01*
X247250D01*
Y221904D01*
X245107Y224047D01*
D02*
G37*
G36*
X243092D02*
X242077D01*
X239934Y221904D01*
Y220889D01*
X243092D01*
Y224047D01*
D02*
G37*
G36*
X297658Y267725D02*
X294508D01*
X292537Y266909D01*
X291721Y264939D01*
Y262064D01*
X262061Y232404D01*
X261427Y230873D01*
Y223397D01*
X259934Y221904D01*
Y218874D01*
X262077Y216732D01*
X265107D01*
X267249Y218874D01*
Y221904D01*
X265757Y223397D01*
Y229976D01*
X294782Y259002D01*
X297658D01*
X299628Y259818D01*
X300445Y261789D01*
Y264939D01*
X299628Y266909D01*
X297658Y267725D01*
D02*
G37*
G36*
X235107Y224047D02*
X232077D01*
X229935Y221904D01*
Y218874D01*
X232077Y216732D01*
X235107D01*
X237249Y218874D01*
Y221904D01*
X235107Y224047D01*
D02*
G37*
G36*
X165700Y227265D02*
X158303D01*
X156772Y226631D01*
X154188Y224047D01*
X152077D01*
X149934Y221904D01*
Y219793D01*
X144569Y214428D01*
X143935Y212897D01*
Y194149D01*
X144569Y192619D01*
X151953Y185235D01*
Y181966D01*
X159071D01*
Y187509D01*
X155802D01*
X148265Y195046D01*
Y197531D01*
X148680Y197808D01*
X150118Y197213D01*
X153268D01*
X155238Y198029D01*
X156055Y200000D01*
Y203149D01*
X155238Y205120D01*
X153268Y205936D01*
X150118D01*
X148680Y205341D01*
X148265Y205619D01*
Y212000D01*
X152996Y216732D01*
X155107D01*
X157249Y218874D01*
Y220985D01*
X159200Y222935D01*
X160312D01*
X160504Y222473D01*
X159934Y221904D01*
Y218874D01*
X162077Y216732D01*
X165107D01*
X165673Y217298D01*
X166135Y217107D01*
Y215932D01*
X166769Y214401D01*
X171967Y209203D01*
Y206093D01*
X171458D01*
Y198778D01*
X176805D01*
Y206093D01*
X176296D01*
Y210100D01*
X175662Y211631D01*
X170465Y216828D01*
Y217691D01*
X170927Y217882D01*
X172077Y216732D01*
X175107D01*
X177250Y218874D01*
Y221904D01*
X175107Y224047D01*
X172077D01*
X170867Y222836D01*
X170277Y222954D01*
X169831Y224031D01*
X167231Y226631D01*
X165700Y227265D01*
D02*
G37*
G36*
X145107Y224047D02*
X142077D01*
X139935Y221904D01*
Y218874D01*
X142077Y216732D01*
X145107D01*
X147249Y218874D01*
Y221904D01*
X145107Y224047D01*
D02*
G37*
G36*
X95107D02*
X92077D01*
X89934Y221904D01*
Y218874D01*
X92077Y216732D01*
X95107D01*
X97250Y218874D01*
Y221904D01*
X95107Y224047D01*
D02*
G37*
G36*
X135107D02*
X132077D01*
X129935Y221904D01*
Y218874D01*
X132077Y216732D01*
X134188D01*
X139069Y211851D01*
X140600Y211216D01*
X142131Y211851D01*
X142765Y213381D01*
X142131Y214912D01*
X137250Y219793D01*
Y221904D01*
X135107Y224047D01*
D02*
G37*
G36*
X61532Y207306D02*
X58374D01*
Y205133D01*
X61532D01*
Y207306D01*
D02*
G37*
G36*
X127250Y219889D02*
X124092D01*
Y216732D01*
X124188D01*
X133008Y207912D01*
Y205278D01*
X131023Y203294D01*
Y202075D01*
X139322D01*
Y203294D01*
X137337Y205278D01*
Y208809D01*
X136703Y210339D01*
X127250Y219793D01*
Y219889D01*
D02*
G37*
G36*
X61532Y204133D02*
X58374D01*
Y201960D01*
X61532D01*
Y204133D01*
D02*
G37*
G36*
X274250Y228600D02*
X271350D01*
X269300Y226550D01*
Y223650D01*
X270635Y222315D01*
Y205597D01*
X265273Y200234D01*
X264773Y200441D01*
Y206093D01*
X264264D01*
Y211882D01*
X263630Y213412D01*
X257249Y219793D01*
Y221904D01*
X255107Y224047D01*
X252077D01*
X249935Y221904D01*
Y218874D01*
X252077Y216732D01*
X254188D01*
X259935Y210985D01*
Y206093D01*
X259426D01*
Y200058D01*
X258926Y199962D01*
X258277Y201583D01*
Y206093D01*
X252930D01*
Y198778D01*
X253778D01*
X254073Y198066D01*
X255969Y196169D01*
X256356Y196009D01*
X256648Y195710D01*
X257091Y195705D01*
X257500Y195535D01*
X265719D01*
X266015Y195124D01*
X264103Y193212D01*
X257566D01*
X256035Y192578D01*
X254056Y190599D01*
X253665D01*
Y187147D01*
X257118D01*
Y187538D01*
X258463Y188883D01*
X265000D01*
X266531Y189517D01*
X278535Y201521D01*
X280777D01*
Y204293D01*
Y207064D01*
X277718D01*
Y206239D01*
X276714Y205823D01*
X275376Y204485D01*
X274965Y204781D01*
Y222315D01*
X276300Y223650D01*
Y226550D01*
X274250Y228600D01*
D02*
G37*
G36*
X225107Y224047D02*
X222077D01*
X219935Y221904D01*
Y218874D01*
X222077Y216732D01*
X224188D01*
X232222Y208698D01*
Y205313D01*
X230237Y203328D01*
Y199891D01*
X232668Y197460D01*
X236106D01*
X238537Y199891D01*
Y203328D01*
X236552Y205313D01*
Y209594D01*
X235918Y211125D01*
X227250Y219793D01*
Y221904D01*
X225107Y224047D01*
D02*
G37*
G36*
X215107D02*
X212077D01*
X209934Y221904D01*
Y218874D01*
X212077Y216732D01*
X214188D01*
X222222Y208698D01*
Y205313D01*
X220237Y203328D01*
Y199891D01*
X222668Y197460D01*
X226106D01*
X228537Y199891D01*
Y203328D01*
X226552Y205313D01*
Y209594D01*
X225918Y211125D01*
X217249Y219793D01*
Y221904D01*
X215107Y224047D01*
D02*
G37*
G36*
X205107D02*
X202077D01*
X199934Y221904D01*
Y218874D01*
X202077Y216732D01*
X204188D01*
X212222Y208698D01*
Y205313D01*
X210237Y203328D01*
Y199891D01*
X212668Y197460D01*
X216106D01*
X218537Y199891D01*
Y203328D01*
X216552Y205313D01*
Y209594D01*
X215918Y211125D01*
X207249Y219793D01*
Y221904D01*
X205107Y224047D01*
D02*
G37*
G36*
X195107D02*
X192077D01*
X189935Y221904D01*
Y218874D01*
X192077Y216732D01*
X194188D01*
X202222Y208698D01*
Y205313D01*
X200237Y203328D01*
Y199891D01*
X202668Y197460D01*
X206106D01*
X208537Y199891D01*
Y203328D01*
X206552Y205313D01*
Y209594D01*
X205918Y211125D01*
X197249Y219793D01*
Y221904D01*
X195107Y224047D01*
D02*
G37*
G36*
X163412Y205724D02*
X159974D01*
X157543Y203293D01*
Y199856D01*
X159974Y197425D01*
X163412D01*
X165843Y199856D01*
Y203293D01*
X163412Y205724D01*
D02*
G37*
G36*
X185107Y224047D02*
X182077D01*
X179935Y221904D01*
Y218874D01*
X182077Y216732D01*
X184188D01*
X192222Y208698D01*
Y205727D01*
X190841Y205155D01*
X190025Y203184D01*
Y200035D01*
X190841Y198064D01*
X192812Y197248D01*
X195962D01*
X197933Y198064D01*
X198749Y200035D01*
Y203184D01*
X197933Y205155D01*
X196552Y205727D01*
Y209594D01*
X195918Y211125D01*
X187250Y219793D01*
Y221904D01*
X185107Y224047D01*
D02*
G37*
G36*
X247250Y219889D02*
X243592D01*
X239934D01*
Y218874D01*
X241427Y217382D01*
Y196220D01*
X242061Y194689D01*
X249212Y187538D01*
Y187147D01*
X252665D01*
Y190599D01*
X252274D01*
X245757Y197116D01*
Y217382D01*
X247250Y218874D01*
Y219889D01*
D02*
G37*
G36*
X185315Y187903D02*
X183142D01*
Y184745D01*
X185315D01*
Y187903D01*
D02*
G37*
G36*
X257118Y186147D02*
X253665D01*
Y182694D01*
X254802D01*
X257118Y185009D01*
Y186147D01*
D02*
G37*
G36*
X252665D02*
X249212D01*
Y185009D01*
X251528Y182694D01*
X252665D01*
Y186147D01*
D02*
G37*
G36*
X139322Y201075D02*
X131023D01*
Y199856D01*
X133008Y197871D01*
Y192448D01*
X128069Y187509D01*
X124800D01*
Y186902D01*
X118898D01*
X117367Y186268D01*
X115500Y184401D01*
Y181340D01*
X118561D01*
X119794Y182573D01*
X124800D01*
Y181966D01*
X127859D01*
Y184738D01*
X128859D01*
Y181966D01*
X131918D01*
Y182573D01*
X138756D01*
Y182360D01*
X141815D01*
Y184738D01*
Y187116D01*
X138756D01*
Y186902D01*
X134238D01*
X134047Y187364D01*
X136703Y190021D01*
X137337Y191551D01*
Y197871D01*
X139322Y199856D01*
Y201075D01*
D02*
G37*
G36*
X114500Y183907D02*
X113730D01*
X111933Y182110D01*
Y181340D01*
X114500D01*
Y183907D01*
D02*
G37*
G36*
X85077Y182562D02*
X83609D01*
Y178312D01*
X87859D01*
Y179779D01*
X85077Y182562D01*
D02*
G37*
G36*
X25830Y186106D02*
X17531D01*
Y177807D01*
X25830D01*
Y186106D01*
D02*
G37*
G36*
X118067Y180340D02*
X115500D01*
Y177773D01*
X116270D01*
X118067Y179569D01*
Y180340D01*
D02*
G37*
G36*
X114500D02*
X111933D01*
Y179569D01*
X113730Y177773D01*
X114500D01*
Y180340D01*
D02*
G37*
G36*
X55077Y182562D02*
X51142D01*
X49639Y181059D01*
X37221D01*
X34925Y180108D01*
X21238Y166421D01*
X19962D01*
X17531Y163990D01*
Y160553D01*
X19962Y158122D01*
X23399D01*
X25830Y160553D01*
Y161829D01*
X38566Y174564D01*
X49639D01*
X51142Y173062D01*
X55077D01*
X57859Y175844D01*
Y179779D01*
X55077Y182562D01*
D02*
G37*
G36*
Y172562D02*
X51142D01*
X48359Y169779D01*
Y165844D01*
X51142Y163062D01*
X55077D01*
X57859Y165844D01*
Y169779D01*
X55077Y172562D01*
D02*
G37*
G36*
X108067Y155543D02*
X105500D01*
Y152976D01*
X108067D01*
Y155543D01*
D02*
G37*
G36*
X87859Y177312D02*
X83609D01*
Y173062D01*
X84348D01*
X84080Y172562D01*
X81142D01*
X78359Y169779D01*
Y165844D01*
X81142Y163062D01*
X85077D01*
X87859Y165844D01*
Y169293D01*
X88359Y169500D01*
X100969Y156890D01*
X100996Y156879D01*
X101008Y156852D01*
X101933Y155972D01*
Y152976D01*
X104500D01*
Y156043D01*
Y159506D01*
X104012Y159971D01*
X87859Y176123D01*
Y177312D01*
D02*
G37*
G36*
X124618Y127562D02*
X123848D01*
X122051Y125766D01*
Y124996D01*
X124618D01*
Y127562D01*
D02*
G37*
G36*
X138185D02*
X132051D01*
Y122553D01*
X131589Y122362D01*
X131389Y122563D01*
X128848D01*
X127051Y120766D01*
Y118225D01*
X128848Y116429D01*
X131389D01*
X132492Y117532D01*
X132953Y117340D01*
Y106715D01*
X112069Y85831D01*
X111435Y84300D01*
Y48700D01*
X112069Y47169D01*
X120400Y38838D01*
Y36950D01*
X122450Y34900D01*
X125350D01*
X127400Y36950D01*
Y39850D01*
X125350Y41900D01*
X123461D01*
X115765Y49597D01*
Y51006D01*
X116181Y51284D01*
X117264Y50835D01*
X120413D01*
X122384Y51651D01*
X123200Y53622D01*
Y56771D01*
X122384Y58742D01*
X120413Y59558D01*
X117264D01*
X116181Y59110D01*
X115765Y59387D01*
Y83403D01*
X136649Y104288D01*
X137283Y105818D01*
Y121429D01*
X138185D01*
Y127562D01*
D02*
G37*
G36*
X128185Y123996D02*
X125618D01*
Y121429D01*
X126389D01*
X128185Y123225D01*
Y123996D01*
D02*
G37*
G36*
X124618D02*
X122051D01*
Y123225D01*
X123848Y121429D01*
X124618D01*
Y123996D01*
D02*
G37*
G36*
X130557Y59346D02*
X127120D01*
X124689Y56915D01*
Y53478D01*
X127120Y51047D01*
X130557D01*
X132988Y53478D01*
Y56915D01*
X130557Y59346D01*
D02*
G37*
G36*
X171118Y24548D02*
X167469D01*
Y20899D01*
X171118D01*
Y24548D01*
D02*
G37*
G36*
X166469D02*
X162819D01*
Y20899D01*
X166469D01*
Y24548D01*
D02*
G37*
G36*
X142988Y54697D02*
X134689D01*
Y53478D01*
X136674Y51493D01*
Y41138D01*
X120084Y24548D01*
X119496D01*
Y20899D01*
X123146D01*
Y21487D01*
X140369Y38710D01*
X141003Y40241D01*
Y51493D01*
X142988Y53478D01*
Y54697D01*
D02*
G37*
G36*
X118496Y24548D02*
X114847D01*
Y20899D01*
X118496D01*
Y24548D01*
D02*
G37*
G36*
X171118Y19899D02*
X167469D01*
Y16249D01*
X171118D01*
Y19899D01*
D02*
G37*
G36*
X166469D02*
X162819D01*
Y16249D01*
X166469D01*
Y19899D01*
D02*
G37*
G36*
X123146D02*
X119496D01*
Y16249D01*
X123146D01*
Y19899D01*
D02*
G37*
G36*
X118496D02*
X114847D01*
Y16249D01*
X118496D01*
Y19899D01*
D02*
G37*
G36*
X71940Y59346D02*
X68503D01*
X66072Y56915D01*
Y53478D01*
X66974Y52575D01*
Y39483D01*
X67925Y37187D01*
X85156Y19956D01*
Y18680D01*
X87587Y16249D01*
X91025D01*
X93456Y18680D01*
Y22117D01*
X91025Y24548D01*
X89749D01*
X73469Y40828D01*
Y52575D01*
X74371Y53478D01*
Y56915D01*
X71940Y59346D01*
D02*
G37*
G36*
X73771Y24548D02*
X65471D01*
Y16249D01*
X73771D01*
Y24548D01*
D02*
G37*
G36*
X61940Y59346D02*
X58503D01*
X56072Y56915D01*
Y53478D01*
X56974Y52575D01*
Y41776D01*
X39747Y24548D01*
X38470D01*
X36040Y22117D01*
Y18680D01*
X38470Y16249D01*
X41908D01*
X44339Y18680D01*
Y19956D01*
X62517Y38135D01*
X63469Y40431D01*
Y52575D01*
X64371Y53478D01*
Y56915D01*
X61940Y59346D01*
D02*
G37*
G36*
X24654Y24548D02*
X16355D01*
Y16249D01*
X24654D01*
Y24548D01*
D02*
G37*
G36*
X81796Y59558D02*
X78647D01*
X76676Y58742D01*
X75860Y56771D01*
Y53622D01*
X76676Y51651D01*
X78647Y50835D01*
X79991D01*
X104853Y25973D01*
Y15000D01*
X105804Y12704D01*
X112604Y5904D01*
X114900Y4953D01*
X126483D01*
X128779Y5904D01*
X139124Y16249D01*
X140400D01*
X142831Y18680D01*
Y22117D01*
X140400Y24548D01*
X136962D01*
X134532Y22117D01*
Y20841D01*
X125138Y11447D01*
X116245D01*
X111347Y16345D01*
Y27318D01*
X110396Y29614D01*
X84583Y55427D01*
Y56771D01*
X83767Y58742D01*
X81796Y59558D01*
D02*
G37*
%LPD*%
G36*
X167135Y298144D02*
X155191D01*
Y300305D01*
X157093Y302207D01*
X167135D01*
Y298144D01*
D02*
G37*
G36*
X196812Y302549D02*
X191603Y297341D01*
X189491D01*
Y298144D01*
X175757D01*
Y302207D01*
X189491D01*
Y303011D01*
X196621D01*
X196812Y302549D01*
D02*
G37*
G36*
X230927Y299119D02*
X230500Y298088D01*
Y294938D01*
X231316Y292967D01*
X233287Y292151D01*
X236437D01*
X238407Y292967D01*
X239224Y294938D01*
Y298088D01*
X238796Y299119D01*
X238822Y299158D01*
X239266Y299373D01*
X240335Y298303D01*
Y294097D01*
X237003Y290765D01*
X211053D01*
X209522Y290131D01*
X204188Y284797D01*
X202077D01*
X199934Y282654D01*
Y279624D01*
X200532Y279027D01*
X200341Y278565D01*
X196843D01*
X196652Y279027D01*
X197249Y279624D01*
Y282654D01*
X195107Y284797D01*
X192077D01*
X189935Y282654D01*
Y279624D01*
X190532Y279027D01*
X190341Y278565D01*
X189228D01*
X187250Y280543D01*
Y282654D01*
X185107Y284797D01*
X182077D01*
X181220Y283940D01*
X180688Y284114D01*
X180660Y284298D01*
X185397Y289035D01*
X199549D01*
X201080Y289669D01*
X203774Y292363D01*
X204362D01*
Y296513D01*
X204862D01*
Y297013D01*
X209011D01*
Y298232D01*
X208170Y299073D01*
X208361Y299535D01*
X211363D01*
X211554Y299073D01*
X210712Y298232D01*
Y294794D01*
X213143Y292363D01*
X216581D01*
X219011Y294794D01*
Y298232D01*
X218170Y299073D01*
X218361Y299535D01*
X221362D01*
X221554Y299073D01*
X220712Y298232D01*
Y294794D01*
X223143Y292363D01*
X226581D01*
X229011Y294794D01*
Y298232D01*
X228170Y299073D01*
X228361Y299535D01*
X230650D01*
X230927Y299119D01*
D02*
G37*
G36*
X238809Y286271D02*
X236769Y284231D01*
X236620Y283871D01*
X236130Y283774D01*
X235107Y284797D01*
X232077D01*
X229935Y282654D01*
Y279624D01*
X230532Y279027D01*
X230341Y278565D01*
X226843D01*
X226652Y279027D01*
X227250Y279624D01*
Y282654D01*
X225107Y284797D01*
X222077D01*
X219935Y282654D01*
Y279624D01*
X220532Y279027D01*
X220341Y278565D01*
X216843D01*
X216652Y279027D01*
X217249Y279624D01*
Y282654D01*
X215107Y284797D01*
X212077D01*
X209934Y282654D01*
Y279624D01*
X210532Y279027D01*
X210341Y278565D01*
X206843D01*
X206652Y279027D01*
X207249Y279624D01*
Y281735D01*
X211949Y286435D01*
X237900D01*
X238526Y286695D01*
X238809Y286271D01*
D02*
G37*
%LPC*%
G36*
X209011Y296013D02*
X205362D01*
Y292363D01*
X206581D01*
X209011Y294794D01*
Y296013D01*
D02*
G37*
%LPD*%
G36*
X96348Y305322D02*
X96156Y304860D01*
X93400D01*
Y305369D01*
X86085D01*
Y301025D01*
X85623Y300834D01*
X82231Y304226D01*
X80700Y304860D01*
X74224D01*
Y305369D01*
X66909D01*
Y300022D01*
X74224D01*
Y300531D01*
X79803D01*
X95037Y285297D01*
X94830Y284797D01*
X92077D01*
X90927Y283646D01*
X90423Y283850D01*
X89831Y285281D01*
X87781Y287331D01*
X86250Y287965D01*
X49100D01*
X47569Y287331D01*
X45927Y285688D01*
X45465Y285879D01*
Y301595D01*
X50897Y307027D01*
X66909D01*
Y306518D01*
X74224D01*
Y306673D01*
X74577Y307027D01*
X80100Y307027D01*
X80100Y307027D01*
X80100Y307027D01*
X86085D01*
Y306518D01*
X93400D01*
Y307617D01*
X93862Y307808D01*
X96348Y305322D01*
D02*
G37*
G36*
X49225Y311035D02*
X48469Y310722D01*
X41769Y304022D01*
X41135Y302492D01*
Y280781D01*
X32959D01*
Y279584D01*
X31022D01*
Y280781D01*
X10965D01*
Y294003D01*
X28497Y311535D01*
X49125D01*
X49225Y311035D01*
D02*
G37*
G36*
X111427Y213401D02*
Y211681D01*
X112061Y210150D01*
X113008Y209203D01*
Y205692D01*
X111627Y205120D01*
X110811Y203150D01*
Y200301D01*
X97943D01*
Y200810D01*
X90628D01*
Y200810D01*
X90362Y200700D01*
X89094Y201968D01*
X89301Y202468D01*
X90628D01*
Y201959D01*
X97943D01*
Y202468D01*
X99700D01*
X101231Y203102D01*
X110431Y212302D01*
X110927Y213500D01*
X111427Y213401D01*
D02*
G37*
G36*
X219765Y184265D02*
X219520Y183765D01*
X217278D01*
X215747Y183131D01*
X209021Y176405D01*
X208559Y176596D01*
Y179576D01*
X205500D01*
Y176804D01*
Y174033D01*
X205996D01*
X206187Y173571D01*
X204847Y172231D01*
X204416Y171190D01*
X203705D01*
Y164164D01*
X203205Y163957D01*
X202555Y164606D01*
Y171190D01*
X197209D01*
Y163875D01*
X197859D01*
X198221Y163001D01*
X196929Y161709D01*
X196467Y161900D01*
Y172910D01*
X198197Y174640D01*
X201441D01*
Y174033D01*
X204500D01*
Y176804D01*
Y179576D01*
X201441D01*
Y178969D01*
X198399D01*
X198208Y179431D01*
X200897Y182120D01*
X201441D01*
Y181513D01*
X208559D01*
Y182120D01*
X212900D01*
X214431Y182754D01*
X216159Y184482D01*
X219597D01*
X219765Y184265D01*
D02*
G37*
G36*
X174350Y173147D02*
X175032D01*
X175223Y172685D01*
X171769Y169231D01*
X171135Y167700D01*
Y158032D01*
X170673Y157840D01*
X168762Y159751D01*
Y165999D01*
X163416D01*
Y158684D01*
X164205D01*
X164558Y157833D01*
X167484Y154906D01*
X167451Y154469D01*
X167004Y154186D01*
X166089Y154565D01*
X160897D01*
X157277Y158184D01*
X157484Y158684D01*
X162266D01*
Y165999D01*
X161758D01*
Y172543D01*
X163697Y174482D01*
X165339D01*
Y173875D01*
X172457D01*
Y174482D01*
X173015D01*
X174350Y173147D01*
D02*
G37*
G36*
X219902Y178973D02*
X219212Y178284D01*
Y175009D01*
X221528Y172694D01*
X224056D01*
X225953Y170797D01*
Y170102D01*
X225491Y169911D01*
X224802Y170599D01*
X221528D01*
X219740Y168811D01*
X216083D01*
X215831Y169063D01*
X214300Y169697D01*
X209051D01*
Y170312D01*
X218175Y179435D01*
X219710D01*
X219902Y178973D01*
D02*
G37*
G36*
X296851Y220735D02*
Y219291D01*
X297057Y218796D01*
X296851Y218300D01*
X297425Y216914D01*
Y215634D01*
X298172D01*
X307776Y206030D01*
Y144938D01*
X307314Y144747D01*
X306973Y145088D01*
X304074D01*
X303542Y144556D01*
X296665D01*
Y148619D01*
X300429D01*
Y151588D01*
Y154557D01*
X296665D01*
Y158619D01*
X306260D01*
Y164557D01*
X296665D01*
Y178498D01*
X296715Y178620D01*
X298635D01*
Y174185D01*
X297300Y172850D01*
Y169950D01*
X299350Y167900D01*
X302250D01*
X304300Y169950D01*
Y172850D01*
X302965Y174185D01*
Y178620D01*
X306260D01*
Y184556D01*
X296763D01*
Y188402D01*
X301180Y192819D01*
X301646Y193942D01*
X302323D01*
Y197100D01*
X299650D01*
Y198100D01*
X302323D01*
Y201257D01*
X301814D01*
Y205615D01*
X303150Y206950D01*
Y207900D01*
X299650D01*
Y208400D01*
X299150D01*
Y211900D01*
X298200D01*
X296267Y209967D01*
X295767Y210134D01*
Y215634D01*
X296276D01*
Y220518D01*
X296776Y220785D01*
X296851Y220735D01*
D02*
G37*
G36*
X151953Y174486D02*
X151953D01*
X152123Y174073D01*
X151100Y173050D01*
Y170150D01*
X152435Y168815D01*
Y166469D01*
X152361Y165999D01*
X147468D01*
X147261Y166499D01*
X148431Y167669D01*
X149065Y169200D01*
Y173260D01*
X150897Y175092D01*
X151953D01*
Y174486D01*
D02*
G37*
G36*
X282187Y193579D02*
X279404Y190796D01*
X278453Y188500D01*
Y184366D01*
X278351Y184121D01*
Y177079D01*
X278453Y176834D01*
Y154835D01*
X269433D01*
X268760Y154557D01*
X264103D01*
Y148665D01*
X257400D01*
X255869Y148031D01*
X251169Y143331D01*
X250889Y142654D01*
X250348D01*
X249831Y143901D01*
X241142Y152590D01*
Y154681D01*
X245897Y159435D01*
X249212D01*
Y152694D01*
X257118D01*
Y159435D01*
X257500D01*
X259031Y160069D01*
X263662Y164701D01*
X264103Y164434D01*
X264103Y164107D01*
Y158619D01*
X274764D01*
Y164557D01*
X264585D01*
X264225Y164557D01*
X263958Y164997D01*
X268631Y169669D01*
X269265Y171200D01*
Y178620D01*
X274764D01*
Y184556D01*
X270171D01*
X269980Y185018D01*
X279002Y194041D01*
X281995D01*
X282187Y193579D01*
D02*
G37*
G36*
X192138Y162625D02*
Y152880D01*
X191676Y152688D01*
X187795Y156569D01*
X187850Y156700D01*
X189900Y158750D01*
Y161650D01*
X189023Y162527D01*
X189214Y162989D01*
X191811D01*
X192138Y162625D01*
D02*
G37*
G36*
X201441Y159391D02*
Y154206D01*
X207532D01*
X207635Y154103D01*
Y152269D01*
X205500D01*
Y149498D01*
X204500D01*
Y152269D01*
X201441D01*
Y151058D01*
X201370Y151028D01*
X199929Y149588D01*
X199467Y149779D01*
Y158124D01*
X200941Y159598D01*
X201441Y159391D01*
D02*
G37*
G36*
X219902Y158973D02*
X219212Y158284D01*
Y155841D01*
X212425Y149291D01*
X211965Y149487D01*
Y155000D01*
X211331Y156531D01*
X209353Y158509D01*
X208559Y158837D01*
Y159435D01*
X219710D01*
X219902Y158973D01*
D02*
G37*
G36*
X239312D02*
X237447Y157108D01*
X236813Y155577D01*
Y151693D01*
X237447Y150162D01*
X246135Y141474D01*
Y139971D01*
X245673Y139779D01*
X245345Y140108D01*
X244493D01*
Y136844D01*
Y133580D01*
X245345D01*
X245673Y133908D01*
X246135Y133717D01*
Y114550D01*
X222910Y91324D01*
X220945D01*
X219200Y90601D01*
X218477Y88857D01*
Y86298D01*
X219200Y84553D01*
X220059Y84197D01*
Y66362D01*
X213122Y59425D01*
X210946D01*
X193467Y76903D01*
Y98839D01*
X193929Y99031D01*
X204883Y88077D01*
X207945D01*
Y91138D01*
X196467Y102616D01*
Y112418D01*
X196929Y112609D01*
X198469Y111069D01*
X200000Y110435D01*
X202500D01*
X204031Y111069D01*
X207909Y114947D01*
X208528Y116443D01*
X209051D01*
Y119600D01*
X206378D01*
Y120600D01*
X209051D01*
Y123758D01*
X208543D01*
Y126300D01*
X207909Y127831D01*
X207027Y128713D01*
Y131246D01*
X208421D01*
Y131853D01*
X241167D01*
X242698Y132487D01*
X243493Y133282D01*
Y136344D01*
X240431D01*
X240270Y136182D01*
X208421D01*
Y136789D01*
X205362D01*
Y134018D01*
X204362D01*
Y136817D01*
X202953Y138226D01*
X203160Y138726D01*
X208421D01*
Y139695D01*
X209079Y139967D01*
X211317Y142206D01*
X222186Y152694D01*
X224802D01*
X226590Y154482D01*
X229071D01*
X230601Y155116D01*
X234921Y159435D01*
X239121D01*
X239312Y158973D01*
D02*
G37*
G36*
X58135Y136673D02*
X57907Y136446D01*
Y133905D01*
X58108Y133704D01*
X57916Y133242D01*
X56409D01*
X55974Y133422D01*
X55539Y133242D01*
X52907D01*
Y130610D01*
X52727Y130175D01*
Y96398D01*
X51860Y95532D01*
X48775D01*
X45594Y92351D01*
Y88209D01*
X45094Y88002D01*
X25830Y107266D01*
Y110073D01*
X23399Y112504D01*
X19962D01*
X19127Y111669D01*
X18665Y111860D01*
Y123890D01*
X21180D01*
Y128039D01*
Y132189D01*
X18665D01*
Y134903D01*
X20897Y137135D01*
X57943D01*
X58135Y136673D01*
D02*
G37*
G36*
X123585Y150154D02*
X125116Y149519D01*
X140518D01*
Y144192D01*
X122145D01*
X119849Y143241D01*
X109198Y132590D01*
X108736Y132782D01*
Y137675D01*
X108228D01*
Y146209D01*
X114995Y152976D01*
X116270D01*
X118067Y154772D01*
Y155018D01*
X118529Y155210D01*
X123585Y150154D01*
D02*
G37*
G36*
X96894Y136645D02*
Y130360D01*
X96535Y130019D01*
X86774D01*
X85086Y131706D01*
X83556Y132340D01*
X68146D01*
X67244Y133242D01*
X64703D01*
X62907Y131446D01*
Y128905D01*
X64703Y127108D01*
X67244D01*
X68146Y128010D01*
X82659D01*
X84346Y126323D01*
X85623Y125794D01*
X85523Y125294D01*
X65447D01*
X59086Y131656D01*
X59125Y132014D01*
X59609Y132203D01*
X59703Y132108D01*
X62244D01*
X64041Y133905D01*
Y136446D01*
X63813Y136673D01*
X64004Y137135D01*
X96403D01*
X96894Y136645D01*
D02*
G37*
G36*
X292969Y128769D02*
X300135Y121603D01*
Y116573D01*
X292265D01*
Y129164D01*
X292765Y129263D01*
X292969Y128769D01*
D02*
G37*
G36*
X287935Y150395D02*
Y116573D01*
X279146D01*
Y114376D01*
X278646Y114169D01*
X277482Y115333D01*
X274583D01*
X272533Y113282D01*
Y110383D01*
X274583Y108333D01*
X277482D01*
X278646Y109496D01*
X279146Y109289D01*
Y107092D01*
X300135D01*
Y100037D01*
X279146D01*
Y97462D01*
X276920D01*
X275389Y96828D01*
X270092Y91531D01*
X269765Y90741D01*
X269265Y90841D01*
Y138619D01*
X274764D01*
Y144335D01*
X280669D01*
X282200Y144969D01*
X287231Y150000D01*
X287435Y150494D01*
X287935Y150395D01*
D02*
G37*
G36*
X264103Y138619D02*
X264935D01*
Y57437D01*
X254029Y46531D01*
X253395Y45000D01*
Y40958D01*
X236985Y24548D01*
X234178D01*
X231747Y22117D01*
Y20590D01*
X231291Y20385D01*
X214199Y35540D01*
Y51126D01*
X216183D01*
Y56363D01*
X223755Y63935D01*
X224389Y65466D01*
Y84197D01*
X225248Y84553D01*
X225971Y86298D01*
Y88262D01*
X249831Y112122D01*
X250035Y112616D01*
X250535Y112516D01*
Y104322D01*
X244195Y97982D01*
X240729D01*
Y91454D01*
X247257D01*
Y94920D01*
X254231Y101894D01*
X254865Y103425D01*
Y140903D01*
X258297Y144335D01*
X264103D01*
Y138619D01*
D02*
G37*
G36*
X162835Y104733D02*
Y90446D01*
X161441Y89051D01*
Y87674D01*
X160979Y87482D01*
X156594Y91868D01*
Y110322D01*
X157056Y110513D01*
X162835Y104733D01*
D02*
G37*
G36*
X61806Y119751D02*
X64102Y118800D01*
X94844D01*
X96478Y119477D01*
X96894Y119199D01*
Y115388D01*
X66370Y84865D01*
X54117D01*
X53926Y85327D01*
X56453Y87854D01*
Y90939D01*
X58270Y92757D01*
X59221Y95053D01*
Y121683D01*
X59683Y121874D01*
X61806Y119751D01*
D02*
G37*
G36*
X189138Y149072D02*
Y76006D01*
X189772Y74476D01*
X207884Y56363D01*
Y51126D01*
X209869D01*
Y34566D01*
X209896Y34502D01*
X209873Y34436D01*
X210209Y33745D01*
X210503Y33035D01*
X210567Y33009D01*
X210598Y32946D01*
X219542Y25016D01*
X219365Y24548D01*
X212062D01*
Y16249D01*
X220362D01*
Y23680D01*
X220818Y23885D01*
X235823Y10580D01*
X236549Y10329D01*
X237259Y10035D01*
X237324Y10062D01*
X237389Y10039D01*
X238080Y10375D01*
X238790Y10669D01*
X259098Y30977D01*
X259559Y30785D01*
Y25328D01*
X303685D01*
Y42757D01*
X283787D01*
Y58867D01*
X284591D01*
Y66060D01*
X278654D01*
Y58867D01*
X279458D01*
Y42757D01*
X261328D01*
X261121Y43257D01*
X273153Y55289D01*
X273787Y56820D01*
Y58867D01*
X274591D01*
Y74253D01*
X273787D01*
Y89103D01*
X277816Y93132D01*
X279146D01*
Y90557D01*
X299242D01*
X299434Y90095D01*
X296603Y87265D01*
X286722D01*
X285192Y86631D01*
X280092Y81531D01*
X279458Y80000D01*
Y74253D01*
X278654D01*
Y67060D01*
X284591D01*
Y74253D01*
X283787D01*
Y79103D01*
X287619Y82935D01*
X289355D01*
X289546Y82473D01*
X288122Y81050D01*
Y78150D01*
X289458Y76815D01*
Y74253D01*
X288654D01*
Y58867D01*
X294591D01*
Y74253D01*
X293787D01*
Y76815D01*
X295122Y78150D01*
Y81050D01*
X293699Y82473D01*
X293890Y82935D01*
X297500D01*
X299031Y83569D01*
X303831Y88369D01*
X304465Y89900D01*
Y122500D01*
X303831Y124031D01*
X296665Y131197D01*
Y138619D01*
X303542D01*
X304074Y138088D01*
X306973D01*
X307314Y138429D01*
X307776Y138238D01*
Y13469D01*
X304147Y9839D01*
X303685Y10031D01*
Y24328D01*
X259559D01*
Y7972D01*
X203673D01*
X190803Y20841D01*
Y22117D01*
X188372Y24548D01*
X187096D01*
X152147Y59497D01*
Y82909D01*
X152725Y83487D01*
X153676Y85783D01*
Y88009D01*
X154138Y88200D01*
X166969Y75369D01*
X168500Y74735D01*
X168800D01*
X170331Y75369D01*
X173431Y78469D01*
X174065Y80000D01*
Y87403D01*
X174571Y87910D01*
X175033Y87718D01*
Y86298D01*
X175756Y84553D01*
X177500Y83830D01*
X180059D01*
X181804Y84553D01*
X182527Y86298D01*
Y88857D01*
X181804Y90601D01*
X180059Y91324D01*
X178639D01*
X178447Y91786D01*
X187731Y101069D01*
X188365Y102600D01*
Y149133D01*
X188820Y149331D01*
X189138Y149072D01*
D02*
G37*
G36*
X163416Y143825D02*
X163924D01*
Y136747D01*
X163416D01*
Y129431D01*
X168762D01*
Y136747D01*
X168254D01*
Y138855D01*
X168754Y139062D01*
X169400Y138416D01*
Y136528D01*
X170735Y135192D01*
Y123997D01*
X168592Y121854D01*
X163416D01*
Y114539D01*
X168762D01*
Y116349D01*
X169527Y116666D01*
X174431Y121569D01*
X175065Y123100D01*
Y135192D01*
X176400Y136528D01*
Y139427D01*
X174350Y141477D01*
X172461D01*
X171965Y141974D01*
Y147620D01*
X172427Y147812D01*
X173893Y146345D01*
X175424Y145711D01*
X177375D01*
Y145498D01*
X178770D01*
Y143938D01*
X178671Y143700D01*
Y142395D01*
X177277D01*
Y140123D01*
X180836D01*
Y139623D01*
X181336D01*
Y136851D01*
X184035D01*
Y134915D01*
X177277D01*
Y129371D01*
X177835D01*
Y120885D01*
X176500Y119550D01*
Y116650D01*
X178550Y114600D01*
X181450D01*
X183500Y116650D01*
Y119550D01*
X182165Y120885D01*
Y129371D01*
X184035D01*
Y103497D01*
X170369Y89831D01*
X169735Y88300D01*
Y80897D01*
X168650Y79812D01*
X164905Y83556D01*
X165097Y84018D01*
X166474D01*
X168559Y86103D01*
Y87077D01*
X165000D01*
Y88077D01*
X168559D01*
Y89051D01*
X167165Y90446D01*
Y105630D01*
X166531Y107161D01*
X159615Y114077D01*
X159806Y114539D01*
X162266D01*
Y121854D01*
X161758D01*
Y129431D01*
X162266D01*
Y136747D01*
X159490D01*
X159212Y137162D01*
X159594Y138084D01*
Y139996D01*
X161124Y141526D01*
X161758Y143057D01*
Y143825D01*
X162266D01*
Y146982D01*
X159593D01*
Y147982D01*
X162266D01*
Y150235D01*
X163416D01*
Y143825D01*
D02*
G37*
G36*
X256395Y37181D02*
Y34397D01*
X240454Y18456D01*
X240047Y18756D01*
Y21487D01*
X255933Y37373D01*
X256395Y37181D01*
D02*
G37*
%LPC*%
G36*
X301099Y211900D02*
X300150D01*
Y208900D01*
X303150D01*
Y209850D01*
X301099Y211900D01*
D02*
G37*
G36*
X306260Y154557D02*
X301429D01*
Y152088D01*
X306260D01*
Y154557D01*
D02*
G37*
G36*
Y151088D02*
X301429D01*
Y148619D01*
X306260D01*
Y151088D01*
D02*
G37*
G36*
X243493Y140108D02*
X242641D01*
X240729Y138196D01*
Y137344D01*
X243493D01*
Y140108D01*
D02*
G37*
G36*
X209919Y91136D02*
X208945D01*
Y88077D01*
X212004D01*
Y89051D01*
X209919Y91136D01*
D02*
G37*
G36*
X212004Y87077D02*
X208945D01*
Y84018D01*
X209919D01*
X212004Y86103D01*
Y87077D01*
D02*
G37*
G36*
X207945D02*
X204886D01*
Y86103D01*
X206970Y84018D01*
X207945D01*
Y87077D01*
D02*
G37*
G36*
X25830Y132189D02*
X22180D01*
Y128539D01*
X25830D01*
Y132189D01*
D02*
G37*
G36*
Y127539D02*
X22180D01*
Y123890D01*
X25830D01*
Y127539D01*
D02*
G37*
G36*
X169894Y59425D02*
X166457D01*
X164026Y56994D01*
Y53556D01*
X166457Y51126D01*
X169894D01*
X172325Y53556D01*
Y56994D01*
X169894Y59425D01*
D02*
G37*
G36*
X180336Y139123D02*
X177277D01*
Y136851D01*
X180336D01*
Y139123D01*
D02*
G37*
%LPD*%
D27*
X180934Y147876D02*
D03*
Y155357D02*
D03*
X142315Y177257D02*
D03*
Y184738D02*
D03*
D28*
X300929Y181588D02*
D03*
Y161588D02*
D03*
Y151588D02*
D03*
Y141588D02*
D03*
X269433D02*
D03*
Y151588D02*
D03*
Y161588D02*
D03*
Y181588D02*
D03*
D48*
X73592Y220389D02*
D03*
D49*
X83592D02*
D03*
X93592D02*
D03*
X103592D02*
D03*
X113592D02*
D03*
X123592D02*
D03*
X133592D02*
D03*
X143592D02*
D03*
X153592D02*
D03*
X163592D02*
D03*
X173592D02*
D03*
X183592D02*
D03*
X193592D02*
D03*
X203592D02*
D03*
X213592D02*
D03*
X223592D02*
D03*
X233592D02*
D03*
X243592D02*
D03*
X253592D02*
D03*
X263592D02*
D03*
Y281139D02*
D03*
X253592D02*
D03*
X243592D02*
D03*
X233592D02*
D03*
X223592D02*
D03*
X213592D02*
D03*
X203592D02*
D03*
X193592D02*
D03*
X183592D02*
D03*
X173592D02*
D03*
X163592D02*
D03*
X153592D02*
D03*
X143592D02*
D03*
X133592D02*
D03*
X123592D02*
D03*
X113592D02*
D03*
X103592D02*
D03*
X93592D02*
D03*
X83592D02*
D03*
X73592D02*
D03*
X260963Y298560D02*
D03*
X296397D02*
D03*
D53*
X117667Y305176D02*
D03*
X127667D02*
D03*
X40189Y20399D02*
D03*
X89306D02*
D03*
X235897D02*
D03*
X186654D02*
D03*
X138681D02*
D03*
X21680Y108354D02*
D03*
X224862Y296513D02*
D03*
X214862D02*
D03*
X204862D02*
D03*
X296083Y253364D02*
D03*
Y243364D02*
D03*
X168175Y55275D02*
D03*
X70221Y55197D02*
D03*
X60221D02*
D03*
X21680Y162271D02*
D03*
X125173Y201575D02*
D03*
X135173D02*
D03*
X161693Y201575D02*
D03*
X214387Y201609D02*
D03*
X204387D02*
D03*
X224387D02*
D03*
X234387D02*
D03*
X138839Y55197D02*
D03*
X128839D02*
D03*
D54*
X20504Y20399D02*
D03*
X69621D02*
D03*
X216212D02*
D03*
X166969D02*
D03*
X118996D02*
D03*
X212034Y55275D02*
D03*
D57*
X199882Y167532D02*
D03*
X206378D02*
D03*
X189138Y166647D02*
D03*
X182642D02*
D03*
X299650Y197600D02*
D03*
X293154D02*
D03*
X255603Y202436D02*
D03*
X262099D02*
D03*
X159593Y118196D02*
D03*
X166089D02*
D03*
X149688Y147482D02*
D03*
X143192D02*
D03*
X99567Y134018D02*
D03*
X106063D02*
D03*
X99567Y118196D02*
D03*
X106063D02*
D03*
X143192Y162342D02*
D03*
X149688D02*
D03*
X125477D02*
D03*
X131973D02*
D03*
X199882Y120100D02*
D03*
X206378D02*
D03*
X166089Y133089D02*
D03*
X159593D02*
D03*
Y147482D02*
D03*
X166089D02*
D03*
X182642Y184245D02*
D03*
X189138D02*
D03*
X166089Y162342D02*
D03*
X159593D02*
D03*
X300098Y219291D02*
D03*
X293602D02*
D03*
X174132Y202436D02*
D03*
X180628D02*
D03*
D58*
X74235Y416745D02*
D03*
Y410249D02*
D03*
Y463993D02*
D03*
Y457497D02*
D03*
Y440713D02*
D03*
Y434217D02*
D03*
X70566Y309192D02*
D03*
Y302695D02*
D03*
X89742Y309191D02*
D03*
Y302695D02*
D03*
X57874Y198137D02*
D03*
Y204633D02*
D03*
X76097Y198137D02*
D03*
Y204633D02*
D03*
X94286Y204633D02*
D03*
Y198137D02*
D03*
D59*
X23681Y460000D02*
D03*
Y450000D02*
D03*
Y440000D02*
D03*
Y430000D02*
D03*
Y420000D02*
D03*
X46319Y460000D02*
D03*
Y450000D02*
D03*
Y440000D02*
D03*
Y430000D02*
D03*
Y420000D02*
D03*
X20671Y277419D02*
D03*
Y267419D02*
D03*
Y257419D02*
D03*
Y247419D02*
D03*
Y237419D02*
D03*
X43309Y277419D02*
D03*
Y267419D02*
D03*
Y257419D02*
D03*
Y247419D02*
D03*
Y237419D02*
D03*
D60*
X94235Y410741D02*
D03*
Y418222D02*
D03*
Y434710D02*
D03*
Y442190D02*
D03*
Y457989D02*
D03*
Y465470D02*
D03*
X281961Y430039D02*
D03*
Y437520D02*
D03*
X281277Y204293D02*
D03*
Y196812D02*
D03*
X155512Y177257D02*
D03*
Y184738D02*
D03*
X205000Y149498D02*
D03*
Y156978D02*
D03*
X204862Y134018D02*
D03*
Y141498D02*
D03*
X180836Y139623D02*
D03*
Y132143D02*
D03*
X205000Y176804D02*
D03*
Y184285D02*
D03*
X168898Y184127D02*
D03*
Y176647D02*
D03*
X128359Y184738D02*
D03*
Y177257D02*
D03*
D61*
X291622Y66560D02*
D03*
X281622D02*
D03*
X271622D02*
D03*
D62*
X281622Y24828D02*
D03*
D63*
X290185Y111833D02*
D03*
Y95297D02*
D03*
D64*
X182388Y295176D02*
D03*
X161128D02*
D03*
X182388Y305176D02*
D03*
Y315176D02*
D03*
X161128Y305176D02*
D03*
Y315176D02*
D03*
D65*
X232516Y318560D02*
D03*
X225035D02*
D03*
D66*
X149361Y139916D02*
Y147156D01*
X148900Y139455D02*
X149361Y139916D01*
Y147156D02*
X149688Y147482D01*
X148900Y135788D02*
Y139455D01*
X143743Y140945D02*
X148900Y135788D01*
X311024Y12124D02*
Y207375D01*
X300098Y218300D02*
X311024Y207375D01*
X305685Y6785D02*
X311024Y12124D01*
X281700Y153188D02*
Y176978D01*
X281598Y184121D02*
X281700Y184222D01*
X287900Y222460D02*
X290389Y224949D01*
X287900Y194700D02*
Y222460D01*
X297609Y224949D02*
X300098Y222460D01*
X281598Y177079D02*
Y184121D01*
X300098Y219291D02*
Y222460D01*
X281700Y184222D02*
Y188500D01*
X281598Y177079D02*
X281700Y176978D01*
X290389Y224949D02*
X297609D01*
X202328Y4724D02*
X303754D01*
X186654Y20399D02*
X202328Y4724D01*
X305685Y6656D02*
Y6785D01*
X303754Y4724D02*
X305685Y6656D01*
X150429Y85783D02*
Y94423D01*
X148900Y95952D02*
Y135788D01*
Y95952D02*
X150429Y94423D01*
X148900Y58152D02*
Y84254D01*
Y58152D02*
X186654Y20399D01*
X148900Y84254D02*
X150429Y85783D01*
X105054Y123854D02*
X122145Y140945D01*
X143743D01*
X96651Y123854D02*
X105054D01*
X55974Y130175D02*
X64102Y122047D01*
X94844D01*
X96651Y123854D01*
X21680Y162271D02*
X37221Y177812D01*
X53109D01*
X40189Y20399D02*
X60221Y40431D01*
Y55197D01*
X70221Y39483D02*
Y55197D01*
Y39483D02*
X89306Y20399D01*
X126483Y8200D02*
X138681Y20399D01*
X114900Y8200D02*
X126483D01*
X108100Y15000D02*
X114900Y8200D01*
X108100Y15000D02*
Y27318D01*
X80221Y55197D02*
X108100Y27318D01*
X51024Y90103D02*
X55974Y95053D01*
Y130175D01*
X281700Y188500D02*
X287900Y194700D01*
X280100Y151588D02*
X281700Y153188D01*
X269433Y151588D02*
X280100D01*
D67*
X300929Y141588D02*
X305524D01*
X257400Y146500D02*
X280669D01*
X294599Y178736D02*
Y189298D01*
X293000Y191942D02*
Y197446D01*
X285598Y182464D02*
X285700Y182565D01*
X293000Y197446D02*
X293154Y197600D01*
X285700Y184643D02*
X293000Y191942D01*
X294500Y151588D02*
Y178638D01*
X285700Y182565D02*
Y184643D01*
X290100Y111833D02*
Y180598D01*
X285598Y178736D02*
Y182464D01*
Y178736D02*
X285700Y178635D01*
X290099Y180600D02*
X290100Y180598D01*
X280669Y146500D02*
X285700Y151531D01*
Y178635D01*
X294599Y189298D02*
X299650Y194350D01*
X294500Y178638D02*
X294599Y178736D01*
X155920Y136575D02*
X157429Y138084D01*
Y140893D01*
X152920Y137818D02*
X154429Y139327D01*
X155920Y114710D02*
X165000Y105630D01*
X155920Y114710D02*
Y136575D01*
X157429Y140893D02*
X159593Y143057D01*
X152920Y113468D02*
X154429Y111959D01*
X151416Y154684D02*
X154429Y151671D01*
Y139327D02*
Y151671D01*
X152920Y113468D02*
Y137818D01*
X165000Y87577D02*
Y105630D01*
X146429Y87440D02*
Y92766D01*
X138839Y79849D02*
X146429Y87440D01*
X144900Y94295D02*
X146429Y92766D01*
X154429Y90971D02*
Y111959D01*
X138839Y40241D02*
Y79849D01*
X154429Y90971D02*
X168500Y76900D01*
X140400Y132000D02*
X144900Y127500D01*
Y94295D02*
Y127500D01*
X83556Y130175D02*
X85877Y127854D01*
X102881D01*
X65974Y130175D02*
X83556D01*
X102881Y127854D02*
X106063Y131036D01*
X183315Y163285D02*
Y165973D01*
X182642Y166647D02*
X183315Y165973D01*
X182240Y166245D02*
X182642Y166647D01*
X176300Y151700D02*
Y164576D01*
X177969Y166245D02*
X182240D01*
X176300Y164576D02*
X177969Y166245D01*
X183315Y163285D02*
X186400Y160200D01*
X267100Y171200D02*
Y181588D01*
X245000Y161600D02*
X257500D01*
X234024D02*
X245000D01*
X43300Y280000D02*
Y302492D01*
Y277419D02*
Y280000D01*
X294500Y130300D02*
Y151588D01*
X194303Y101719D02*
Y118297D01*
X150026Y310150D02*
Y310776D01*
Y284705D02*
Y310150D01*
X43300Y210000D02*
Y237419D01*
Y204900D02*
Y210000D01*
X146900Y174157D02*
Y182838D01*
Y169200D02*
Y174157D01*
X276033Y111833D02*
X290100D01*
X180000Y118100D02*
Y132143D01*
X232516Y318600D02*
X240923D01*
X300800Y171400D02*
Y181588D01*
X201191Y162909D02*
X202500Y161600D01*
X199882Y164218D02*
X201191Y162909D01*
X267100Y56541D02*
Y141588D01*
X102036Y302695D02*
X123592Y281139D01*
X94400Y310331D02*
X102036Y302695D01*
X104200Y436790D02*
X122768Y418222D01*
X97500Y442190D02*
X98150Y442840D01*
X163592Y281139D02*
Y292712D01*
X161128Y295176D02*
X163592Y292712D01*
X89863Y198137D02*
X94286D01*
X78900Y209100D02*
X89863Y198137D01*
X78900Y209100D02*
Y260300D01*
X88300Y269700D01*
Y283750D01*
X86250Y285800D02*
X88300Y283750D01*
X49100Y285800D02*
X86250D01*
X43300Y280000D02*
X49100Y285800D01*
X43300Y277419D02*
X43309D01*
X50000Y309192D02*
X70566D01*
X43300Y302492D02*
X50000Y309192D01*
X222224Y87577D02*
X248300Y113653D01*
Y142371D01*
X238977Y151693D02*
X248300Y142371D01*
X238977Y151693D02*
Y155577D01*
X245000Y161600D01*
X257500D02*
X267100Y171200D01*
X204862Y141498D02*
X209800Y143750D01*
X223165Y156647D01*
X197300Y176804D02*
X205000D01*
X194303Y101719D02*
X208445Y87577D01*
X70388Y177812D02*
X83109D01*
X43300Y204900D02*
X70388Y177812D01*
X43300Y237419D02*
X43309D01*
X48667Y204633D02*
X57874D01*
X43300Y210000D02*
X48667Y204633D01*
X150000Y177257D02*
X155512D01*
X146900Y174157D02*
X150000Y177257D01*
X143192Y162342D02*
Y165492D01*
X117667Y305176D02*
X127667Y315176D01*
X145000D01*
X150026Y310150D01*
X294500Y151588D02*
X300929D01*
X294500Y130300D02*
X302300Y122500D01*
Y89900D02*
Y122500D01*
X286722Y85100D02*
X297500D01*
X89200Y457989D02*
X94235D01*
X84392D02*
X89200D01*
X74235Y457497D02*
X84392Y457989D01*
X89200Y450100D02*
Y457989D01*
X146100Y194149D02*
X155512Y184738D01*
X146100Y194149D02*
Y212897D01*
X153592Y220389D01*
X180000Y132143D02*
X180836D01*
X290100Y111833D02*
X290185D01*
X13550Y450000D02*
X23681D01*
X12300Y451250D02*
X13550Y450000D01*
X12300Y451250D02*
Y466700D01*
X15000Y469400D01*
X100000D01*
X105600Y463800D01*
Y440700D02*
Y463800D01*
Y440700D02*
X118600Y427700D01*
X135000D01*
X138600Y431300D01*
Y448314D01*
X153020Y462733D01*
X169800Y141077D02*
X172900Y137977D01*
X169800Y141077D02*
Y155652D01*
X166089Y159363D02*
X169800Y155652D01*
X166089Y159363D02*
Y162342D01*
X199882Y120100D02*
Y132147D01*
X197303Y134726D02*
X199882Y132147D01*
X197303Y134726D02*
Y159021D01*
X201191Y162909D01*
X228118Y163562D02*
Y171694D01*
X223165Y176647D02*
X228118Y171694D01*
X153026Y292274D02*
X158000Y287300D01*
X153026Y292274D02*
Y301202D01*
X157000Y305176D01*
X161128D01*
X176300Y151700D02*
X184500D01*
X186200Y150000D01*
Y102600D02*
Y150000D01*
X171900Y88300D02*
X186200Y102600D01*
X168500Y76900D02*
X168800D01*
X131973Y157500D02*
X134789Y154684D01*
X131973Y157500D02*
Y162342D01*
X171900Y80000D02*
Y88300D01*
X168800Y76900D02*
X171900Y80000D01*
X134789Y154684D02*
X151416D01*
X255603Y199597D02*
Y202436D01*
Y199597D02*
X257500Y197700D01*
X265800D01*
X272800Y204700D01*
Y225100D01*
X137600Y163300D02*
X139500Y161400D01*
Y157684D02*
Y161400D01*
Y157684D02*
X149688D01*
Y162342D01*
X255603Y202436D02*
X257500Y197700D01*
X300098Y218300D02*
Y219291D01*
X46319Y420000D02*
X47100D01*
X122600Y344500D01*
X161429D01*
X167323Y350394D01*
X10131Y267419D02*
X20671D01*
X8800Y268750D02*
X10131Y267419D01*
X8800Y268750D02*
Y294900D01*
X27600Y313700D01*
X92500D01*
X94400Y311800D01*
Y310331D02*
Y311800D01*
X89742Y302695D02*
X102036D01*
X20671Y247419D02*
X31250Y243000D01*
X59067D01*
X66067Y250000D01*
Y254367D01*
X81300Y269600D01*
X147400Y447114D02*
X163020Y462733D01*
X147400Y425000D02*
Y447114D01*
X140622Y418222D02*
X147400Y425000D01*
X122768Y418222D02*
X140622D01*
X98150Y442840D02*
X98800Y443490D01*
X97500Y465470D02*
X98800Y464170D01*
X94235Y465470D02*
X97500D01*
X94235Y418222D02*
X97422D01*
X104200Y425000D01*
Y436790D01*
X98150Y442840D02*
X104200Y436790D01*
X98800Y443490D02*
Y464170D01*
X94286Y198137D02*
X111734D01*
X115173Y201575D01*
Y210100D01*
X113592Y211681D02*
X115173Y210100D01*
X113592Y211681D02*
Y220389D01*
X128359Y177257D02*
X136443D01*
X142315D01*
X128359Y171182D02*
Y177257D01*
X125477Y168300D02*
X128359Y171182D01*
X125477Y162342D02*
Y168300D01*
X70566Y309192D02*
X80100Y309191D01*
X89742D01*
X223165Y156647D02*
X229071D01*
X234024Y161600D01*
X267100Y181588D02*
X269433D01*
X20671Y277419D02*
X43300D01*
X222224Y65466D02*
Y87577D01*
X212034Y55275D02*
X222224Y65466D01*
X205000Y156978D02*
X207822D01*
X209800Y155000D01*
Y143750D02*
Y155000D01*
X207548Y141498D02*
X209800Y143750D01*
X204862Y141498D02*
X207548D01*
X191303Y76006D02*
X212034Y55275D01*
X191303Y76006D02*
Y150000D01*
X185946Y155357D02*
X191303Y150000D01*
X180934Y155357D02*
X185946D01*
X212034Y34566D02*
Y55275D01*
Y34566D02*
X237259Y12200D01*
X258559Y33500D01*
Y43757D01*
X271622Y56820D01*
Y66560D01*
Y90000D01*
X276920Y95297D01*
X290185D01*
X118996Y20399D02*
X138839Y40241D01*
X132623Y132000D02*
X140400D01*
X125118Y124496D02*
X132623Y132000D01*
X159593Y143057D02*
Y147482D01*
X102500Y158421D02*
X105000Y156043D01*
X83109Y177812D02*
X102500Y158421D01*
X206378Y120100D02*
Y126300D01*
X204862Y127816D02*
X206378Y126300D01*
X204862Y127816D02*
Y134018D01*
X206378Y116478D02*
Y120100D01*
X202500Y112600D02*
X206378Y116478D01*
X200000Y112600D02*
X202500D01*
X194303Y118297D02*
X200000Y112600D01*
X194303Y118297D02*
Y173807D01*
X197300Y176804D01*
X204862Y134018D02*
X241167D01*
X243993Y136844D01*
X204100Y134018D02*
X204862D01*
X200303Y137815D02*
X204100Y134018D01*
X200303Y137815D02*
Y146900D01*
X202900Y149498D01*
X205000D01*
X115000Y180840D02*
X118898Y184738D01*
X128359D01*
X20671Y237419D02*
X43300D01*
X128359Y184738D02*
X142315D01*
X128359D02*
X135173Y191551D01*
Y201575D01*
X243592Y196220D02*
X253165Y186647D01*
X243592Y196220D02*
Y220389D01*
X135173Y201575D02*
Y208809D01*
X123592Y220389D02*
X135173Y208809D01*
X253165Y186647D02*
X257566Y191048D01*
X265000D01*
X278245Y204293D01*
X281277D01*
X142315Y184738D02*
X145000D01*
X146900Y182838D01*
X143192Y165492D02*
X146900Y169200D01*
X123592Y220389D02*
X128300Y225097D01*
Y294542D01*
X117667Y305176D02*
X128300Y294542D01*
X155512Y177257D02*
X158700D01*
X165570Y184127D01*
X168898D01*
X299650Y197600D02*
Y208400D01*
X168898Y184127D02*
X175700D01*
X175818Y184245D01*
X182642D01*
X154426Y315176D02*
X161128D01*
X150026Y310776D02*
X154426Y315176D01*
X150026Y284705D02*
X153592Y281139D01*
X182642Y177042D02*
Y184245D01*
X173300Y167700D02*
X182642Y177042D01*
X173300Y150000D02*
Y167700D01*
Y150000D02*
X175424Y147876D01*
X180934D01*
Y143798D02*
Y147876D01*
X180836Y143700D02*
X180934Y143798D01*
X180836Y139623D02*
Y143700D01*
X299650Y194350D02*
Y197600D01*
X297500Y85100D02*
X302300Y89900D01*
X281622Y80000D02*
X286722Y85100D01*
X281622Y66560D02*
Y80000D01*
Y24828D02*
Y66560D01*
X161128Y315176D02*
X167874D01*
X169300Y313750D01*
Y284472D02*
Y313750D01*
X168900Y284072D02*
X169300Y284472D01*
X168900Y277500D02*
Y284072D01*
Y277500D02*
X171400Y275000D01*
X175800D01*
X178300Y277500D01*
Y285000D01*
X184500Y291200D01*
X199549D01*
X204862Y296513D01*
X74235Y434217D02*
X83900D01*
X84392Y434710D01*
X94235D01*
X71250Y434217D02*
X74235D01*
X69500Y435967D02*
X71250Y434217D01*
X69500Y435967D02*
Y447500D01*
X67000Y450000D02*
X69500Y447500D01*
X46319Y450000D02*
X67000D01*
X94235Y434710D02*
X99600D01*
X46319Y430000D02*
X55800D01*
X58300Y427500D01*
Y413700D02*
Y427500D01*
Y413700D02*
X121606Y350394D01*
X147638D01*
X153592Y220389D02*
X158303Y225100D01*
X165700D01*
X168300Y222500D01*
Y215932D02*
Y222500D01*
Y215932D02*
X174132Y210100D01*
Y202436D02*
Y210100D01*
X189138Y166647D02*
Y173423D01*
X200000Y184285D01*
X205000D01*
X212900D01*
X215262Y186647D01*
X223165D01*
X159593Y162342D02*
Y173440D01*
X162800Y176647D01*
X168898D01*
X175800D01*
X106063Y102900D02*
Y118196D01*
X253165Y176647D02*
X262075Y185557D01*
X267457D01*
X278712Y196812D01*
X281277D01*
X182388Y305176D02*
X223911D01*
X225035Y306300D01*
Y318560D01*
X183592Y281139D02*
X188331Y276400D01*
X236250D01*
X238300Y278450D01*
Y282700D01*
X254160Y298560D01*
X260963D01*
X240923Y318600D02*
X260963Y298560D01*
X232516Y318560D02*
Y318600D01*
X70000Y410249D02*
X74235D01*
X62000Y418249D02*
X70000Y410249D01*
X62000Y418249D02*
Y434700D01*
X56700Y440000D02*
X62000Y434700D01*
X46319Y440000D02*
X56700D01*
X74235Y410249D02*
X83900D01*
X84392Y410741D01*
X94235D01*
X144377D01*
X147638Y407480D01*
X113600Y48700D02*
X123900Y38400D01*
X113600Y48700D02*
Y84300D01*
X135118Y105818D01*
Y124496D01*
X300800Y181588D02*
X300929D01*
X112126Y452997D02*
Y505311D01*
Y452997D02*
X133020Y432103D01*
X153020D02*
X157423Y427700D01*
X175100D01*
X177400Y430000D01*
Y507600D01*
X180000Y510200D01*
X197237D01*
X202126Y505311D01*
X163020Y432103D02*
X168000Y437084D01*
Y501185D01*
X172126Y505311D01*
X142126D02*
X154315Y517500D01*
X200100D01*
X207600Y510000D01*
Y456684D02*
Y510000D01*
X183020Y432103D02*
X207600Y456684D01*
X132126Y505311D02*
X147915Y521100D01*
X211300D01*
X217400Y515000D01*
Y456484D02*
Y515000D01*
X193020Y432103D02*
X217400Y456484D01*
X157615Y500800D02*
X162126Y505311D01*
X129300Y500800D02*
X157615D01*
X127600Y502500D02*
X129300Y500800D01*
X127600Y502500D02*
Y509300D01*
X144500Y526200D01*
X215000D01*
X220400Y520800D01*
Y449484D02*
Y520800D01*
X203020Y432103D02*
X220400Y449484D01*
X183020Y462733D02*
X192126Y471840D01*
Y505311D01*
X9988Y430000D02*
X23681D01*
X9300Y430688D02*
X9988Y430000D01*
X9300Y430688D02*
Y469700D01*
X52500Y512900D01*
X115000D01*
X117600Y510300D01*
Y488153D02*
Y510300D01*
Y488153D02*
X143020Y462733D01*
X166089Y118196D02*
X167996D01*
X172900Y123100D01*
Y137977D01*
X166089Y133089D02*
Y147482D01*
Y152400D01*
X160000D02*
X166089D01*
X154600Y157800D02*
X160000Y152400D01*
X154600Y157800D02*
Y171600D01*
X199882Y164218D02*
Y167532D01*
X202500Y161600D02*
X226156D01*
X228118Y163562D01*
X206378Y167532D02*
X214300D01*
X215186Y166647D01*
X223165D01*
X206378Y167532D02*
Y170700D01*
X217278Y181600D01*
X226250D01*
X228200Y183550D01*
Y190800D01*
X225000Y194000D02*
X228200Y190800D01*
X186328Y194000D02*
X225000D01*
X180628Y199700D02*
X186328Y194000D01*
X180628Y199700D02*
Y202436D01*
X73592Y207138D02*
Y220389D01*
Y207138D02*
X76097Y204633D01*
X88959Y204633D02*
X94286D01*
X83592Y210000D02*
X88959Y204633D01*
X83592Y210000D02*
Y220389D01*
X94286Y204633D02*
X99700D01*
X108900Y213833D01*
Y222500D01*
X111500Y225100D01*
X115700D01*
X118300Y222500D01*
Y208447D02*
Y222500D01*
Y208447D02*
X125173Y201575D01*
X133592Y220389D02*
X140600Y213381D01*
X243993Y94718D02*
X252700Y103425D01*
Y141800D01*
X257400Y146500D01*
X293154Y197600D02*
Y208200D01*
X293602Y208649D01*
Y219291D01*
X183592Y220389D02*
X194387Y209594D01*
Y201609D02*
Y209594D01*
X193592Y220389D02*
X204387Y209594D01*
Y201609D02*
Y209594D01*
X203592Y220389D02*
X214387Y209594D01*
Y201609D02*
Y209594D01*
X213592Y220389D02*
X224387Y209594D01*
Y201609D02*
Y209594D01*
X223592Y220389D02*
X234387Y209594D01*
Y201609D02*
Y209594D01*
X253592Y220389D02*
X262099Y211882D01*
Y202436D02*
Y211882D01*
X263592Y220389D02*
Y230873D01*
X296083Y263364D01*
X182388Y295176D02*
X192500D01*
X199024Y301700D01*
X240000D01*
X242500Y299200D01*
Y293200D02*
Y299200D01*
X237900Y288600D02*
X242500Y293200D01*
X211053Y288600D02*
X237900D01*
X203592Y281139D02*
X211053Y288600D01*
X173592Y281139D02*
Y312500D01*
X176268Y315176D01*
X182388D01*
X137667Y287065D02*
Y305176D01*
Y287065D02*
X143592Y281139D01*
X127667Y305176D02*
X133592Y299250D01*
Y281139D02*
Y299250D01*
X21680Y108354D02*
X47335Y82700D01*
X67267D01*
X99567Y115000D01*
Y118196D01*
X182642Y166647D02*
Y172100D01*
X189138Y178596D01*
Y184245D01*
X235897Y20399D02*
X255559Y40061D01*
Y45000D01*
X267100Y56541D01*
Y141588D02*
X269433D01*
X159593Y118196D02*
Y133089D01*
X105000Y166043D02*
X110000Y161043D01*
X105000Y166043D02*
Y180840D01*
X110000Y161043D02*
X115757D01*
X125116Y151684D01*
X142757D01*
X143192Y151250D01*
Y147482D02*
Y151250D01*
X106063Y131036D02*
Y134018D01*
Y147106D01*
X115000Y156043D01*
X16500Y72422D02*
X30347Y58575D01*
X16500Y72422D02*
Y135800D01*
X20000Y139300D01*
X97767D01*
X99567Y137500D01*
Y134018D02*
Y137500D01*
X57874Y198137D02*
X66900Y198137D01*
X76097D01*
X80563D01*
X92860Y185840D01*
X110000D01*
X23681Y420000D02*
X46319D01*
X157480Y360236D02*
X167323Y350394D01*
X157480Y360236D02*
Y407480D01*
X243110Y445000D02*
X258071Y430039D01*
X281961D01*
X108931Y285800D02*
X113592Y281139D01*
X97595Y285800D02*
X108931D01*
X80700Y302695D02*
X97595Y285800D01*
X70566Y302695D02*
X80700D01*
X43309Y247419D02*
X54619D01*
X59300Y252100D01*
X43309Y257419D02*
X56000D01*
X43309Y267419D02*
X69872D01*
X83592Y281139D01*
X74235Y416745D02*
X83400D01*
X84876Y418222D01*
X94235D01*
X84877Y442190D02*
X94235D01*
X83400Y440713D02*
X84877Y442190D01*
X74235Y440713D02*
X83400D01*
X94235Y442190D02*
X97500D01*
X84877Y465470D02*
X94235D01*
X83400Y463993D02*
X84877Y465470D01*
X74235Y463993D02*
X83400D01*
X256890Y445000D02*
X264370Y437520D01*
X281961D01*
X62193Y463993D02*
X74235D01*
X58200Y460000D02*
X62193Y463993D01*
X46319Y460000D02*
X58200D01*
X23681D02*
X46319D01*
X291622Y66560D02*
Y79600D01*
D68*
X147638Y407480D02*
D03*
X167323D02*
D03*
X157480D02*
D03*
X147638Y350394D02*
D03*
X167323D02*
D03*
D69*
X179527Y377953D02*
D03*
X135433D02*
D03*
D70*
X208445Y87577D02*
D03*
X243110Y445000D02*
D03*
X165000Y87577D02*
D03*
D71*
X222224D02*
D03*
X256890Y445000D02*
D03*
X178780Y87577D02*
D03*
D72*
X65974Y130175D02*
D03*
X60974Y135175D02*
D03*
X115000Y180840D02*
D03*
X110000Y185840D02*
D03*
Y161043D02*
D03*
X115000Y156043D02*
D03*
X130118Y119496D02*
D03*
X125118Y124496D02*
D03*
D73*
X55974Y130175D02*
D03*
X105000Y180840D02*
D03*
Y156043D02*
D03*
X135118Y124496D02*
D03*
D74*
X53109Y167812D02*
D03*
Y177812D02*
D03*
X83109D02*
D03*
Y167812D02*
D03*
D75*
X21680Y181956D02*
D03*
Y128039D02*
D03*
D76*
X137667Y305176D02*
D03*
X234862Y296513D02*
D03*
X80221Y55197D02*
D03*
X115173Y201575D02*
D03*
X151693Y201575D02*
D03*
X194387Y201609D02*
D03*
X118839Y55197D02*
D03*
D77*
X142126Y505311D02*
D03*
X152126D02*
D03*
X132126D02*
D03*
X122126D02*
D03*
X112126D02*
D03*
X102126D02*
D03*
X162126D02*
D03*
X172126D02*
D03*
X182126D02*
D03*
X192126D02*
D03*
X202126D02*
D03*
X305524Y141588D02*
D03*
X290099Y180600D02*
D03*
X89200Y450100D02*
D03*
X180000Y118100D02*
D03*
X276033Y111833D02*
D03*
X158000Y287300D02*
D03*
X186400Y160200D02*
D03*
X137600Y163300D02*
D03*
X272800Y225100D02*
D03*
X81300Y269600D02*
D03*
X136443Y177257D02*
D03*
X299650Y208400D02*
D03*
X99600Y434710D02*
D03*
X175800Y176647D02*
D03*
X106063Y102900D02*
D03*
X123900Y38400D02*
D03*
X300800Y171400D02*
D03*
X172900Y137977D02*
D03*
X154600Y171600D02*
D03*
X59300Y252100D02*
D03*
X56000Y257419D02*
D03*
X291622Y79600D02*
D03*
D78*
X212126Y505311D02*
D03*
D79*
X123020Y462733D02*
D03*
X133020D02*
D03*
X143020D02*
D03*
X153020D02*
D03*
X163020D02*
D03*
X173020D02*
D03*
X183020D02*
D03*
X193020D02*
D03*
X203020D02*
D03*
X213020D02*
D03*
Y432103D02*
D03*
X203020D02*
D03*
X193020D02*
D03*
X183020D02*
D03*
X173020D02*
D03*
X163020D02*
D03*
X153020D02*
D03*
X143020D02*
D03*
X133020D02*
D03*
D80*
X123020D02*
D03*
D81*
X30347Y78575D02*
D03*
Y68575D02*
D03*
D82*
Y58575D02*
D03*
D83*
X243993Y136844D02*
D03*
D84*
Y94718D02*
D03*
D85*
X296083Y263364D02*
D03*
D86*
X140000Y90103D02*
D03*
X51024D02*
D03*
D87*
X253165Y156647D02*
D03*
D88*
Y166647D02*
D03*
Y176647D02*
D03*
Y186647D02*
D03*
X223165Y156647D02*
D03*
Y166647D02*
D03*
Y176647D02*
D03*
Y186647D02*
D03*
M02*
